solid synergy_h1_service_door
  facet normal 0.000000 0.000000 -1.000000
    outer loop
      vertex -0.067500 -0.072500 0.000000
      vertex 0.067500 0.072500 0.000000
      vertex 0.067500 -0.072500 0.000000
    endloop
  endfacet
  facet normal 0.000000 0.000000 -1.000000
    outer loop
      vertex -0.067500 -0.072500 0.000000
      vertex -0.067500 0.072500 0.000000
      vertex 0.067500 0.072500 0.000000
    endloop
  endfacet
  facet normal 0.000000 0.000000 1.000000
    outer loop
      vertex -0.067500 -0.072500 0.004000
      vertex 0.067500 -0.072500 0.004000
      vertex 0.067500 0.072500 0.004000
    endloop
  endfacet
  facet normal 0.000000 0.000000 1.000000
    outer loop
      vertex -0.067500 -0.072500 0.004000
      vertex 0.067500 0.072500 0.004000
      vertex -0.067500 0.072500 0.004000
    endloop
  endfacet
  facet normal 0.000000 -1.000000 0.000000
    outer loop
      vertex -0.067500 -0.072500 0.000000
      vertex 0.067500 -0.072500 0.000000
      vertex 0.067500 -0.072500 0.004000
    endloop
  endfacet
  facet normal 0.000000 -1.000000 0.000000
    outer loop
      vertex -0.067500 -0.072500 0.000000
      vertex 0.067500 -0.072500 0.004000
      vertex -0.067500 -0.072500 0.004000
    endloop
  endfacet
  facet normal 0.000000 1.000000 0.000000
    outer loop
      vertex -0.067500 0.072500 0.000000
      vertex -0.067500 0.072500 0.004000
      vertex 0.067500 0.072500 0.004000
    endloop
  endfacet
  facet normal 0.000000 1.000000 0.000000
    outer loop
      vertex -0.067500 0.072500 0.000000
      vertex 0.067500 0.072500 0.004000
      vertex 0.067500 0.072500 0.000000
    endloop
  endfacet
  facet normal -1.000000 0.000000 0.000000
    outer loop
      vertex -0.067500 -0.072500 0.000000
      vertex -0.067500 -0.072500 0.004000
      vertex -0.067500 0.072500 0.004000
    endloop
  endfacet
  facet normal -1.000000 0.000000 0.000000
    outer loop
      vertex -0.067500 -0.072500 0.000000
      vertex -0.067500 0.072500 0.004000
      vertex -0.067500 0.072500 0.000000
    endloop
  endfacet
  facet normal 1.000000 0.000000 0.000000
    outer loop
      vertex 0.067500 -0.072500 0.000000
      vertex 0.067500 0.072500 0.000000
      vertex 0.067500 0.072500 0.004000
    endloop
  endfacet
  facet normal 1.000000 0.000000 0.000000
    outer loop
      vertex 0.067500 -0.072500 0.000000
      vertex 0.067500 0.072500 0.004000
      vertex 0.067500 -0.072500 0.004000
    endloop
  endfacet
endsolid synergy_h1_service_door
