solid centrifuge_top_cap
  facet normal 0.000000 0.000000 -1.000000
    outer loop
      vertex -0.157500 -0.223000 0.000000
      vertex 0.157500 0.223000 0.000000
      vertex 0.157500 -0.223000 0.000000
    endloop
  endfacet
  facet normal 0.000000 0.000000 -1.000000
    outer loop
      vertex -0.157500 -0.223000 0.000000
      vertex -0.157500 0.223000 0.000000
      vertex 0.157500 0.223000 0.000000
    endloop
  endfacet
  facet normal 0.000000 0.000000 1.000000
    outer loop
      vertex -0.157500 -0.223000 0.052000
      vertex 0.157500 -0.223000 0.052000
      vertex 0.157500 0.223000 0.052000
    endloop
  endfacet
  facet normal 0.000000 0.000000 1.000000
    outer loop
      vertex -0.157500 -0.223000 0.052000
      vertex 0.157500 0.223000 0.052000
      vertex -0.157500 0.223000 0.052000
    endloop
  endfacet
  facet normal 0.000000 -1.000000 0.000000
    outer loop
      vertex -0.157500 -0.223000 0.000000
      vertex 0.157500 -0.223000 0.000000
      vertex 0.157500 -0.223000 0.052000
    endloop
  endfacet
  facet normal 0.000000 -1.000000 0.000000
    outer loop
      vertex -0.157500 -0.223000 0.000000
      vertex 0.157500 -0.223000 0.052000
      vertex -0.157500 -0.223000 0.052000
    endloop
  endfacet
  facet normal 0.000000 1.000000 0.000000
    outer loop
      vertex -0.157500 0.223000 0.000000
      vertex -0.157500 0.223000 0.052000
      vertex 0.157500 0.223000 0.052000
    endloop
  endfacet
  facet normal 0.000000 1.000000 0.000000
    outer loop
      vertex -0.157500 0.223000 0.000000
      vertex 0.157500 0.223000 0.052000
      vertex 0.157500 0.223000 0.000000
    endloop
  endfacet
  facet normal -1.000000 0.000000 0.000000
    outer loop
      vertex -0.157500 -0.223000 0.000000
      vertex -0.157500 -0.223000 0.052000
      vertex -0.157500 0.223000 0.052000
    endloop
  endfacet
  facet normal -1.000000 0.000000 0.000000
    outer loop
      vertex -0.157500 -0.223000 0.000000
      vertex -0.157500 0.223000 0.052000
      vertex -0.157500 0.223000 0.000000
    endloop
  endfacet
  facet normal 1.000000 0.000000 0.000000
    outer loop
      vertex 0.157500 -0.223000 0.000000
      vertex 0.157500 0.223000 0.000000
      vertex 0.157500 0.223000 0.052000
    endloop
  endfacet
  facet normal 1.000000 0.000000 0.000000
    outer loop
      vertex 0.157500 -0.223000 0.000000
      vertex 0.157500 0.223000 0.052000
      vertex 0.157500 -0.223000 0.052000
    endloop
  endfacet
endsolid centrifuge_top_cap
