solid hettich_rotanta_460_robotic_lid_shell
  facet normal 0.000000 0.000000 -1.000000
    outer loop
      vertex -0.270000 -0.340000 0.000000
      vertex 0.270000 0.340000 0.000000
      vertex 0.270000 -0.340000 0.000000
    endloop
  endfacet
  facet normal 0.000000 0.000000 -1.000000
    outer loop
      vertex -0.270000 -0.340000 0.000000
      vertex -0.270000 0.340000 0.000000
      vertex 0.270000 0.340000 0.000000
    endloop
  endfacet
  facet normal 0.000000 0.000000 1.000000
    outer loop
      vertex -0.270000 -0.340000 0.344000
      vertex 0.270000 -0.340000 0.344000
      vertex 0.270000 0.340000 0.344000
    endloop
  endfacet
  facet normal 0.000000 0.000000 1.000000
    outer loop
      vertex -0.270000 -0.340000 0.344000
      vertex 0.270000 0.340000 0.344000
      vertex -0.270000 0.340000 0.344000
    endloop
  endfacet
  facet normal 0.000000 -1.000000 0.000000
    outer loop
      vertex -0.270000 -0.340000 0.000000
      vertex 0.270000 -0.340000 0.000000
      vertex 0.270000 -0.340000 0.344000
    endloop
  endfacet
  facet normal 0.000000 -1.000000 0.000000
    outer loop
      vertex -0.270000 -0.340000 0.000000
      vertex 0.270000 -0.340000 0.344000
      vertex -0.270000 -0.340000 0.344000
    endloop
  endfacet
  facet normal 0.000000 1.000000 0.000000
    outer loop
      vertex -0.270000 0.340000 0.000000
      vertex -0.270000 0.340000 0.344000
      vertex 0.270000 0.340000 0.344000
    endloop
  endfacet
  facet normal 0.000000 1.000000 0.000000
    outer loop
      vertex -0.270000 0.340000 0.000000
      vertex 0.270000 0.340000 0.344000
      vertex 0.270000 0.340000 0.000000
    endloop
  endfacet
  facet normal -1.000000 0.000000 0.000000
    outer loop
      vertex -0.270000 -0.340000 0.000000
      vertex -0.270000 -0.340000 0.344000
      vertex -0.270000 0.340000 0.344000
    endloop
  endfacet
  facet normal -1.000000 0.000000 0.000000
    outer loop
      vertex -0.270000 -0.340000 0.000000
      vertex -0.270000 0.340000 0.344000
      vertex -0.270000 0.340000 0.000000
    endloop
  endfacet
  facet normal 1.000000 0.000000 0.000000
    outer loop
      vertex 0.270000 -0.340000 0.000000
      vertex 0.270000 0.340000 0.000000
      vertex 0.270000 0.340000 0.344000
    endloop
  endfacet
  facet normal 1.000000 0.000000 0.000000
    outer loop
      vertex 0.270000 -0.340000 0.000000
      vertex 0.270000 0.340000 0.344000
      vertex 0.270000 -0.340000 0.344000
    endloop
  endfacet
endsolid hettich_rotanta_460_robotic_lid_shell
