solid hettich_rotanta_460_robotic_rear_hatch_frame
  facet normal 0.000000 0.000000 -1.000000
    outer loop
      vertex -0.090000 -0.045000 0.000000
      vertex 0.090000 0.045000 0.000000
      vertex 0.090000 -0.045000 0.000000
    endloop
  endfacet
  facet normal 0.000000 0.000000 -1.000000
    outer loop
      vertex -0.090000 -0.045000 0.000000
      vertex -0.090000 0.045000 0.000000
      vertex 0.090000 0.045000 0.000000
    endloop
  endfacet
  facet normal 0.000000 0.000000 1.000000
    outer loop
      vertex -0.090000 -0.045000 0.030000
      vertex 0.090000 -0.045000 0.030000
      vertex 0.090000 0.045000 0.030000
    endloop
  endfacet
  facet normal 0.000000 0.000000 1.000000
    outer loop
      vertex -0.090000 -0.045000 0.030000
      vertex 0.090000 0.045000 0.030000
      vertex -0.090000 0.045000 0.030000
    endloop
  endfacet
  facet normal 0.000000 -1.000000 0.000000
    outer loop
      vertex -0.090000 -0.045000 0.000000
      vertex 0.090000 -0.045000 0.000000
      vertex 0.090000 -0.045000 0.030000
    endloop
  endfacet
  facet normal 0.000000 -1.000000 0.000000
    outer loop
      vertex -0.090000 -0.045000 0.000000
      vertex 0.090000 -0.045000 0.030000
      vertex -0.090000 -0.045000 0.030000
    endloop
  endfacet
  facet normal 0.000000 1.000000 0.000000
    outer loop
      vertex -0.090000 0.045000 0.000000
      vertex -0.090000 0.045000 0.030000
      vertex 0.090000 0.045000 0.030000
    endloop
  endfacet
  facet normal 0.000000 1.000000 0.000000
    outer loop
      vertex -0.090000 0.045000 0.000000
      vertex 0.090000 0.045000 0.030000
      vertex 0.090000 0.045000 0.000000
    endloop
  endfacet
  facet normal -1.000000 0.000000 0.000000
    outer loop
      vertex -0.090000 -0.045000 0.000000
      vertex -0.090000 -0.045000 0.030000
      vertex -0.090000 0.045000 0.030000
    endloop
  endfacet
  facet normal -1.000000 0.000000 0.000000
    outer loop
      vertex -0.090000 -0.045000 0.000000
      vertex -0.090000 0.045000 0.030000
      vertex -0.090000 0.045000 0.000000
    endloop
  endfacet
  facet normal 1.000000 0.000000 0.000000
    outer loop
      vertex 0.090000 -0.045000 0.000000
      vertex 0.090000 0.045000 0.000000
      vertex 0.090000 0.045000 0.030000
    endloop
  endfacet
  facet normal 1.000000 0.000000 0.000000
    outer loop
      vertex 0.090000 -0.045000 0.000000
      vertex 0.090000 0.045000 0.030000
      vertex 0.090000 -0.045000 0.030000
    endloop
  endfacet
endsolid hettich_rotanta_460_robotic_rear_hatch_frame
