solid v_spin_door_panel
  facet normal 0.000000 0.000000 -1.000000
    outer loop
      vertex -0.073000 -0.005000 0.000000
      vertex 0.073000 0.005000 0.000000
      vertex 0.073000 -0.005000 0.000000
    endloop
  endfacet
  facet normal 0.000000 0.000000 -1.000000
    outer loop
      vertex -0.073000 -0.005000 0.000000
      vertex -0.073000 0.005000 0.000000
      vertex 0.073000 0.005000 0.000000
    endloop
  endfacet
  facet normal 0.000000 0.000000 1.000000
    outer loop
      vertex -0.073000 -0.005000 0.072000
      vertex 0.073000 -0.005000 0.072000
      vertex 0.073000 0.005000 0.072000
    endloop
  endfacet
  facet normal 0.000000 0.000000 1.000000
    outer loop
      vertex -0.073000 -0.005000 0.072000
      vertex 0.073000 0.005000 0.072000
      vertex -0.073000 0.005000 0.072000
    endloop
  endfacet
  facet normal 0.000000 -1.000000 0.000000
    outer loop
      vertex -0.073000 -0.005000 0.000000
      vertex 0.073000 -0.005000 0.000000
      vertex 0.073000 -0.005000 0.072000
    endloop
  endfacet
  facet normal 0.000000 -1.000000 0.000000
    outer loop
      vertex -0.073000 -0.005000 0.000000
      vertex 0.073000 -0.005000 0.072000
      vertex -0.073000 -0.005000 0.072000
    endloop
  endfacet
  facet normal 0.000000 1.000000 0.000000
    outer loop
      vertex -0.073000 0.005000 0.000000
      vertex -0.073000 0.005000 0.072000
      vertex 0.073000 0.005000 0.072000
    endloop
  endfacet
  facet normal 0.000000 1.000000 0.000000
    outer loop
      vertex -0.073000 0.005000 0.000000
      vertex 0.073000 0.005000 0.072000
      vertex 0.073000 0.005000 0.000000
    endloop
  endfacet
  facet normal -1.000000 0.000000 0.000000
    outer loop
      vertex -0.073000 -0.005000 0.000000
      vertex -0.073000 -0.005000 0.072000
      vertex -0.073000 0.005000 0.072000
    endloop
  endfacet
  facet normal -1.000000 0.000000 0.000000
    outer loop
      vertex -0.073000 -0.005000 0.000000
      vertex -0.073000 0.005000 0.072000
      vertex -0.073000 0.005000 0.000000
    endloop
  endfacet
  facet normal 1.000000 0.000000 0.000000
    outer loop
      vertex 0.073000 -0.005000 0.000000
      vertex 0.073000 0.005000 0.000000
      vertex 0.073000 0.005000 0.072000
    endloop
  endfacet
  facet normal 1.000000 0.000000 0.000000
    outer loop
      vertex 0.073000 -0.005000 0.000000
      vertex 0.073000 0.005000 0.072000
      vertex 0.073000 -0.005000 0.072000
    endloop
  endfacet
endsolid v_spin_door_panel
