solid v_spin_gripper_housing
  facet normal 0.000000 0.000000 -1.000000
    outer loop
      vertex -0.085000 -0.060000 0.000000
      vertex 0.085000 0.060000 0.000000
      vertex 0.085000 -0.060000 0.000000
    endloop
  endfacet
  facet normal 0.000000 0.000000 -1.000000
    outer loop
      vertex -0.085000 -0.060000 0.000000
      vertex -0.085000 0.060000 0.000000
      vertex 0.085000 0.060000 0.000000
    endloop
  endfacet
  facet normal 0.000000 0.000000 1.000000
    outer loop
      vertex -0.085000 -0.060000 0.090000
      vertex 0.085000 -0.060000 0.090000
      vertex 0.085000 0.060000 0.090000
    endloop
  endfacet
  facet normal 0.000000 0.000000 1.000000
    outer loop
      vertex -0.085000 -0.060000 0.090000
      vertex 0.085000 0.060000 0.090000
      vertex -0.085000 0.060000 0.090000
    endloop
  endfacet
  facet normal 0.000000 -1.000000 0.000000
    outer loop
      vertex -0.085000 -0.060000 0.000000
      vertex 0.085000 -0.060000 0.000000
      vertex 0.085000 -0.060000 0.090000
    endloop
  endfacet
  facet normal 0.000000 -1.000000 0.000000
    outer loop
      vertex -0.085000 -0.060000 0.000000
      vertex 0.085000 -0.060000 0.090000
      vertex -0.085000 -0.060000 0.090000
    endloop
  endfacet
  facet normal 0.000000 1.000000 0.000000
    outer loop
      vertex -0.085000 0.060000 0.000000
      vertex -0.085000 0.060000 0.090000
      vertex 0.085000 0.060000 0.090000
    endloop
  endfacet
  facet normal 0.000000 1.000000 0.000000
    outer loop
      vertex -0.085000 0.060000 0.000000
      vertex 0.085000 0.060000 0.090000
      vertex 0.085000 0.060000 0.000000
    endloop
  endfacet
  facet normal -1.000000 0.000000 0.000000
    outer loop
      vertex -0.085000 -0.060000 0.000000
      vertex -0.085000 -0.060000 0.090000
      vertex -0.085000 0.060000 0.090000
    endloop
  endfacet
  facet normal -1.000000 0.000000 0.000000
    outer loop
      vertex -0.085000 -0.060000 0.000000
      vertex -0.085000 0.060000 0.090000
      vertex -0.085000 0.060000 0.000000
    endloop
  endfacet
  facet normal 1.000000 0.000000 0.000000
    outer loop
      vertex 0.085000 -0.060000 0.000000
      vertex 0.085000 0.060000 0.000000
      vertex 0.085000 0.060000 0.090000
    endloop
  endfacet
  facet normal 1.000000 0.000000 0.000000
    outer loop
      vertex 0.085000 -0.060000 0.000000
      vertex 0.085000 0.060000 0.090000
      vertex 0.085000 -0.060000 0.090000
    endloop
  endfacet
endsolid v_spin_gripper_housing
