solid v_spin_loader_base
  facet normal 0.000000 0.000000 -1.000000
    outer loop
      vertex -0.163500 -0.126500 0.000000
      vertex 0.163500 0.126500 0.000000
      vertex 0.163500 -0.126500 0.000000
    endloop
  endfacet
  facet normal 0.000000 0.000000 -1.000000
    outer loop
      vertex -0.163500 -0.126500 0.000000
      vertex -0.163500 0.126500 0.000000
      vertex 0.163500 0.126500 0.000000
    endloop
  endfacet
  facet normal 0.000000 0.000000 1.000000
    outer loop
      vertex -0.163500 -0.126500 0.022000
      vertex 0.163500 -0.126500 0.022000
      vertex 0.163500 0.126500 0.022000
    endloop
  endfacet
  facet normal 0.000000 0.000000 1.000000
    outer loop
      vertex -0.163500 -0.126500 0.022000
      vertex 0.163500 0.126500 0.022000
      vertex -0.163500 0.126500 0.022000
    endloop
  endfacet
  facet normal 0.000000 -1.000000 0.000000
    outer loop
      vertex -0.163500 -0.126500 0.000000
      vertex 0.163500 -0.126500 0.000000
      vertex 0.163500 -0.126500 0.022000
    endloop
  endfacet
  facet normal 0.000000 -1.000000 0.000000
    outer loop
      vertex -0.163500 -0.126500 0.000000
      vertex 0.163500 -0.126500 0.022000
      vertex -0.163500 -0.126500 0.022000
    endloop
  endfacet
  facet normal 0.000000 1.000000 0.000000
    outer loop
      vertex -0.163500 0.126500 0.000000
      vertex -0.163500 0.126500 0.022000
      vertex 0.163500 0.126500 0.022000
    endloop
  endfacet
  facet normal 0.000000 1.000000 0.000000
    outer loop
      vertex -0.163500 0.126500 0.000000
      vertex 0.163500 0.126500 0.022000
      vertex 0.163500 0.126500 0.000000
    endloop
  endfacet
  facet normal -1.000000 0.000000 0.000000
    outer loop
      vertex -0.163500 -0.126500 0.000000
      vertex -0.163500 -0.126500 0.022000
      vertex -0.163500 0.126500 0.022000
    endloop
  endfacet
  facet normal -1.000000 0.000000 0.000000
    outer loop
      vertex -0.163500 -0.126500 0.000000
      vertex -0.163500 0.126500 0.022000
      vertex -0.163500 0.126500 0.000000
    endloop
  endfacet
  facet normal 1.000000 0.000000 0.000000
    outer loop
      vertex 0.163500 -0.126500 0.000000
      vertex 0.163500 0.126500 0.000000
      vertex 0.163500 0.126500 0.022000
    endloop
  endfacet
  facet normal 1.000000 0.000000 0.000000
    outer loop
      vertex 0.163500 -0.126500 0.000000
      vertex 0.163500 0.126500 0.022000
      vertex 0.163500 -0.126500 0.022000
    endloop
  endfacet
endsolid v_spin_loader_base
