solid v_spin_plinth
  facet normal 0.000000 0.000000 -1.000000
    outer loop
      vertex -0.163500 -0.229000 0.000000
      vertex 0.163500 0.229000 0.000000
      vertex 0.163500 -0.229000 0.000000
    endloop
  endfacet
  facet normal 0.000000 0.000000 -1.000000
    outer loop
      vertex -0.163500 -0.229000 0.000000
      vertex -0.163500 0.229000 0.000000
      vertex 0.163500 0.229000 0.000000
    endloop
  endfacet
  facet normal 0.000000 0.000000 1.000000
    outer loop
      vertex -0.163500 -0.229000 0.010000
      vertex 0.163500 -0.229000 0.010000
      vertex 0.163500 0.229000 0.010000
    endloop
  endfacet
  facet normal 0.000000 0.000000 1.000000
    outer loop
      vertex -0.163500 -0.229000 0.010000
      vertex 0.163500 0.229000 0.010000
      vertex -0.163500 0.229000 0.010000
    endloop
  endfacet
  facet normal 0.000000 -1.000000 0.000000
    outer loop
      vertex -0.163500 -0.229000 0.000000
      vertex 0.163500 -0.229000 0.000000
      vertex 0.163500 -0.229000 0.010000
    endloop
  endfacet
  facet normal 0.000000 -1.000000 0.000000
    outer loop
      vertex -0.163500 -0.229000 0.000000
      vertex 0.163500 -0.229000 0.010000
      vertex -0.163500 -0.229000 0.010000
    endloop
  endfacet
  facet normal 0.000000 1.000000 0.000000
    outer loop
      vertex -0.163500 0.229000 0.000000
      vertex -0.163500 0.229000 0.010000
      vertex 0.163500 0.229000 0.010000
    endloop
  endfacet
  facet normal 0.000000 1.000000 0.000000
    outer loop
      vertex -0.163500 0.229000 0.000000
      vertex 0.163500 0.229000 0.010000
      vertex 0.163500 0.229000 0.000000
    endloop
  endfacet
  facet normal -1.000000 0.000000 0.000000
    outer loop
      vertex -0.163500 -0.229000 0.000000
      vertex -0.163500 -0.229000 0.010000
      vertex -0.163500 0.229000 0.010000
    endloop
  endfacet
  facet normal -1.000000 0.000000 0.000000
    outer loop
      vertex -0.163500 -0.229000 0.000000
      vertex -0.163500 0.229000 0.010000
      vertex -0.163500 0.229000 0.000000
    endloop
  endfacet
  facet normal 1.000000 0.000000 0.000000
    outer loop
      vertex 0.163500 -0.229000 0.000000
      vertex 0.163500 0.229000 0.000000
      vertex 0.163500 0.229000 0.010000
    endloop
  endfacet
  facet normal 1.000000 0.000000 0.000000
    outer loop
      vertex 0.163500 -0.229000 0.000000
      vertex 0.163500 0.229000 0.010000
      vertex 0.163500 -0.229000 0.010000
    endloop
  endfacet
endsolid v_spin_plinth
