solid tecan_resolvex_a200_dispense_head
  facet normal 0.000000 0.000000 -1.000000
    outer loop
      vertex -0.014000 -0.025000 0.000000
      vertex 0.014000 0.025000 0.000000
      vertex 0.014000 -0.025000 0.000000
    endloop
  endfacet
  facet normal 0.000000 0.000000 -1.000000
    outer loop
      vertex -0.014000 -0.025000 0.000000
      vertex -0.014000 0.025000 0.000000
      vertex 0.014000 0.025000 0.000000
    endloop
  endfacet
  facet normal 0.000000 0.000000 1.000000
    outer loop
      vertex -0.014000 -0.025000 0.058000
      vertex 0.014000 -0.025000 0.058000
      vertex 0.014000 0.025000 0.058000
    endloop
  endfacet
  facet normal 0.000000 0.000000 1.000000
    outer loop
      vertex -0.014000 -0.025000 0.058000
      vertex 0.014000 0.025000 0.058000
      vertex -0.014000 0.025000 0.058000
    endloop
  endfacet
  facet normal 0.000000 -1.000000 0.000000
    outer loop
      vertex -0.014000 -0.025000 0.000000
      vertex 0.014000 -0.025000 0.000000
      vertex 0.014000 -0.025000 0.058000
    endloop
  endfacet
  facet normal 0.000000 -1.000000 0.000000
    outer loop
      vertex -0.014000 -0.025000 0.000000
      vertex 0.014000 -0.025000 0.058000
      vertex -0.014000 -0.025000 0.058000
    endloop
  endfacet
  facet normal 0.000000 1.000000 0.000000
    outer loop
      vertex -0.014000 0.025000 0.000000
      vertex -0.014000 0.025000 0.058000
      vertex 0.014000 0.025000 0.058000
    endloop
  endfacet
  facet normal 0.000000 1.000000 0.000000
    outer loop
      vertex -0.014000 0.025000 0.000000
      vertex 0.014000 0.025000 0.058000
      vertex 0.014000 0.025000 0.000000
    endloop
  endfacet
  facet normal -1.000000 0.000000 0.000000
    outer loop
      vertex -0.014000 -0.025000 0.000000
      vertex -0.014000 -0.025000 0.058000
      vertex -0.014000 0.025000 0.058000
    endloop
  endfacet
  facet normal -1.000000 0.000000 0.000000
    outer loop
      vertex -0.014000 -0.025000 0.000000
      vertex -0.014000 0.025000 0.058000
      vertex -0.014000 0.025000 0.000000
    endloop
  endfacet
  facet normal 1.000000 0.000000 0.000000
    outer loop
      vertex 0.014000 -0.025000 0.000000
      vertex 0.014000 0.025000 0.000000
      vertex 0.014000 0.025000 0.058000
    endloop
  endfacet
  facet normal 1.000000 0.000000 0.000000
    outer loop
      vertex 0.014000 -0.025000 0.000000
      vertex 0.014000 0.025000 0.058000
      vertex 0.014000 -0.025000 0.058000
    endloop
  endfacet
endsolid tecan_resolvex_a200_dispense_head
