solid tecan_resolvex_a200_front_lintel
  facet normal 0.000000 0.000000 -1.000000
    outer loop
      vertex -0.167000 -0.007500 0.000000
      vertex 0.167000 0.007500 0.000000
      vertex 0.167000 -0.007500 0.000000
    endloop
  endfacet
  facet normal 0.000000 0.000000 -1.000000
    outer loop
      vertex -0.167000 -0.007500 0.000000
      vertex -0.167000 0.007500 0.000000
      vertex 0.167000 0.007500 0.000000
    endloop
  endfacet
  facet normal 0.000000 0.000000 1.000000
    outer loop
      vertex -0.167000 -0.007500 0.035000
      vertex 0.167000 -0.007500 0.035000
      vertex 0.167000 0.007500 0.035000
    endloop
  endfacet
  facet normal 0.000000 0.000000 1.000000
    outer loop
      vertex -0.167000 -0.007500 0.035000
      vertex 0.167000 0.007500 0.035000
      vertex -0.167000 0.007500 0.035000
    endloop
  endfacet
  facet normal 0.000000 -1.000000 0.000000
    outer loop
      vertex -0.167000 -0.007500 0.000000
      vertex 0.167000 -0.007500 0.000000
      vertex 0.167000 -0.007500 0.035000
    endloop
  endfacet
  facet normal 0.000000 -1.000000 0.000000
    outer loop
      vertex -0.167000 -0.007500 0.000000
      vertex 0.167000 -0.007500 0.035000
      vertex -0.167000 -0.007500 0.035000
    endloop
  endfacet
  facet normal 0.000000 1.000000 0.000000
    outer loop
      vertex -0.167000 0.007500 0.000000
      vertex -0.167000 0.007500 0.035000
      vertex 0.167000 0.007500 0.035000
    endloop
  endfacet
  facet normal 0.000000 1.000000 0.000000
    outer loop
      vertex -0.167000 0.007500 0.000000
      vertex 0.167000 0.007500 0.035000
      vertex 0.167000 0.007500 0.000000
    endloop
  endfacet
  facet normal -1.000000 0.000000 0.000000
    outer loop
      vertex -0.167000 -0.007500 0.000000
      vertex -0.167000 -0.007500 0.035000
      vertex -0.167000 0.007500 0.035000
    endloop
  endfacet
  facet normal -1.000000 0.000000 0.000000
    outer loop
      vertex -0.167000 -0.007500 0.000000
      vertex -0.167000 0.007500 0.035000
      vertex -0.167000 0.007500 0.000000
    endloop
  endfacet
  facet normal 1.000000 0.000000 0.000000
    outer loop
      vertex 0.167000 -0.007500 0.000000
      vertex 0.167000 0.007500 0.000000
      vertex 0.167000 0.007500 0.035000
    endloop
  endfacet
  facet normal 1.000000 0.000000 0.000000
    outer loop
      vertex 0.167000 -0.007500 0.000000
      vertex 0.167000 0.007500 0.035000
      vertex 0.167000 -0.007500 0.035000
    endloop
  endfacet
endsolid tecan_resolvex_a200_front_lintel
