solid tecan_resolvex_a200_light_curtain_post
  facet normal 0.000000 0.000000 -1.000000
    outer loop
      vertex -0.005000 -0.005000 0.000000
      vertex 0.005000 0.005000 0.000000
      vertex 0.005000 -0.005000 0.000000
    endloop
  endfacet
  facet normal 0.000000 0.000000 -1.000000
    outer loop
      vertex -0.005000 -0.005000 0.000000
      vertex -0.005000 0.005000 0.000000
      vertex 0.005000 0.005000 0.000000
    endloop
  endfacet
  facet normal 0.000000 0.000000 1.000000
    outer loop
      vertex -0.005000 -0.005000 0.210000
      vertex 0.005000 -0.005000 0.210000
      vertex 0.005000 0.005000 0.210000
    endloop
  endfacet
  facet normal 0.000000 0.000000 1.000000
    outer loop
      vertex -0.005000 -0.005000 0.210000
      vertex 0.005000 0.005000 0.210000
      vertex -0.005000 0.005000 0.210000
    endloop
  endfacet
  facet normal 0.000000 -1.000000 0.000000
    outer loop
      vertex -0.005000 -0.005000 0.000000
      vertex 0.005000 -0.005000 0.000000
      vertex 0.005000 -0.005000 0.210000
    endloop
  endfacet
  facet normal 0.000000 -1.000000 0.000000
    outer loop
      vertex -0.005000 -0.005000 0.000000
      vertex 0.005000 -0.005000 0.210000
      vertex -0.005000 -0.005000 0.210000
    endloop
  endfacet
  facet normal 0.000000 1.000000 0.000000
    outer loop
      vertex -0.005000 0.005000 0.000000
      vertex -0.005000 0.005000 0.210000
      vertex 0.005000 0.005000 0.210000
    endloop
  endfacet
  facet normal 0.000000 1.000000 0.000000
    outer loop
      vertex -0.005000 0.005000 0.000000
      vertex 0.005000 0.005000 0.210000
      vertex 0.005000 0.005000 0.000000
    endloop
  endfacet
  facet normal -1.000000 0.000000 0.000000
    outer loop
      vertex -0.005000 -0.005000 0.000000
      vertex -0.005000 -0.005000 0.210000
      vertex -0.005000 0.005000 0.210000
    endloop
  endfacet
  facet normal -1.000000 0.000000 0.000000
    outer loop
      vertex -0.005000 -0.005000 0.000000
      vertex -0.005000 0.005000 0.210000
      vertex -0.005000 0.005000 0.000000
    endloop
  endfacet
  facet normal 1.000000 0.000000 0.000000
    outer loop
      vertex 0.005000 -0.005000 0.000000
      vertex 0.005000 0.005000 0.000000
      vertex 0.005000 0.005000 0.210000
    endloop
  endfacet
  facet normal 1.000000 0.000000 0.000000
    outer loop
      vertex 0.005000 -0.005000 0.000000
      vertex 0.005000 0.005000 0.210000
      vertex 0.005000 -0.005000 0.210000
    endloop
  endfacet
endsolid tecan_resolvex_a200_light_curtain_post
