solid tecan_resolvex_a200_manifold_block
  facet normal 0.000000 0.000000 -1.000000
    outer loop
      vertex -0.072500 -0.035000 0.000000
      vertex 0.072500 0.035000 0.000000
      vertex 0.072500 -0.035000 0.000000
    endloop
  endfacet
  facet normal 0.000000 0.000000 -1.000000
    outer loop
      vertex -0.072500 -0.035000 0.000000
      vertex -0.072500 0.035000 0.000000
      vertex 0.072500 0.035000 0.000000
    endloop
  endfacet
  facet normal 0.000000 0.000000 1.000000
    outer loop
      vertex -0.072500 -0.035000 0.035000
      vertex 0.072500 -0.035000 0.035000
      vertex 0.072500 0.035000 0.035000
    endloop
  endfacet
  facet normal 0.000000 0.000000 1.000000
    outer loop
      vertex -0.072500 -0.035000 0.035000
      vertex 0.072500 0.035000 0.035000
      vertex -0.072500 0.035000 0.035000
    endloop
  endfacet
  facet normal 0.000000 -1.000000 0.000000
    outer loop
      vertex -0.072500 -0.035000 0.000000
      vertex 0.072500 -0.035000 0.000000
      vertex 0.072500 -0.035000 0.035000
    endloop
  endfacet
  facet normal 0.000000 -1.000000 0.000000
    outer loop
      vertex -0.072500 -0.035000 0.000000
      vertex 0.072500 -0.035000 0.035000
      vertex -0.072500 -0.035000 0.035000
    endloop
  endfacet
  facet normal 0.000000 1.000000 0.000000
    outer loop
      vertex -0.072500 0.035000 0.000000
      vertex -0.072500 0.035000 0.035000
      vertex 0.072500 0.035000 0.035000
    endloop
  endfacet
  facet normal 0.000000 1.000000 0.000000
    outer loop
      vertex -0.072500 0.035000 0.000000
      vertex 0.072500 0.035000 0.035000
      vertex 0.072500 0.035000 0.000000
    endloop
  endfacet
  facet normal -1.000000 0.000000 0.000000
    outer loop
      vertex -0.072500 -0.035000 0.000000
      vertex -0.072500 -0.035000 0.035000
      vertex -0.072500 0.035000 0.035000
    endloop
  endfacet
  facet normal -1.000000 0.000000 0.000000
    outer loop
      vertex -0.072500 -0.035000 0.000000
      vertex -0.072500 0.035000 0.035000
      vertex -0.072500 0.035000 0.000000
    endloop
  endfacet
  facet normal 1.000000 0.000000 0.000000
    outer loop
      vertex 0.072500 -0.035000 0.000000
      vertex 0.072500 0.035000 0.000000
      vertex 0.072500 0.035000 0.035000
    endloop
  endfacet
  facet normal 1.000000 0.000000 0.000000
    outer loop
      vertex 0.072500 -0.035000 0.000000
      vertex 0.072500 0.035000 0.035000
      vertex 0.072500 -0.035000 0.035000
    endloop
  endfacet
endsolid tecan_resolvex_a200_manifold_block
