solid tecan_resolvex_a200_rack_stage
  facet normal 0.000000 0.000000 -1.000000
    outer loop
      vertex -0.094000 -0.068000 0.000000
      vertex 0.094000 0.068000 0.000000
      vertex 0.094000 -0.068000 0.000000
    endloop
  endfacet
  facet normal 0.000000 0.000000 -1.000000
    outer loop
      vertex -0.094000 -0.068000 0.000000
      vertex -0.094000 0.068000 0.000000
      vertex 0.094000 0.068000 0.000000
    endloop
  endfacet
  facet normal 0.000000 0.000000 1.000000
    outer loop
      vertex -0.094000 -0.068000 0.072000
      vertex 0.094000 -0.068000 0.072000
      vertex 0.094000 0.068000 0.072000
    endloop
  endfacet
  facet normal 0.000000 0.000000 1.000000
    outer loop
      vertex -0.094000 -0.068000 0.072000
      vertex 0.094000 0.068000 0.072000
      vertex -0.094000 0.068000 0.072000
    endloop
  endfacet
  facet normal 0.000000 -1.000000 0.000000
    outer loop
      vertex -0.094000 -0.068000 0.000000
      vertex 0.094000 -0.068000 0.000000
      vertex 0.094000 -0.068000 0.072000
    endloop
  endfacet
  facet normal 0.000000 -1.000000 0.000000
    outer loop
      vertex -0.094000 -0.068000 0.000000
      vertex 0.094000 -0.068000 0.072000
      vertex -0.094000 -0.068000 0.072000
    endloop
  endfacet
  facet normal 0.000000 1.000000 0.000000
    outer loop
      vertex -0.094000 0.068000 0.000000
      vertex -0.094000 0.068000 0.072000
      vertex 0.094000 0.068000 0.072000
    endloop
  endfacet
  facet normal 0.000000 1.000000 0.000000
    outer loop
      vertex -0.094000 0.068000 0.000000
      vertex 0.094000 0.068000 0.072000
      vertex 0.094000 0.068000 0.000000
    endloop
  endfacet
  facet normal -1.000000 0.000000 0.000000
    outer loop
      vertex -0.094000 -0.068000 0.000000
      vertex -0.094000 -0.068000 0.072000
      vertex -0.094000 0.068000 0.072000
    endloop
  endfacet
  facet normal -1.000000 0.000000 0.000000
    outer loop
      vertex -0.094000 -0.068000 0.000000
      vertex -0.094000 0.068000 0.072000
      vertex -0.094000 0.068000 0.000000
    endloop
  endfacet
  facet normal 1.000000 0.000000 0.000000
    outer loop
      vertex 0.094000 -0.068000 0.000000
      vertex 0.094000 0.068000 0.000000
      vertex 0.094000 0.068000 0.072000
    endloop
  endfacet
  facet normal 1.000000 0.000000 0.000000
    outer loop
      vertex 0.094000 -0.068000 0.000000
      vertex 0.094000 0.068000 0.072000
      vertex 0.094000 -0.068000 0.072000
    endloop
  endfacet
endsolid tecan_resolvex_a200_rack_stage
