solid tecan_resolvex_a200_roof_canopy
  facet normal 0.000000 0.000000 -1.000000
    outer loop
      vertex -0.189000 -0.271000 0.000000
      vertex 0.189000 0.271000 0.000000
      vertex 0.189000 -0.271000 0.000000
    endloop
  endfacet
  facet normal 0.000000 0.000000 -1.000000
    outer loop
      vertex -0.189000 -0.271000 0.000000
      vertex -0.189000 0.271000 0.000000
      vertex 0.189000 0.271000 0.000000
    endloop
  endfacet
  facet normal 0.000000 0.000000 1.000000
    outer loop
      vertex -0.189000 -0.271000 0.030000
      vertex 0.189000 -0.271000 0.030000
      vertex 0.189000 0.271000 0.030000
    endloop
  endfacet
  facet normal 0.000000 0.000000 1.000000
    outer loop
      vertex -0.189000 -0.271000 0.030000
      vertex 0.189000 0.271000 0.030000
      vertex -0.189000 0.271000 0.030000
    endloop
  endfacet
  facet normal 0.000000 -1.000000 0.000000
    outer loop
      vertex -0.189000 -0.271000 0.000000
      vertex 0.189000 -0.271000 0.000000
      vertex 0.189000 -0.271000 0.030000
    endloop
  endfacet
  facet normal 0.000000 -1.000000 0.000000
    outer loop
      vertex -0.189000 -0.271000 0.000000
      vertex 0.189000 -0.271000 0.030000
      vertex -0.189000 -0.271000 0.030000
    endloop
  endfacet
  facet normal 0.000000 1.000000 0.000000
    outer loop
      vertex -0.189000 0.271000 0.000000
      vertex -0.189000 0.271000 0.030000
      vertex 0.189000 0.271000 0.030000
    endloop
  endfacet
  facet normal 0.000000 1.000000 0.000000
    outer loop
      vertex -0.189000 0.271000 0.000000
      vertex 0.189000 0.271000 0.030000
      vertex 0.189000 0.271000 0.000000
    endloop
  endfacet
  facet normal -1.000000 0.000000 0.000000
    outer loop
      vertex -0.189000 -0.271000 0.000000
      vertex -0.189000 -0.271000 0.030000
      vertex -0.189000 0.271000 0.030000
    endloop
  endfacet
  facet normal -1.000000 0.000000 0.000000
    outer loop
      vertex -0.189000 -0.271000 0.000000
      vertex -0.189000 0.271000 0.030000
      vertex -0.189000 0.271000 0.000000
    endloop
  endfacet
  facet normal 1.000000 0.000000 0.000000
    outer loop
      vertex 0.189000 -0.271000 0.000000
      vertex 0.189000 0.271000 0.000000
      vertex 0.189000 0.271000 0.030000
    endloop
  endfacet
  facet normal 1.000000 0.000000 0.000000
    outer loop
      vertex 0.189000 -0.271000 0.000000
      vertex 0.189000 0.271000 0.030000
      vertex 0.189000 -0.271000 0.030000
    endloop
  endfacet
endsolid tecan_resolvex_a200_roof_canopy
