solid tecan_resolvex_a200_side_frame
  facet normal 0.000000 0.000000 -1.000000
    outer loop
      vertex -0.011000 -0.250000 0.000000
      vertex 0.011000 0.250000 0.000000
      vertex 0.011000 -0.250000 0.000000
    endloop
  endfacet
  facet normal 0.000000 0.000000 -1.000000
    outer loop
      vertex -0.011000 -0.250000 0.000000
      vertex -0.011000 0.250000 0.000000
      vertex 0.011000 0.250000 0.000000
    endloop
  endfacet
  facet normal 0.000000 0.000000 1.000000
    outer loop
      vertex -0.011000 -0.250000 0.250000
      vertex 0.011000 -0.250000 0.250000
      vertex 0.011000 0.250000 0.250000
    endloop
  endfacet
  facet normal 0.000000 0.000000 1.000000
    outer loop
      vertex -0.011000 -0.250000 0.250000
      vertex 0.011000 0.250000 0.250000
      vertex -0.011000 0.250000 0.250000
    endloop
  endfacet
  facet normal 0.000000 -1.000000 0.000000
    outer loop
      vertex -0.011000 -0.250000 0.000000
      vertex 0.011000 -0.250000 0.000000
      vertex 0.011000 -0.250000 0.250000
    endloop
  endfacet
  facet normal 0.000000 -1.000000 0.000000
    outer loop
      vertex -0.011000 -0.250000 0.000000
      vertex 0.011000 -0.250000 0.250000
      vertex -0.011000 -0.250000 0.250000
    endloop
  endfacet
  facet normal 0.000000 1.000000 0.000000
    outer loop
      vertex -0.011000 0.250000 0.000000
      vertex -0.011000 0.250000 0.250000
      vertex 0.011000 0.250000 0.250000
    endloop
  endfacet
  facet normal 0.000000 1.000000 0.000000
    outer loop
      vertex -0.011000 0.250000 0.000000
      vertex 0.011000 0.250000 0.250000
      vertex 0.011000 0.250000 0.000000
    endloop
  endfacet
  facet normal -1.000000 0.000000 0.000000
    outer loop
      vertex -0.011000 -0.250000 0.000000
      vertex -0.011000 -0.250000 0.250000
      vertex -0.011000 0.250000 0.250000
    endloop
  endfacet
  facet normal -1.000000 0.000000 0.000000
    outer loop
      vertex -0.011000 -0.250000 0.000000
      vertex -0.011000 0.250000 0.250000
      vertex -0.011000 0.250000 0.000000
    endloop
  endfacet
  facet normal 1.000000 0.000000 0.000000
    outer loop
      vertex 0.011000 -0.250000 0.000000
      vertex 0.011000 0.250000 0.000000
      vertex 0.011000 0.250000 0.250000
    endloop
  endfacet
  facet normal 1.000000 0.000000 0.000000
    outer loop
      vertex 0.011000 -0.250000 0.000000
      vertex 0.011000 0.250000 0.250000
      vertex 0.011000 -0.250000 0.250000
    endloop
  endfacet
endsolid tecan_resolvex_a200_side_frame
