solid tecan_resolvex_a200_touchscreen_glass
  facet normal 0.000000 0.000000 -1.000000
    outer loop
      vertex -0.062500 -0.002000 0.000000
      vertex 0.062500 0.002000 0.000000
      vertex 0.062500 -0.002000 0.000000
    endloop
  endfacet
  facet normal 0.000000 0.000000 -1.000000
    outer loop
      vertex -0.062500 -0.002000 0.000000
      vertex -0.062500 0.002000 0.000000
      vertex 0.062500 0.002000 0.000000
    endloop
  endfacet
  facet normal 0.000000 0.000000 1.000000
    outer loop
      vertex -0.062500 -0.002000 0.220000
      vertex 0.062500 -0.002000 0.220000
      vertex 0.062500 0.002000 0.220000
    endloop
  endfacet
  facet normal 0.000000 0.000000 1.000000
    outer loop
      vertex -0.062500 -0.002000 0.220000
      vertex 0.062500 0.002000 0.220000
      vertex -0.062500 0.002000 0.220000
    endloop
  endfacet
  facet normal 0.000000 -1.000000 0.000000
    outer loop
      vertex -0.062500 -0.002000 0.000000
      vertex 0.062500 -0.002000 0.000000
      vertex 0.062500 -0.002000 0.220000
    endloop
  endfacet
  facet normal 0.000000 -1.000000 0.000000
    outer loop
      vertex -0.062500 -0.002000 0.000000
      vertex 0.062500 -0.002000 0.220000
      vertex -0.062500 -0.002000 0.220000
    endloop
  endfacet
  facet normal 0.000000 1.000000 0.000000
    outer loop
      vertex -0.062500 0.002000 0.000000
      vertex -0.062500 0.002000 0.220000
      vertex 0.062500 0.002000 0.220000
    endloop
  endfacet
  facet normal 0.000000 1.000000 0.000000
    outer loop
      vertex -0.062500 0.002000 0.000000
      vertex 0.062500 0.002000 0.220000
      vertex 0.062500 0.002000 0.000000
    endloop
  endfacet
  facet normal -1.000000 0.000000 0.000000
    outer loop
      vertex -0.062500 -0.002000 0.000000
      vertex -0.062500 -0.002000 0.220000
      vertex -0.062500 0.002000 0.220000
    endloop
  endfacet
  facet normal -1.000000 0.000000 0.000000
    outer loop
      vertex -0.062500 -0.002000 0.000000
      vertex -0.062500 0.002000 0.220000
      vertex -0.062500 0.002000 0.000000
    endloop
  endfacet
  facet normal 1.000000 0.000000 0.000000
    outer loop
      vertex 0.062500 -0.002000 0.000000
      vertex 0.062500 0.002000 0.000000
      vertex 0.062500 0.002000 0.220000
    endloop
  endfacet
  facet normal 1.000000 0.000000 0.000000
    outer loop
      vertex 0.062500 -0.002000 0.000000
      vertex 0.062500 0.002000 0.220000
      vertex 0.062500 -0.002000 0.220000
    endloop
  endfacet
endsolid tecan_resolvex_a200_touchscreen_glass
