solid id5_screen_panel
  facet normal 0.000000 0.000000 -1.000000
    outer loop
      vertex -0.086000 -0.004000 0.000000
      vertex 0.086000 0.004000 0.000000
      vertex 0.086000 -0.004000 0.000000
    endloop
  endfacet
  facet normal 0.000000 0.000000 -1.000000
    outer loop
      vertex -0.086000 -0.004000 0.000000
      vertex -0.086000 0.004000 0.000000
      vertex 0.086000 0.004000 0.000000
    endloop
  endfacet
  facet normal 0.000000 0.000000 1.000000
    outer loop
      vertex -0.086000 -0.004000 0.118000
      vertex 0.086000 -0.004000 0.118000
      vertex 0.086000 0.004000 0.118000
    endloop
  endfacet
  facet normal 0.000000 0.000000 1.000000
    outer loop
      vertex -0.086000 -0.004000 0.118000
      vertex 0.086000 0.004000 0.118000
      vertex -0.086000 0.004000 0.118000
    endloop
  endfacet
  facet normal 0.000000 -1.000000 0.000000
    outer loop
      vertex -0.086000 -0.004000 0.000000
      vertex 0.086000 -0.004000 0.000000
      vertex 0.086000 -0.004000 0.118000
    endloop
  endfacet
  facet normal 0.000000 -1.000000 0.000000
    outer loop
      vertex -0.086000 -0.004000 0.000000
      vertex 0.086000 -0.004000 0.118000
      vertex -0.086000 -0.004000 0.118000
    endloop
  endfacet
  facet normal 0.000000 1.000000 0.000000
    outer loop
      vertex -0.086000 0.004000 0.000000
      vertex -0.086000 0.004000 0.118000
      vertex 0.086000 0.004000 0.118000
    endloop
  endfacet
  facet normal 0.000000 1.000000 0.000000
    outer loop
      vertex -0.086000 0.004000 0.000000
      vertex 0.086000 0.004000 0.118000
      vertex 0.086000 0.004000 0.000000
    endloop
  endfacet
  facet normal -1.000000 0.000000 0.000000
    outer loop
      vertex -0.086000 -0.004000 0.000000
      vertex -0.086000 -0.004000 0.118000
      vertex -0.086000 0.004000 0.118000
    endloop
  endfacet
  facet normal -1.000000 0.000000 0.000000
    outer loop
      vertex -0.086000 -0.004000 0.000000
      vertex -0.086000 0.004000 0.118000
      vertex -0.086000 0.004000 0.000000
    endloop
  endfacet
  facet normal 1.000000 0.000000 0.000000
    outer loop
      vertex 0.086000 -0.004000 0.000000
      vertex 0.086000 0.004000 0.000000
      vertex 0.086000 0.004000 0.118000
    endloop
  endfacet
  facet normal 1.000000 0.000000 0.000000
    outer loop
      vertex 0.086000 -0.004000 0.000000
      vertex 0.086000 0.004000 0.118000
      vertex 0.086000 -0.004000 0.118000
    endloop
  endfacet
endsolid id5_screen_panel
