solid id5_right_housing
  facet normal 0.000000 0.000000 -1.000000
    outer loop
      vertex -0.138000 -0.216000 0.000000
      vertex 0.138000 0.216000 0.000000
      vertex 0.138000 -0.216000 0.000000
    endloop
  endfacet
  facet normal 0.000000 0.000000 -1.000000
    outer loop
      vertex -0.138000 -0.216000 0.000000
      vertex -0.138000 0.216000 0.000000
      vertex 0.138000 0.216000 0.000000
    endloop
  endfacet
  facet normal 0.000000 0.000000 1.000000
    outer loop
      vertex -0.138000 -0.216000 0.232000
      vertex 0.138000 -0.216000 0.232000
      vertex 0.138000 0.216000 0.232000
    endloop
  endfacet
  facet normal 0.000000 0.000000 1.000000
    outer loop
      vertex -0.138000 -0.216000 0.232000
      vertex 0.138000 0.216000 0.232000
      vertex -0.138000 0.216000 0.232000
    endloop
  endfacet
  facet normal 0.000000 -1.000000 0.000000
    outer loop
      vertex -0.138000 -0.216000 0.000000
      vertex 0.138000 -0.216000 0.000000
      vertex 0.138000 -0.216000 0.232000
    endloop
  endfacet
  facet normal 0.000000 -1.000000 0.000000
    outer loop
      vertex -0.138000 -0.216000 0.000000
      vertex 0.138000 -0.216000 0.232000
      vertex -0.138000 -0.216000 0.232000
    endloop
  endfacet
  facet normal 0.000000 1.000000 0.000000
    outer loop
      vertex -0.138000 0.216000 0.000000
      vertex -0.138000 0.216000 0.232000
      vertex 0.138000 0.216000 0.232000
    endloop
  endfacet
  facet normal 0.000000 1.000000 0.000000
    outer loop
      vertex -0.138000 0.216000 0.000000
      vertex 0.138000 0.216000 0.232000
      vertex 0.138000 0.216000 0.000000
    endloop
  endfacet
  facet normal -1.000000 0.000000 0.000000
    outer loop
      vertex -0.138000 -0.216000 0.000000
      vertex -0.138000 -0.216000 0.232000
      vertex -0.138000 0.216000 0.232000
    endloop
  endfacet
  facet normal -1.000000 0.000000 0.000000
    outer loop
      vertex -0.138000 -0.216000 0.000000
      vertex -0.138000 0.216000 0.232000
      vertex -0.138000 0.216000 0.000000
    endloop
  endfacet
  facet normal 1.000000 0.000000 0.000000
    outer loop
      vertex 0.138000 -0.216000 0.000000
      vertex 0.138000 0.216000 0.000000
      vertex 0.138000 0.216000 0.232000
    endloop
  endfacet
  facet normal 1.000000 0.000000 0.000000
    outer loop
      vertex 0.138000 -0.216000 0.000000
      vertex 0.138000 0.216000 0.232000
      vertex 0.138000 -0.216000 0.232000
    endloop
  endfacet
endsolid id5_right_housing
