solid id5_left_console
  facet normal 0.000000 0.000000 -1.000000
    outer loop
      vertex -0.114000 -0.093000 0.000000
      vertex 0.114000 0.093000 0.000000
      vertex 0.114000 -0.093000 0.000000
    endloop
  endfacet
  facet normal 0.000000 0.000000 -1.000000
    outer loop
      vertex -0.114000 -0.093000 0.000000
      vertex -0.114000 0.093000 0.000000
      vertex 0.114000 0.093000 0.000000
    endloop
  endfacet
  facet normal 0.000000 0.000000 1.000000
    outer loop
      vertex -0.114000 -0.093000 0.198000
      vertex 0.114000 -0.093000 0.198000
      vertex 0.114000 0.093000 0.198000
    endloop
  endfacet
  facet normal 0.000000 0.000000 1.000000
    outer loop
      vertex -0.114000 -0.093000 0.198000
      vertex 0.114000 0.093000 0.198000
      vertex -0.114000 0.093000 0.198000
    endloop
  endfacet
  facet normal 0.000000 -1.000000 0.000000
    outer loop
      vertex -0.114000 -0.093000 0.000000
      vertex 0.114000 -0.093000 0.000000
      vertex 0.114000 -0.093000 0.198000
    endloop
  endfacet
  facet normal 0.000000 -1.000000 0.000000
    outer loop
      vertex -0.114000 -0.093000 0.000000
      vertex 0.114000 -0.093000 0.198000
      vertex -0.114000 -0.093000 0.198000
    endloop
  endfacet
  facet normal 0.000000 1.000000 0.000000
    outer loop
      vertex -0.114000 0.093000 0.000000
      vertex -0.114000 0.093000 0.198000
      vertex 0.114000 0.093000 0.198000
    endloop
  endfacet
  facet normal 0.000000 1.000000 0.000000
    outer loop
      vertex -0.114000 0.093000 0.000000
      vertex 0.114000 0.093000 0.198000
      vertex 0.114000 0.093000 0.000000
    endloop
  endfacet
  facet normal -1.000000 0.000000 0.000000
    outer loop
      vertex -0.114000 -0.093000 0.000000
      vertex -0.114000 -0.093000 0.198000
      vertex -0.114000 0.093000 0.198000
    endloop
  endfacet
  facet normal -1.000000 0.000000 0.000000
    outer loop
      vertex -0.114000 -0.093000 0.000000
      vertex -0.114000 0.093000 0.198000
      vertex -0.114000 0.093000 0.000000
    endloop
  endfacet
  facet normal 1.000000 0.000000 0.000000
    outer loop
      vertex 0.114000 -0.093000 0.000000
      vertex 0.114000 0.093000 0.000000
      vertex 0.114000 0.093000 0.198000
    endloop
  endfacet
  facet normal 1.000000 0.000000 0.000000
    outer loop
      vertex 0.114000 -0.093000 0.000000
      vertex 0.114000 0.093000 0.198000
      vertex 0.114000 -0.093000 0.198000
    endloop
  endfacet
endsolid id5_left_console
