solid id5_base_plinth
  facet normal 0.000000 0.000000 -1.000000
    outer loop
      vertex -0.266000 -0.299000 0.000000
      vertex 0.266000 0.299000 0.000000
      vertex 0.266000 -0.299000 0.000000
    endloop
  endfacet
  facet normal 0.000000 0.000000 -1.000000
    outer loop
      vertex -0.266000 -0.299000 0.000000
      vertex -0.266000 0.299000 0.000000
      vertex 0.266000 0.299000 0.000000
    endloop
  endfacet
  facet normal 0.000000 0.000000 1.000000
    outer loop
      vertex -0.266000 -0.299000 0.145000
      vertex 0.266000 -0.299000 0.145000
      vertex 0.266000 0.299000 0.145000
    endloop
  endfacet
  facet normal 0.000000 0.000000 1.000000
    outer loop
      vertex -0.266000 -0.299000 0.145000
      vertex 0.266000 0.299000 0.145000
      vertex -0.266000 0.299000 0.145000
    endloop
  endfacet
  facet normal 0.000000 -1.000000 0.000000
    outer loop
      vertex -0.266000 -0.299000 0.000000
      vertex 0.266000 -0.299000 0.000000
      vertex 0.266000 -0.299000 0.145000
    endloop
  endfacet
  facet normal 0.000000 -1.000000 0.000000
    outer loop
      vertex -0.266000 -0.299000 0.000000
      vertex 0.266000 -0.299000 0.145000
      vertex -0.266000 -0.299000 0.145000
    endloop
  endfacet
  facet normal 0.000000 1.000000 0.000000
    outer loop
      vertex -0.266000 0.299000 0.000000
      vertex -0.266000 0.299000 0.145000
      vertex 0.266000 0.299000 0.145000
    endloop
  endfacet
  facet normal 0.000000 1.000000 0.000000
    outer loop
      vertex -0.266000 0.299000 0.000000
      vertex 0.266000 0.299000 0.145000
      vertex 0.266000 0.299000 0.000000
    endloop
  endfacet
  facet normal -1.000000 0.000000 0.000000
    outer loop
      vertex -0.266000 -0.299000 0.000000
      vertex -0.266000 -0.299000 0.145000
      vertex -0.266000 0.299000 0.145000
    endloop
  endfacet
  facet normal -1.000000 0.000000 0.000000
    outer loop
      vertex -0.266000 -0.299000 0.000000
      vertex -0.266000 0.299000 0.145000
      vertex -0.266000 0.299000 0.000000
    endloop
  endfacet
  facet normal 1.000000 0.000000 0.000000
    outer loop
      vertex 0.266000 -0.299000 0.000000
      vertex 0.266000 0.299000 0.000000
      vertex 0.266000 0.299000 0.145000
    endloop
  endfacet
  facet normal 1.000000 0.000000 0.000000
    outer loop
      vertex 0.266000 -0.299000 0.000000
      vertex 0.266000 0.299000 0.145000
      vertex 0.266000 -0.299000 0.145000
    endloop
  endfacet
endsolid id5_base_plinth
