solid id5_drawer_face
  facet normal 0.000000 0.000000 -1.000000
    outer loop
      vertex -0.095000 -0.005000 0.000000
      vertex 0.095000 0.005000 0.000000
      vertex 0.095000 -0.005000 0.000000
    endloop
  endfacet
  facet normal 0.000000 0.000000 -1.000000
    outer loop
      vertex -0.095000 -0.005000 0.000000
      vertex -0.095000 0.005000 0.000000
      vertex 0.095000 0.005000 0.000000
    endloop
  endfacet
  facet normal 0.000000 0.000000 1.000000
    outer loop
      vertex -0.095000 -0.005000 0.072000
      vertex 0.095000 -0.005000 0.072000
      vertex 0.095000 0.005000 0.072000
    endloop
  endfacet
  facet normal 0.000000 0.000000 1.000000
    outer loop
      vertex -0.095000 -0.005000 0.072000
      vertex 0.095000 0.005000 0.072000
      vertex -0.095000 0.005000 0.072000
    endloop
  endfacet
  facet normal 0.000000 -1.000000 0.000000
    outer loop
      vertex -0.095000 -0.005000 0.000000
      vertex 0.095000 -0.005000 0.000000
      vertex 0.095000 -0.005000 0.072000
    endloop
  endfacet
  facet normal 0.000000 -1.000000 0.000000
    outer loop
      vertex -0.095000 -0.005000 0.000000
      vertex 0.095000 -0.005000 0.072000
      vertex -0.095000 -0.005000 0.072000
    endloop
  endfacet
  facet normal 0.000000 1.000000 0.000000
    outer loop
      vertex -0.095000 0.005000 0.000000
      vertex -0.095000 0.005000 0.072000
      vertex 0.095000 0.005000 0.072000
    endloop
  endfacet
  facet normal 0.000000 1.000000 0.000000
    outer loop
      vertex -0.095000 0.005000 0.000000
      vertex 0.095000 0.005000 0.072000
      vertex 0.095000 0.005000 0.000000
    endloop
  endfacet
  facet normal -1.000000 0.000000 0.000000
    outer loop
      vertex -0.095000 -0.005000 0.000000
      vertex -0.095000 -0.005000 0.072000
      vertex -0.095000 0.005000 0.072000
    endloop
  endfacet
  facet normal -1.000000 0.000000 0.000000
    outer loop
      vertex -0.095000 -0.005000 0.000000
      vertex -0.095000 0.005000 0.072000
      vertex -0.095000 0.005000 0.000000
    endloop
  endfacet
  facet normal 1.000000 0.000000 0.000000
    outer loop
      vertex 0.095000 -0.005000 0.000000
      vertex 0.095000 0.005000 0.000000
      vertex 0.095000 0.005000 0.072000
    endloop
  endfacet
  facet normal 1.000000 0.000000 0.000000
    outer loop
      vertex 0.095000 -0.005000 0.000000
      vertex 0.095000 0.005000 0.072000
      vertex 0.095000 -0.005000 0.072000
    endloop
  endfacet
endsolid id5_drawer_face
