solid bioxp3250_upper_access_door
  facet normal 0.000000 0.000000 -1.000000
    outer loop
      vertex -0.270000 -0.010000 0.000000
      vertex 0.270000 0.010000 0.000000
      vertex 0.270000 -0.010000 0.000000
    endloop
  endfacet
  facet normal 0.000000 0.000000 -1.000000
    outer loop
      vertex -0.270000 -0.010000 0.000000
      vertex -0.270000 0.010000 0.000000
      vertex 0.270000 0.010000 0.000000
    endloop
  endfacet
  facet normal 0.000000 0.000000 1.000000
    outer loop
      vertex -0.270000 -0.010000 0.175000
      vertex 0.270000 -0.010000 0.175000
      vertex 0.270000 0.010000 0.175000
    endloop
  endfacet
  facet normal 0.000000 0.000000 1.000000
    outer loop
      vertex -0.270000 -0.010000 0.175000
      vertex 0.270000 0.010000 0.175000
      vertex -0.270000 0.010000 0.175000
    endloop
  endfacet
  facet normal 0.000000 -1.000000 0.000000
    outer loop
      vertex -0.270000 -0.010000 0.000000
      vertex 0.270000 -0.010000 0.000000
      vertex 0.270000 -0.010000 0.175000
    endloop
  endfacet
  facet normal 0.000000 -1.000000 0.000000
    outer loop
      vertex -0.270000 -0.010000 0.000000
      vertex 0.270000 -0.010000 0.175000
      vertex -0.270000 -0.010000 0.175000
    endloop
  endfacet
  facet normal 0.000000 1.000000 0.000000
    outer loop
      vertex -0.270000 0.010000 0.000000
      vertex -0.270000 0.010000 0.175000
      vertex 0.270000 0.010000 0.175000
    endloop
  endfacet
  facet normal 0.000000 1.000000 0.000000
    outer loop
      vertex -0.270000 0.010000 0.000000
      vertex 0.270000 0.010000 0.175000
      vertex 0.270000 0.010000 0.000000
    endloop
  endfacet
  facet normal -1.000000 0.000000 0.000000
    outer loop
      vertex -0.270000 -0.010000 0.000000
      vertex -0.270000 -0.010000 0.175000
      vertex -0.270000 0.010000 0.175000
    endloop
  endfacet
  facet normal -1.000000 0.000000 0.000000
    outer loop
      vertex -0.270000 -0.010000 0.000000
      vertex -0.270000 0.010000 0.175000
      vertex -0.270000 0.010000 0.000000
    endloop
  endfacet
  facet normal 1.000000 0.000000 0.000000
    outer loop
      vertex 0.270000 -0.010000 0.000000
      vertex 0.270000 0.010000 0.000000
      vertex 0.270000 0.010000 0.175000
    endloop
  endfacet
  facet normal 1.000000 0.000000 0.000000
    outer loop
      vertex 0.270000 -0.010000 0.000000
      vertex 0.270000 0.010000 0.175000
      vertex 0.270000 -0.010000 0.175000
    endloop
  endfacet
endsolid bioxp3250_upper_access_door
