solid hood_shell
  facet normal 0.000000 0.000000 -1.000000
    outer loop
      vertex -0.305000 -0.130000 0.000000
      vertex 0.305000 0.130000 0.000000
      vertex 0.305000 -0.130000 0.000000
    endloop
  endfacet
  facet normal 0.000000 0.000000 -1.000000
    outer loop
      vertex -0.305000 -0.130000 0.000000
      vertex -0.305000 0.130000 0.000000
      vertex 0.305000 0.130000 0.000000
    endloop
  endfacet
  facet normal 0.000000 0.000000 1.000000
    outer loop
      vertex -0.305000 -0.130000 0.250000
      vertex 0.305000 -0.130000 0.250000
      vertex 0.305000 0.130000 0.250000
    endloop
  endfacet
  facet normal 0.000000 0.000000 1.000000
    outer loop
      vertex -0.305000 -0.130000 0.250000
      vertex 0.305000 0.130000 0.250000
      vertex -0.305000 0.130000 0.250000
    endloop
  endfacet
  facet normal 0.000000 -1.000000 0.000000
    outer loop
      vertex -0.305000 -0.130000 0.000000
      vertex 0.305000 -0.130000 0.000000
      vertex 0.305000 -0.130000 0.250000
    endloop
  endfacet
  facet normal 0.000000 -1.000000 0.000000
    outer loop
      vertex -0.305000 -0.130000 0.000000
      vertex 0.305000 -0.130000 0.250000
      vertex -0.305000 -0.130000 0.250000
    endloop
  endfacet
  facet normal 0.000000 1.000000 0.000000
    outer loop
      vertex -0.305000 0.130000 0.000000
      vertex -0.305000 0.130000 0.250000
      vertex 0.305000 0.130000 0.250000
    endloop
  endfacet
  facet normal 0.000000 1.000000 0.000000
    outer loop
      vertex -0.305000 0.130000 0.000000
      vertex 0.305000 0.130000 0.250000
      vertex 0.305000 0.130000 0.000000
    endloop
  endfacet
  facet normal -1.000000 0.000000 0.000000
    outer loop
      vertex -0.305000 -0.130000 0.000000
      vertex -0.305000 -0.130000 0.250000
      vertex -0.305000 0.130000 0.250000
    endloop
  endfacet
  facet normal -1.000000 0.000000 0.000000
    outer loop
      vertex -0.305000 -0.130000 0.000000
      vertex -0.305000 0.130000 0.250000
      vertex -0.305000 0.130000 0.000000
    endloop
  endfacet
  facet normal 1.000000 0.000000 0.000000
    outer loop
      vertex 0.305000 -0.130000 0.000000
      vertex 0.305000 0.130000 0.000000
      vertex 0.305000 0.130000 0.250000
    endloop
  endfacet
  facet normal 1.000000 0.000000 0.000000
    outer loop
      vertex 0.305000 -0.130000 0.000000
      vertex 0.305000 0.130000 0.250000
      vertex 0.305000 -0.130000 0.250000
    endloop
  endfacet
endsolid hood_shell
