solid waste_drawer
  facet normal 0.000000 0.000000 -1.000000
    outer loop
      vertex -0.135000 -0.015000 0.000000
      vertex 0.135000 0.015000 0.000000
      vertex 0.135000 -0.015000 0.000000
    endloop
  endfacet
  facet normal 0.000000 0.000000 -1.000000
    outer loop
      vertex -0.135000 -0.015000 0.000000
      vertex -0.135000 0.015000 0.000000
      vertex 0.135000 0.015000 0.000000
    endloop
  endfacet
  facet normal 0.000000 0.000000 1.000000
    outer loop
      vertex -0.135000 -0.015000 0.085000
      vertex 0.135000 -0.015000 0.085000
      vertex 0.135000 0.015000 0.085000
    endloop
  endfacet
  facet normal 0.000000 0.000000 1.000000
    outer loop
      vertex -0.135000 -0.015000 0.085000
      vertex 0.135000 0.015000 0.085000
      vertex -0.135000 0.015000 0.085000
    endloop
  endfacet
  facet normal 0.000000 -1.000000 0.000000
    outer loop
      vertex -0.135000 -0.015000 0.000000
      vertex 0.135000 -0.015000 0.000000
      vertex 0.135000 -0.015000 0.085000
    endloop
  endfacet
  facet normal 0.000000 -1.000000 0.000000
    outer loop
      vertex -0.135000 -0.015000 0.000000
      vertex 0.135000 -0.015000 0.085000
      vertex -0.135000 -0.015000 0.085000
    endloop
  endfacet
  facet normal 0.000000 1.000000 0.000000
    outer loop
      vertex -0.135000 0.015000 0.000000
      vertex -0.135000 0.015000 0.085000
      vertex 0.135000 0.015000 0.085000
    endloop
  endfacet
  facet normal 0.000000 1.000000 0.000000
    outer loop
      vertex -0.135000 0.015000 0.000000
      vertex 0.135000 0.015000 0.085000
      vertex 0.135000 0.015000 0.000000
    endloop
  endfacet
  facet normal -1.000000 0.000000 0.000000
    outer loop
      vertex -0.135000 -0.015000 0.000000
      vertex -0.135000 -0.015000 0.085000
      vertex -0.135000 0.015000 0.085000
    endloop
  endfacet
  facet normal -1.000000 0.000000 0.000000
    outer loop
      vertex -0.135000 -0.015000 0.000000
      vertex -0.135000 0.015000 0.085000
      vertex -0.135000 0.015000 0.000000
    endloop
  endfacet
  facet normal 1.000000 0.000000 0.000000
    outer loop
      vertex 0.135000 -0.015000 0.000000
      vertex 0.135000 0.015000 0.000000
      vertex 0.135000 0.015000 0.085000
    endloop
  endfacet
  facet normal 1.000000 0.000000 0.000000
    outer loop
      vertex 0.135000 -0.015000 0.000000
      vertex 0.135000 0.015000 0.085000
      vertex 0.135000 -0.015000 0.085000
    endloop
  endfacet
endsolid waste_drawer
