solid base_frame
  facet normal 0.000000 0.000000 -1.000000
    outer loop
      vertex -0.317500 -0.203000 0.000000
      vertex 0.317500 0.203000 0.000000
      vertex 0.317500 -0.203000 0.000000
    endloop
  endfacet
  facet normal 0.000000 0.000000 -1.000000
    outer loop
      vertex -0.317500 -0.203000 0.000000
      vertex -0.317500 0.203000 0.000000
      vertex 0.317500 0.203000 0.000000
    endloop
  endfacet
  facet normal 0.000000 0.000000 1.000000
    outer loop
      vertex -0.317500 -0.203000 0.080000
      vertex 0.317500 -0.203000 0.080000
      vertex 0.317500 0.203000 0.080000
    endloop
  endfacet
  facet normal 0.000000 0.000000 1.000000
    outer loop
      vertex -0.317500 -0.203000 0.080000
      vertex 0.317500 0.203000 0.080000
      vertex -0.317500 0.203000 0.080000
    endloop
  endfacet
  facet normal 0.000000 -1.000000 0.000000
    outer loop
      vertex -0.317500 -0.203000 0.000000
      vertex 0.317500 -0.203000 0.000000
      vertex 0.317500 -0.203000 0.080000
    endloop
  endfacet
  facet normal 0.000000 -1.000000 0.000000
    outer loop
      vertex -0.317500 -0.203000 0.000000
      vertex 0.317500 -0.203000 0.080000
      vertex -0.317500 -0.203000 0.080000
    endloop
  endfacet
  facet normal 0.000000 1.000000 0.000000
    outer loop
      vertex -0.317500 0.203000 0.000000
      vertex -0.317500 0.203000 0.080000
      vertex 0.317500 0.203000 0.080000
    endloop
  endfacet
  facet normal 0.000000 1.000000 0.000000
    outer loop
      vertex -0.317500 0.203000 0.000000
      vertex 0.317500 0.203000 0.080000
      vertex 0.317500 0.203000 0.000000
    endloop
  endfacet
  facet normal -1.000000 0.000000 0.000000
    outer loop
      vertex -0.317500 -0.203000 0.000000
      vertex -0.317500 -0.203000 0.080000
      vertex -0.317500 0.203000 0.080000
    endloop
  endfacet
  facet normal -1.000000 0.000000 0.000000
    outer loop
      vertex -0.317500 -0.203000 0.000000
      vertex -0.317500 0.203000 0.080000
      vertex -0.317500 0.203000 0.000000
    endloop
  endfacet
  facet normal 1.000000 0.000000 0.000000
    outer loop
      vertex 0.317500 -0.203000 0.000000
      vertex 0.317500 0.203000 0.000000
      vertex 0.317500 0.203000 0.080000
    endloop
  endfacet
  facet normal 1.000000 0.000000 0.000000
    outer loop
      vertex 0.317500 -0.203000 0.000000
      vertex 0.317500 0.203000 0.080000
      vertex 0.317500 -0.203000 0.080000
    endloop
  endfacet
endsolid base_frame
