solid touch_panel
  facet normal 0.000000 0.000000 -1.000000
    outer loop
      vertex -0.047500 -0.004000 0.000000
      vertex 0.047500 0.004000 0.000000
      vertex 0.047500 -0.004000 0.000000
    endloop
  endfacet
  facet normal 0.000000 0.000000 -1.000000
    outer loop
      vertex -0.047500 -0.004000 0.000000
      vertex -0.047500 0.004000 0.000000
      vertex 0.047500 0.004000 0.000000
    endloop
  endfacet
  facet normal 0.000000 0.000000 1.000000
    outer loop
      vertex -0.047500 -0.004000 0.060000
      vertex 0.047500 -0.004000 0.060000
      vertex 0.047500 0.004000 0.060000
    endloop
  endfacet
  facet normal 0.000000 0.000000 1.000000
    outer loop
      vertex -0.047500 -0.004000 0.060000
      vertex 0.047500 0.004000 0.060000
      vertex -0.047500 0.004000 0.060000
    endloop
  endfacet
  facet normal 0.000000 -1.000000 0.000000
    outer loop
      vertex -0.047500 -0.004000 0.000000
      vertex 0.047500 -0.004000 0.000000
      vertex 0.047500 -0.004000 0.060000
    endloop
  endfacet
  facet normal 0.000000 -1.000000 0.000000
    outer loop
      vertex -0.047500 -0.004000 0.000000
      vertex 0.047500 -0.004000 0.060000
      vertex -0.047500 -0.004000 0.060000
    endloop
  endfacet
  facet normal 0.000000 1.000000 0.000000
    outer loop
      vertex -0.047500 0.004000 0.000000
      vertex -0.047500 0.004000 0.060000
      vertex 0.047500 0.004000 0.060000
    endloop
  endfacet
  facet normal 0.000000 1.000000 0.000000
    outer loop
      vertex -0.047500 0.004000 0.000000
      vertex 0.047500 0.004000 0.060000
      vertex 0.047500 0.004000 0.000000
    endloop
  endfacet
  facet normal -1.000000 0.000000 0.000000
    outer loop
      vertex -0.047500 -0.004000 0.000000
      vertex -0.047500 -0.004000 0.060000
      vertex -0.047500 0.004000 0.060000
    endloop
  endfacet
  facet normal -1.000000 0.000000 0.000000
    outer loop
      vertex -0.047500 -0.004000 0.000000
      vertex -0.047500 0.004000 0.060000
      vertex -0.047500 0.004000 0.000000
    endloop
  endfacet
  facet normal 1.000000 0.000000 0.000000
    outer loop
      vertex 0.047500 -0.004000 0.000000
      vertex 0.047500 0.004000 0.000000
      vertex 0.047500 0.004000 0.060000
    endloop
  endfacet
  facet normal 1.000000 0.000000 0.000000
    outer loop
      vertex 0.047500 -0.004000 0.000000
      vertex 0.047500 0.004000 0.060000
      vertex 0.047500 -0.004000 0.060000
    endloop
  endfacet
endsolid touch_panel
