solid wash_module
  facet normal 0.000000 0.000000 -1.000000
    outer loop
      vertex -0.150000 -0.082500 0.000000
      vertex 0.150000 0.082500 0.000000
      vertex 0.150000 -0.082500 0.000000
    endloop
  endfacet
  facet normal 0.000000 0.000000 -1.000000
    outer loop
      vertex -0.150000 -0.082500 0.000000
      vertex -0.150000 0.082500 0.000000
      vertex 0.150000 0.082500 0.000000
    endloop
  endfacet
  facet normal 0.000000 0.000000 1.000000
    outer loop
      vertex -0.150000 -0.082500 0.205000
      vertex 0.150000 -0.082500 0.205000
      vertex 0.150000 0.082500 0.205000
    endloop
  endfacet
  facet normal 0.000000 0.000000 1.000000
    outer loop
      vertex -0.150000 -0.082500 0.205000
      vertex 0.150000 0.082500 0.205000
      vertex -0.150000 0.082500 0.205000
    endloop
  endfacet
  facet normal 0.000000 -1.000000 0.000000
    outer loop
      vertex -0.150000 -0.082500 0.000000
      vertex 0.150000 -0.082500 0.000000
      vertex 0.150000 -0.082500 0.205000
    endloop
  endfacet
  facet normal 0.000000 -1.000000 0.000000
    outer loop
      vertex -0.150000 -0.082500 0.000000
      vertex 0.150000 -0.082500 0.205000
      vertex -0.150000 -0.082500 0.205000
    endloop
  endfacet
  facet normal 0.000000 1.000000 0.000000
    outer loop
      vertex -0.150000 0.082500 0.000000
      vertex -0.150000 0.082500 0.205000
      vertex 0.150000 0.082500 0.205000
    endloop
  endfacet
  facet normal 0.000000 1.000000 0.000000
    outer loop
      vertex -0.150000 0.082500 0.000000
      vertex 0.150000 0.082500 0.205000
      vertex 0.150000 0.082500 0.000000
    endloop
  endfacet
  facet normal -1.000000 0.000000 0.000000
    outer loop
      vertex -0.150000 -0.082500 0.000000
      vertex -0.150000 -0.082500 0.205000
      vertex -0.150000 0.082500 0.205000
    endloop
  endfacet
  facet normal -1.000000 0.000000 0.000000
    outer loop
      vertex -0.150000 -0.082500 0.000000
      vertex -0.150000 0.082500 0.205000
      vertex -0.150000 0.082500 0.000000
    endloop
  endfacet
  facet normal 1.000000 0.000000 0.000000
    outer loop
      vertex 0.150000 -0.082500 0.000000
      vertex 0.150000 0.082500 0.000000
      vertex 0.150000 0.082500 0.205000
    endloop
  endfacet
  facet normal 1.000000 0.000000 0.000000
    outer loop
      vertex 0.150000 -0.082500 0.000000
      vertex 0.150000 0.082500 0.205000
      vertex 0.150000 -0.082500 0.205000
    endloop
  endfacet
endsolid wash_module
