solid eppendorf_centrifuge_5910_ri_display_bezel
  facet normal 0.000000 0.000000 -1.000000
    outer loop
      vertex -0.100000 -0.005000 0.000000
      vertex 0.100000 0.005000 0.000000
      vertex 0.100000 -0.005000 0.000000
    endloop
  endfacet
  facet normal 0.000000 0.000000 -1.000000
    outer loop
      vertex -0.100000 -0.005000 0.000000
      vertex -0.100000 0.005000 0.000000
      vertex 0.100000 0.005000 0.000000
    endloop
  endfacet
  facet normal 0.000000 0.000000 1.000000
    outer loop
      vertex -0.100000 -0.005000 0.100000
      vertex 0.100000 -0.005000 0.100000
      vertex 0.100000 0.005000 0.100000
    endloop
  endfacet
  facet normal 0.000000 0.000000 1.000000
    outer loop
      vertex -0.100000 -0.005000 0.100000
      vertex 0.100000 0.005000 0.100000
      vertex -0.100000 0.005000 0.100000
    endloop
  endfacet
  facet normal 0.000000 -1.000000 0.000000
    outer loop
      vertex -0.100000 -0.005000 0.000000
      vertex 0.100000 -0.005000 0.000000
      vertex 0.100000 -0.005000 0.100000
    endloop
  endfacet
  facet normal 0.000000 -1.000000 0.000000
    outer loop
      vertex -0.100000 -0.005000 0.000000
      vertex 0.100000 -0.005000 0.100000
      vertex -0.100000 -0.005000 0.100000
    endloop
  endfacet
  facet normal 0.000000 1.000000 0.000000
    outer loop
      vertex -0.100000 0.005000 0.000000
      vertex -0.100000 0.005000 0.100000
      vertex 0.100000 0.005000 0.100000
    endloop
  endfacet
  facet normal 0.000000 1.000000 0.000000
    outer loop
      vertex -0.100000 0.005000 0.000000
      vertex 0.100000 0.005000 0.100000
      vertex 0.100000 0.005000 0.000000
    endloop
  endfacet
  facet normal -1.000000 0.000000 0.000000
    outer loop
      vertex -0.100000 -0.005000 0.000000
      vertex -0.100000 -0.005000 0.100000
      vertex -0.100000 0.005000 0.100000
    endloop
  endfacet
  facet normal -1.000000 0.000000 0.000000
    outer loop
      vertex -0.100000 -0.005000 0.000000
      vertex -0.100000 0.005000 0.100000
      vertex -0.100000 0.005000 0.000000
    endloop
  endfacet
  facet normal 1.000000 0.000000 0.000000
    outer loop
      vertex 0.100000 -0.005000 0.000000
      vertex 0.100000 0.005000 0.000000
      vertex 0.100000 0.005000 0.100000
    endloop
  endfacet
  facet normal 1.000000 0.000000 0.000000
    outer loop
      vertex 0.100000 -0.005000 0.000000
      vertex 0.100000 0.005000 0.100000
      vertex 0.100000 -0.005000 0.100000
    endloop
  endfacet
endsolid eppendorf_centrifuge_5910_ri_display_bezel
