solid eppendorf_centrifuge_5910_ri_lid_shell
  facet normal 0.000000 0.000000 -1.000000
    outer loop
      vertex -0.350000 -0.310000 0.000000
      vertex 0.350000 0.310000 0.000000
      vertex 0.350000 -0.310000 0.000000
    endloop
  endfacet
  facet normal 0.000000 0.000000 -1.000000
    outer loop
      vertex -0.350000 -0.310000 0.000000
      vertex -0.350000 0.310000 0.000000
      vertex 0.350000 0.310000 0.000000
    endloop
  endfacet
  facet normal 0.000000 0.000000 1.000000
    outer loop
      vertex -0.350000 -0.310000 0.180000
      vertex 0.350000 -0.310000 0.180000
      vertex 0.350000 0.310000 0.180000
    endloop
  endfacet
  facet normal 0.000000 0.000000 1.000000
    outer loop
      vertex -0.350000 -0.310000 0.180000
      vertex 0.350000 0.310000 0.180000
      vertex -0.350000 0.310000 0.180000
    endloop
  endfacet
  facet normal 0.000000 -1.000000 0.000000
    outer loop
      vertex -0.350000 -0.310000 0.000000
      vertex 0.350000 -0.310000 0.000000
      vertex 0.350000 -0.310000 0.180000
    endloop
  endfacet
  facet normal 0.000000 -1.000000 0.000000
    outer loop
      vertex -0.350000 -0.310000 0.000000
      vertex 0.350000 -0.310000 0.180000
      vertex -0.350000 -0.310000 0.180000
    endloop
  endfacet
  facet normal 0.000000 1.000000 0.000000
    outer loop
      vertex -0.350000 0.310000 0.000000
      vertex -0.350000 0.310000 0.180000
      vertex 0.350000 0.310000 0.180000
    endloop
  endfacet
  facet normal 0.000000 1.000000 0.000000
    outer loop
      vertex -0.350000 0.310000 0.000000
      vertex 0.350000 0.310000 0.180000
      vertex 0.350000 0.310000 0.000000
    endloop
  endfacet
  facet normal -1.000000 0.000000 0.000000
    outer loop
      vertex -0.350000 -0.310000 0.000000
      vertex -0.350000 -0.310000 0.180000
      vertex -0.350000 0.310000 0.180000
    endloop
  endfacet
  facet normal -1.000000 0.000000 0.000000
    outer loop
      vertex -0.350000 -0.310000 0.000000
      vertex -0.350000 0.310000 0.180000
      vertex -0.350000 0.310000 0.000000
    endloop
  endfacet
  facet normal 1.000000 0.000000 0.000000
    outer loop
      vertex 0.350000 -0.310000 0.000000
      vertex 0.350000 0.310000 0.000000
      vertex 0.350000 0.310000 0.180000
    endloop
  endfacet
  facet normal 1.000000 0.000000 0.000000
    outer loop
      vertex 0.350000 -0.310000 0.000000
      vertex 0.350000 0.310000 0.180000
      vertex 0.350000 -0.310000 0.180000
    endloop
  endfacet
endsolid eppendorf_centrifuge_5910_ri_lid_shell
