solid eppendorf_centrifuge_5910_ri_plinth
  facet normal 0.000000 0.000000 -1.000000
    outer loop
      vertex -0.360000 -0.340000 0.000000
      vertex 0.360000 0.340000 0.000000
      vertex 0.360000 -0.340000 0.000000
    endloop
  endfacet
  facet normal 0.000000 0.000000 -1.000000
    outer loop
      vertex -0.360000 -0.340000 0.000000
      vertex -0.360000 0.340000 0.000000
      vertex 0.360000 0.340000 0.000000
    endloop
  endfacet
  facet normal 0.000000 0.000000 1.000000
    outer loop
      vertex -0.360000 -0.340000 0.020000
      vertex 0.360000 -0.340000 0.020000
      vertex 0.360000 0.340000 0.020000
    endloop
  endfacet
  facet normal 0.000000 0.000000 1.000000
    outer loop
      vertex -0.360000 -0.340000 0.020000
      vertex 0.360000 0.340000 0.020000
      vertex -0.360000 0.340000 0.020000
    endloop
  endfacet
  facet normal 0.000000 -1.000000 0.000000
    outer loop
      vertex -0.360000 -0.340000 0.000000
      vertex 0.360000 -0.340000 0.000000
      vertex 0.360000 -0.340000 0.020000
    endloop
  endfacet
  facet normal 0.000000 -1.000000 0.000000
    outer loop
      vertex -0.360000 -0.340000 0.000000
      vertex 0.360000 -0.340000 0.020000
      vertex -0.360000 -0.340000 0.020000
    endloop
  endfacet
  facet normal 0.000000 1.000000 0.000000
    outer loop
      vertex -0.360000 0.340000 0.000000
      vertex -0.360000 0.340000 0.020000
      vertex 0.360000 0.340000 0.020000
    endloop
  endfacet
  facet normal 0.000000 1.000000 0.000000
    outer loop
      vertex -0.360000 0.340000 0.000000
      vertex 0.360000 0.340000 0.020000
      vertex 0.360000 0.340000 0.000000
    endloop
  endfacet
  facet normal -1.000000 0.000000 0.000000
    outer loop
      vertex -0.360000 -0.340000 0.000000
      vertex -0.360000 -0.340000 0.020000
      vertex -0.360000 0.340000 0.020000
    endloop
  endfacet
  facet normal -1.000000 0.000000 0.000000
    outer loop
      vertex -0.360000 -0.340000 0.000000
      vertex -0.360000 0.340000 0.020000
      vertex -0.360000 0.340000 0.000000
    endloop
  endfacet
  facet normal 1.000000 0.000000 0.000000
    outer loop
      vertex 0.360000 -0.340000 0.000000
      vertex 0.360000 0.340000 0.000000
      vertex 0.360000 0.340000 0.020000
    endloop
  endfacet
  facet normal 1.000000 0.000000 0.000000
    outer loop
      vertex 0.360000 -0.340000 0.000000
      vertex 0.360000 0.340000 0.020000
      vertex 0.360000 -0.340000 0.020000
    endloop
  endfacet
endsolid eppendorf_centrifuge_5910_ri_plinth
