solid console_screen
  facet normal 0.000000 0.000000 -1.000000
    outer loop
      vertex -0.050000 -0.005000 0.000000
      vertex 0.050000 0.005000 0.000000
      vertex 0.050000 -0.005000 0.000000
    endloop
  endfacet
  facet normal 0.000000 0.000000 -1.000000
    outer loop
      vertex -0.050000 -0.005000 0.000000
      vertex -0.050000 0.005000 0.000000
      vertex 0.050000 0.005000 0.000000
    endloop
  endfacet
  facet normal 0.000000 0.000000 1.000000
    outer loop
      vertex -0.050000 -0.005000 0.140000
      vertex 0.050000 -0.005000 0.140000
      vertex 0.050000 0.005000 0.140000
    endloop
  endfacet
  facet normal 0.000000 0.000000 1.000000
    outer loop
      vertex -0.050000 -0.005000 0.140000
      vertex 0.050000 0.005000 0.140000
      vertex -0.050000 0.005000 0.140000
    endloop
  endfacet
  facet normal 0.000000 -1.000000 0.000000
    outer loop
      vertex -0.050000 -0.005000 0.000000
      vertex 0.050000 -0.005000 0.000000
      vertex 0.050000 -0.005000 0.140000
    endloop
  endfacet
  facet normal 0.000000 -1.000000 0.000000
    outer loop
      vertex -0.050000 -0.005000 0.000000
      vertex 0.050000 -0.005000 0.140000
      vertex -0.050000 -0.005000 0.140000
    endloop
  endfacet
  facet normal 0.000000 1.000000 0.000000
    outer loop
      vertex -0.050000 0.005000 0.000000
      vertex -0.050000 0.005000 0.140000
      vertex 0.050000 0.005000 0.140000
    endloop
  endfacet
  facet normal 0.000000 1.000000 0.000000
    outer loop
      vertex -0.050000 0.005000 0.000000
      vertex 0.050000 0.005000 0.140000
      vertex 0.050000 0.005000 0.000000
    endloop
  endfacet
  facet normal -1.000000 0.000000 0.000000
    outer loop
      vertex -0.050000 -0.005000 0.000000
      vertex -0.050000 -0.005000 0.140000
      vertex -0.050000 0.005000 0.140000
    endloop
  endfacet
  facet normal -1.000000 0.000000 0.000000
    outer loop
      vertex -0.050000 -0.005000 0.000000
      vertex -0.050000 0.005000 0.140000
      vertex -0.050000 0.005000 0.000000
    endloop
  endfacet
  facet normal 1.000000 0.000000 0.000000
    outer loop
      vertex 0.050000 -0.005000 0.000000
      vertex 0.050000 0.005000 0.000000
      vertex 0.050000 0.005000 0.140000
    endloop
  endfacet
  facet normal 1.000000 0.000000 0.000000
    outer loop
      vertex 0.050000 -0.005000 0.000000
      vertex 0.050000 0.005000 0.140000
      vertex 0.050000 -0.005000 0.140000
    endloop
  endfacet
endsolid console_screen
