solid front_guard
  facet normal 0.000000 0.000000 -1.000000
    outer loop
      vertex -0.565000 -0.025000 0.000000
      vertex 0.565000 0.025000 0.000000
      vertex 0.565000 -0.025000 0.000000
    endloop
  endfacet
  facet normal 0.000000 0.000000 -1.000000
    outer loop
      vertex -0.565000 -0.025000 0.000000
      vertex -0.565000 0.025000 0.000000
      vertex 0.565000 0.025000 0.000000
    endloop
  endfacet
  facet normal 0.000000 0.000000 1.000000
    outer loop
      vertex -0.565000 -0.025000 0.080000
      vertex 0.565000 -0.025000 0.080000
      vertex 0.565000 0.025000 0.080000
    endloop
  endfacet
  facet normal 0.000000 0.000000 1.000000
    outer loop
      vertex -0.565000 -0.025000 0.080000
      vertex 0.565000 0.025000 0.080000
      vertex -0.565000 0.025000 0.080000
    endloop
  endfacet
  facet normal 0.000000 -1.000000 0.000000
    outer loop
      vertex -0.565000 -0.025000 0.000000
      vertex 0.565000 -0.025000 0.000000
      vertex 0.565000 -0.025000 0.080000
    endloop
  endfacet
  facet normal 0.000000 -1.000000 0.000000
    outer loop
      vertex -0.565000 -0.025000 0.000000
      vertex 0.565000 -0.025000 0.080000
      vertex -0.565000 -0.025000 0.080000
    endloop
  endfacet
  facet normal 0.000000 1.000000 0.000000
    outer loop
      vertex -0.565000 0.025000 0.000000
      vertex -0.565000 0.025000 0.080000
      vertex 0.565000 0.025000 0.080000
    endloop
  endfacet
  facet normal 0.000000 1.000000 0.000000
    outer loop
      vertex -0.565000 0.025000 0.000000
      vertex 0.565000 0.025000 0.080000
      vertex 0.565000 0.025000 0.000000
    endloop
  endfacet
  facet normal -1.000000 0.000000 0.000000
    outer loop
      vertex -0.565000 -0.025000 0.000000
      vertex -0.565000 -0.025000 0.080000
      vertex -0.565000 0.025000 0.080000
    endloop
  endfacet
  facet normal -1.000000 0.000000 0.000000
    outer loop
      vertex -0.565000 -0.025000 0.000000
      vertex -0.565000 0.025000 0.080000
      vertex -0.565000 0.025000 0.000000
    endloop
  endfacet
  facet normal 1.000000 0.000000 0.000000
    outer loop
      vertex 0.565000 -0.025000 0.000000
      vertex 0.565000 0.025000 0.000000
      vertex 0.565000 0.025000 0.080000
    endloop
  endfacet
  facet normal 1.000000 0.000000 0.000000
    outer loop
      vertex 0.565000 -0.025000 0.000000
      vertex 0.565000 0.025000 0.080000
      vertex 0.565000 -0.025000 0.080000
    endloop
  endfacet
endsolid front_guard
