solid rear_cabinet
  facet normal 0.000000 0.000000 -1.000000
    outer loop
      vertex -0.725000 -0.170000 0.000000
      vertex 0.725000 0.170000 0.000000
      vertex 0.725000 -0.170000 0.000000
    endloop
  endfacet
  facet normal 0.000000 0.000000 -1.000000
    outer loop
      vertex -0.725000 -0.170000 0.000000
      vertex -0.725000 0.170000 0.000000
      vertex 0.725000 0.170000 0.000000
    endloop
  endfacet
  facet normal 0.000000 0.000000 1.000000
    outer loop
      vertex -0.725000 -0.170000 0.700000
      vertex 0.725000 -0.170000 0.700000
      vertex 0.725000 0.170000 0.700000
    endloop
  endfacet
  facet normal 0.000000 0.000000 1.000000
    outer loop
      vertex -0.725000 -0.170000 0.700000
      vertex 0.725000 0.170000 0.700000
      vertex -0.725000 0.170000 0.700000
    endloop
  endfacet
  facet normal 0.000000 -1.000000 0.000000
    outer loop
      vertex -0.725000 -0.170000 0.000000
      vertex 0.725000 -0.170000 0.000000
      vertex 0.725000 -0.170000 0.700000
    endloop
  endfacet
  facet normal 0.000000 -1.000000 0.000000
    outer loop
      vertex -0.725000 -0.170000 0.000000
      vertex 0.725000 -0.170000 0.700000
      vertex -0.725000 -0.170000 0.700000
    endloop
  endfacet
  facet normal 0.000000 1.000000 0.000000
    outer loop
      vertex -0.725000 0.170000 0.000000
      vertex -0.725000 0.170000 0.700000
      vertex 0.725000 0.170000 0.700000
    endloop
  endfacet
  facet normal 0.000000 1.000000 0.000000
    outer loop
      vertex -0.725000 0.170000 0.000000
      vertex 0.725000 0.170000 0.700000
      vertex 0.725000 0.170000 0.000000
    endloop
  endfacet
  facet normal -1.000000 0.000000 0.000000
    outer loop
      vertex -0.725000 -0.170000 0.000000
      vertex -0.725000 -0.170000 0.700000
      vertex -0.725000 0.170000 0.700000
    endloop
  endfacet
  facet normal -1.000000 0.000000 0.000000
    outer loop
      vertex -0.725000 -0.170000 0.000000
      vertex -0.725000 0.170000 0.700000
      vertex -0.725000 0.170000 0.000000
    endloop
  endfacet
  facet normal 1.000000 0.000000 0.000000
    outer loop
      vertex 0.725000 -0.170000 0.000000
      vertex 0.725000 0.170000 0.000000
      vertex 0.725000 0.170000 0.700000
    endloop
  endfacet
  facet normal 1.000000 0.000000 0.000000
    outer loop
      vertex 0.725000 -0.170000 0.000000
      vertex 0.725000 0.170000 0.700000
      vertex 0.725000 -0.170000 0.700000
    endloop
  endfacet
endsolid rear_cabinet
