solid side_column
  facet normal 0.000000 0.000000 -1.000000
    outer loop
      vertex -0.040000 -0.430000 0.000000
      vertex 0.040000 0.430000 0.000000
      vertex 0.040000 -0.430000 0.000000
    endloop
  endfacet
  facet normal 0.000000 0.000000 -1.000000
    outer loop
      vertex -0.040000 -0.430000 0.000000
      vertex -0.040000 0.430000 0.000000
      vertex 0.040000 0.430000 0.000000
    endloop
  endfacet
  facet normal 0.000000 0.000000 1.000000
    outer loop
      vertex -0.040000 -0.430000 1.040000
      vertex 0.040000 -0.430000 1.040000
      vertex 0.040000 0.430000 1.040000
    endloop
  endfacet
  facet normal 0.000000 0.000000 1.000000
    outer loop
      vertex -0.040000 -0.430000 1.040000
      vertex 0.040000 0.430000 1.040000
      vertex -0.040000 0.430000 1.040000
    endloop
  endfacet
  facet normal 0.000000 -1.000000 0.000000
    outer loop
      vertex -0.040000 -0.430000 0.000000
      vertex 0.040000 -0.430000 0.000000
      vertex 0.040000 -0.430000 1.040000
    endloop
  endfacet
  facet normal 0.000000 -1.000000 0.000000
    outer loop
      vertex -0.040000 -0.430000 0.000000
      vertex 0.040000 -0.430000 1.040000
      vertex -0.040000 -0.430000 1.040000
    endloop
  endfacet
  facet normal 0.000000 1.000000 0.000000
    outer loop
      vertex -0.040000 0.430000 0.000000
      vertex -0.040000 0.430000 1.040000
      vertex 0.040000 0.430000 1.040000
    endloop
  endfacet
  facet normal 0.000000 1.000000 0.000000
    outer loop
      vertex -0.040000 0.430000 0.000000
      vertex 0.040000 0.430000 1.040000
      vertex 0.040000 0.430000 0.000000
    endloop
  endfacet
  facet normal -1.000000 0.000000 0.000000
    outer loop
      vertex -0.040000 -0.430000 0.000000
      vertex -0.040000 -0.430000 1.040000
      vertex -0.040000 0.430000 1.040000
    endloop
  endfacet
  facet normal -1.000000 0.000000 0.000000
    outer loop
      vertex -0.040000 -0.430000 0.000000
      vertex -0.040000 0.430000 1.040000
      vertex -0.040000 0.430000 0.000000
    endloop
  endfacet
  facet normal 1.000000 0.000000 0.000000
    outer loop
      vertex 0.040000 -0.430000 0.000000
      vertex 0.040000 0.430000 0.000000
      vertex 0.040000 0.430000 1.040000
    endloop
  endfacet
  facet normal 1.000000 0.000000 0.000000
    outer loop
      vertex 0.040000 -0.430000 0.000000
      vertex 0.040000 0.430000 1.040000
      vertex 0.040000 -0.430000 1.040000
    endloop
  endfacet
endsolid side_column
