solid worktable_deck
  facet normal 0.000000 0.000000 -1.000000
    outer loop
      vertex -0.565000 -0.270000 0.000000
      vertex 0.565000 0.270000 0.000000
      vertex 0.565000 -0.270000 0.000000
    endloop
  endfacet
  facet normal 0.000000 0.000000 -1.000000
    outer loop
      vertex -0.565000 -0.270000 0.000000
      vertex -0.565000 0.270000 0.000000
      vertex 0.565000 0.270000 0.000000
    endloop
  endfacet
  facet normal 0.000000 0.000000 1.000000
    outer loop
      vertex -0.565000 -0.270000 0.040000
      vertex 0.565000 -0.270000 0.040000
      vertex 0.565000 0.270000 0.040000
    endloop
  endfacet
  facet normal 0.000000 0.000000 1.000000
    outer loop
      vertex -0.565000 -0.270000 0.040000
      vertex 0.565000 0.270000 0.040000
      vertex -0.565000 0.270000 0.040000
    endloop
  endfacet
  facet normal 0.000000 -1.000000 0.000000
    outer loop
      vertex -0.565000 -0.270000 0.000000
      vertex 0.565000 -0.270000 0.000000
      vertex 0.565000 -0.270000 0.040000
    endloop
  endfacet
  facet normal 0.000000 -1.000000 0.000000
    outer loop
      vertex -0.565000 -0.270000 0.000000
      vertex 0.565000 -0.270000 0.040000
      vertex -0.565000 -0.270000 0.040000
    endloop
  endfacet
  facet normal 0.000000 1.000000 0.000000
    outer loop
      vertex -0.565000 0.270000 0.000000
      vertex -0.565000 0.270000 0.040000
      vertex 0.565000 0.270000 0.040000
    endloop
  endfacet
  facet normal 0.000000 1.000000 0.000000
    outer loop
      vertex -0.565000 0.270000 0.000000
      vertex 0.565000 0.270000 0.040000
      vertex 0.565000 0.270000 0.000000
    endloop
  endfacet
  facet normal -1.000000 0.000000 0.000000
    outer loop
      vertex -0.565000 -0.270000 0.000000
      vertex -0.565000 -0.270000 0.040000
      vertex -0.565000 0.270000 0.040000
    endloop
  endfacet
  facet normal -1.000000 0.000000 0.000000
    outer loop
      vertex -0.565000 -0.270000 0.000000
      vertex -0.565000 0.270000 0.040000
      vertex -0.565000 0.270000 0.000000
    endloop
  endfacet
  facet normal 1.000000 0.000000 0.000000
    outer loop
      vertex 0.565000 -0.270000 0.000000
      vertex 0.565000 0.270000 0.000000
      vertex 0.565000 0.270000 0.040000
    endloop
  endfacet
  facet normal 1.000000 0.000000 0.000000
    outer loop
      vertex 0.565000 -0.270000 0.000000
      vertex 0.565000 0.270000 0.040000
      vertex 0.565000 -0.270000 0.040000
    endloop
  endfacet
endsolid worktable_deck
