solid x_rail_beam
  facet normal 0.000000 0.000000 -1.000000
    outer loop
      vertex -0.645000 -0.060000 0.000000
      vertex 0.645000 0.060000 0.000000
      vertex 0.645000 -0.060000 0.000000
    endloop
  endfacet
  facet normal 0.000000 0.000000 -1.000000
    outer loop
      vertex -0.645000 -0.060000 0.000000
      vertex -0.645000 0.060000 0.000000
      vertex 0.645000 0.060000 0.000000
    endloop
  endfacet
  facet normal 0.000000 0.000000 1.000000
    outer loop
      vertex -0.645000 -0.060000 0.080000
      vertex 0.645000 -0.060000 0.080000
      vertex 0.645000 0.060000 0.080000
    endloop
  endfacet
  facet normal 0.000000 0.000000 1.000000
    outer loop
      vertex -0.645000 -0.060000 0.080000
      vertex 0.645000 0.060000 0.080000
      vertex -0.645000 0.060000 0.080000
    endloop
  endfacet
  facet normal 0.000000 -1.000000 0.000000
    outer loop
      vertex -0.645000 -0.060000 0.000000
      vertex 0.645000 -0.060000 0.000000
      vertex 0.645000 -0.060000 0.080000
    endloop
  endfacet
  facet normal 0.000000 -1.000000 0.000000
    outer loop
      vertex -0.645000 -0.060000 0.000000
      vertex 0.645000 -0.060000 0.080000
      vertex -0.645000 -0.060000 0.080000
    endloop
  endfacet
  facet normal 0.000000 1.000000 0.000000
    outer loop
      vertex -0.645000 0.060000 0.000000
      vertex -0.645000 0.060000 0.080000
      vertex 0.645000 0.060000 0.080000
    endloop
  endfacet
  facet normal 0.000000 1.000000 0.000000
    outer loop
      vertex -0.645000 0.060000 0.000000
      vertex 0.645000 0.060000 0.080000
      vertex 0.645000 0.060000 0.000000
    endloop
  endfacet
  facet normal -1.000000 0.000000 0.000000
    outer loop
      vertex -0.645000 -0.060000 0.000000
      vertex -0.645000 -0.060000 0.080000
      vertex -0.645000 0.060000 0.080000
    endloop
  endfacet
  facet normal -1.000000 0.000000 0.000000
    outer loop
      vertex -0.645000 -0.060000 0.000000
      vertex -0.645000 0.060000 0.080000
      vertex -0.645000 0.060000 0.000000
    endloop
  endfacet
  facet normal 1.000000 0.000000 0.000000
    outer loop
      vertex 0.645000 -0.060000 0.000000
      vertex 0.645000 0.060000 0.000000
      vertex 0.645000 0.060000 0.080000
    endloop
  endfacet
  facet normal 1.000000 0.000000 0.000000
    outer loop
      vertex 0.645000 -0.060000 0.000000
      vertex 0.645000 0.060000 0.080000
      vertex 0.645000 -0.060000 0.080000
    endloop
  endfacet
endsolid x_rail_beam
