solid bd_facsmelody_body_shell
  facet normal 0.000000 0.000000 -1.000000
    outer loop
      vertex -0.247500 -0.279500 0.000000
      vertex 0.247500 0.279500 0.000000
      vertex 0.247500 -0.279500 0.000000
    endloop
  endfacet
  facet normal 0.000000 0.000000 -1.000000
    outer loop
      vertex -0.247500 -0.279500 0.000000
      vertex -0.247500 0.279500 0.000000
      vertex 0.247500 0.279500 0.000000
    endloop
  endfacet
  facet normal 0.000000 0.000000 1.000000
    outer loop
      vertex -0.247500 -0.279500 0.483000
      vertex 0.247500 -0.279500 0.483000
      vertex 0.247500 0.279500 0.483000
    endloop
  endfacet
  facet normal 0.000000 0.000000 1.000000
    outer loop
      vertex -0.247500 -0.279500 0.483000
      vertex 0.247500 0.279500 0.483000
      vertex -0.247500 0.279500 0.483000
    endloop
  endfacet
  facet normal 0.000000 -1.000000 0.000000
    outer loop
      vertex -0.247500 -0.279500 0.000000
      vertex 0.247500 -0.279500 0.000000
      vertex 0.247500 -0.279500 0.483000
    endloop
  endfacet
  facet normal 0.000000 -1.000000 0.000000
    outer loop
      vertex -0.247500 -0.279500 0.000000
      vertex 0.247500 -0.279500 0.483000
      vertex -0.247500 -0.279500 0.483000
    endloop
  endfacet
  facet normal 0.000000 1.000000 0.000000
    outer loop
      vertex -0.247500 0.279500 0.000000
      vertex -0.247500 0.279500 0.483000
      vertex 0.247500 0.279500 0.483000
    endloop
  endfacet
  facet normal 0.000000 1.000000 0.000000
    outer loop
      vertex -0.247500 0.279500 0.000000
      vertex 0.247500 0.279500 0.483000
      vertex 0.247500 0.279500 0.000000
    endloop
  endfacet
  facet normal -1.000000 0.000000 0.000000
    outer loop
      vertex -0.247500 -0.279500 0.000000
      vertex -0.247500 -0.279500 0.483000
      vertex -0.247500 0.279500 0.483000
    endloop
  endfacet
  facet normal -1.000000 0.000000 0.000000
    outer loop
      vertex -0.247500 -0.279500 0.000000
      vertex -0.247500 0.279500 0.483000
      vertex -0.247500 0.279500 0.000000
    endloop
  endfacet
  facet normal 1.000000 0.000000 0.000000
    outer loop
      vertex 0.247500 -0.279500 0.000000
      vertex 0.247500 0.279500 0.000000
      vertex 0.247500 0.279500 0.483000
    endloop
  endfacet
  facet normal 1.000000 0.000000 0.000000
    outer loop
      vertex 0.247500 -0.279500 0.000000
      vertex 0.247500 0.279500 0.483000
      vertex 0.247500 -0.279500 0.483000
    endloop
  endfacet
endsolid bd_facsmelody_body_shell
