solid bd_facsmelody_center_panel
  facet normal 0.000000 0.000000 -1.000000
    outer loop
      vertex -0.115000 -0.005000 0.000000
      vertex 0.115000 0.005000 0.000000
      vertex 0.115000 -0.005000 0.000000
    endloop
  endfacet
  facet normal 0.000000 0.000000 -1.000000
    outer loop
      vertex -0.115000 -0.005000 0.000000
      vertex -0.115000 0.005000 0.000000
      vertex 0.115000 0.005000 0.000000
    endloop
  endfacet
  facet normal 0.000000 0.000000 1.000000
    outer loop
      vertex -0.115000 -0.005000 0.300000
      vertex 0.115000 -0.005000 0.300000
      vertex 0.115000 0.005000 0.300000
    endloop
  endfacet
  facet normal 0.000000 0.000000 1.000000
    outer loop
      vertex -0.115000 -0.005000 0.300000
      vertex 0.115000 0.005000 0.300000
      vertex -0.115000 0.005000 0.300000
    endloop
  endfacet
  facet normal 0.000000 -1.000000 0.000000
    outer loop
      vertex -0.115000 -0.005000 0.000000
      vertex 0.115000 -0.005000 0.000000
      vertex 0.115000 -0.005000 0.300000
    endloop
  endfacet
  facet normal 0.000000 -1.000000 0.000000
    outer loop
      vertex -0.115000 -0.005000 0.000000
      vertex 0.115000 -0.005000 0.300000
      vertex -0.115000 -0.005000 0.300000
    endloop
  endfacet
  facet normal 0.000000 1.000000 0.000000
    outer loop
      vertex -0.115000 0.005000 0.000000
      vertex -0.115000 0.005000 0.300000
      vertex 0.115000 0.005000 0.300000
    endloop
  endfacet
  facet normal 0.000000 1.000000 0.000000
    outer loop
      vertex -0.115000 0.005000 0.000000
      vertex 0.115000 0.005000 0.300000
      vertex 0.115000 0.005000 0.000000
    endloop
  endfacet
  facet normal -1.000000 0.000000 0.000000
    outer loop
      vertex -0.115000 -0.005000 0.000000
      vertex -0.115000 -0.005000 0.300000
      vertex -0.115000 0.005000 0.300000
    endloop
  endfacet
  facet normal -1.000000 0.000000 0.000000
    outer loop
      vertex -0.115000 -0.005000 0.000000
      vertex -0.115000 0.005000 0.300000
      vertex -0.115000 0.005000 0.000000
    endloop
  endfacet
  facet normal 1.000000 0.000000 0.000000
    outer loop
      vertex 0.115000 -0.005000 0.000000
      vertex 0.115000 0.005000 0.000000
      vertex 0.115000 0.005000 0.300000
    endloop
  endfacet
  facet normal 1.000000 0.000000 0.000000
    outer loop
      vertex 0.115000 -0.005000 0.000000
      vertex 0.115000 0.005000 0.300000
      vertex 0.115000 -0.005000 0.300000
    endloop
  endfacet
endsolid bd_facsmelody_center_panel
