solid bd_facsmelody_left_chamber_door
  facet normal 0.000000 0.000000 -1.000000
    outer loop
      vertex -0.085000 -0.005000 0.000000
      vertex 0.085000 0.005000 0.000000
      vertex 0.085000 -0.005000 0.000000
    endloop
  endfacet
  facet normal 0.000000 0.000000 -1.000000
    outer loop
      vertex -0.085000 -0.005000 0.000000
      vertex -0.085000 0.005000 0.000000
      vertex 0.085000 0.005000 0.000000
    endloop
  endfacet
  facet normal 0.000000 0.000000 1.000000
    outer loop
      vertex -0.085000 -0.005000 0.170000
      vertex 0.085000 -0.005000 0.170000
      vertex 0.085000 0.005000 0.170000
    endloop
  endfacet
  facet normal 0.000000 0.000000 1.000000
    outer loop
      vertex -0.085000 -0.005000 0.170000
      vertex 0.085000 0.005000 0.170000
      vertex -0.085000 0.005000 0.170000
    endloop
  endfacet
  facet normal 0.000000 -1.000000 0.000000
    outer loop
      vertex -0.085000 -0.005000 0.000000
      vertex 0.085000 -0.005000 0.000000
      vertex 0.085000 -0.005000 0.170000
    endloop
  endfacet
  facet normal 0.000000 -1.000000 0.000000
    outer loop
      vertex -0.085000 -0.005000 0.000000
      vertex 0.085000 -0.005000 0.170000
      vertex -0.085000 -0.005000 0.170000
    endloop
  endfacet
  facet normal 0.000000 1.000000 0.000000
    outer loop
      vertex -0.085000 0.005000 0.000000
      vertex -0.085000 0.005000 0.170000
      vertex 0.085000 0.005000 0.170000
    endloop
  endfacet
  facet normal 0.000000 1.000000 0.000000
    outer loop
      vertex -0.085000 0.005000 0.000000
      vertex 0.085000 0.005000 0.170000
      vertex 0.085000 0.005000 0.000000
    endloop
  endfacet
  facet normal -1.000000 0.000000 0.000000
    outer loop
      vertex -0.085000 -0.005000 0.000000
      vertex -0.085000 -0.005000 0.170000
      vertex -0.085000 0.005000 0.170000
    endloop
  endfacet
  facet normal -1.000000 0.000000 0.000000
    outer loop
      vertex -0.085000 -0.005000 0.000000
      vertex -0.085000 0.005000 0.170000
      vertex -0.085000 0.005000 0.000000
    endloop
  endfacet
  facet normal 1.000000 0.000000 0.000000
    outer loop
      vertex 0.085000 -0.005000 0.000000
      vertex 0.085000 0.005000 0.000000
      vertex 0.085000 0.005000 0.170000
    endloop
  endfacet
  facet normal 1.000000 0.000000 0.000000
    outer loop
      vertex 0.085000 -0.005000 0.000000
      vertex 0.085000 0.005000 0.170000
      vertex 0.085000 -0.005000 0.170000
    endloop
  endfacet
endsolid bd_facsmelody_left_chamber_door
