solid bd_facsmelody_right_front_panel
  facet normal 0.000000 0.000000 -1.000000
    outer loop
      vertex -0.077500 -0.005000 0.000000
      vertex 0.077500 0.005000 0.000000
      vertex 0.077500 -0.005000 0.000000
    endloop
  endfacet
  facet normal 0.000000 0.000000 -1.000000
    outer loop
      vertex -0.077500 -0.005000 0.000000
      vertex -0.077500 0.005000 0.000000
      vertex 0.077500 0.005000 0.000000
    endloop
  endfacet
  facet normal 0.000000 0.000000 1.000000
    outer loop
      vertex -0.077500 -0.005000 0.390000
      vertex 0.077500 -0.005000 0.390000
      vertex 0.077500 0.005000 0.390000
    endloop
  endfacet
  facet normal 0.000000 0.000000 1.000000
    outer loop
      vertex -0.077500 -0.005000 0.390000
      vertex 0.077500 0.005000 0.390000
      vertex -0.077500 0.005000 0.390000
    endloop
  endfacet
  facet normal 0.000000 -1.000000 0.000000
    outer loop
      vertex -0.077500 -0.005000 0.000000
      vertex 0.077500 -0.005000 0.000000
      vertex 0.077500 -0.005000 0.390000
    endloop
  endfacet
  facet normal 0.000000 -1.000000 0.000000
    outer loop
      vertex -0.077500 -0.005000 0.000000
      vertex 0.077500 -0.005000 0.390000
      vertex -0.077500 -0.005000 0.390000
    endloop
  endfacet
  facet normal 0.000000 1.000000 0.000000
    outer loop
      vertex -0.077500 0.005000 0.000000
      vertex -0.077500 0.005000 0.390000
      vertex 0.077500 0.005000 0.390000
    endloop
  endfacet
  facet normal 0.000000 1.000000 0.000000
    outer loop
      vertex -0.077500 0.005000 0.000000
      vertex 0.077500 0.005000 0.390000
      vertex 0.077500 0.005000 0.000000
    endloop
  endfacet
  facet normal -1.000000 0.000000 0.000000
    outer loop
      vertex -0.077500 -0.005000 0.000000
      vertex -0.077500 -0.005000 0.390000
      vertex -0.077500 0.005000 0.390000
    endloop
  endfacet
  facet normal -1.000000 0.000000 0.000000
    outer loop
      vertex -0.077500 -0.005000 0.000000
      vertex -0.077500 0.005000 0.390000
      vertex -0.077500 0.005000 0.000000
    endloop
  endfacet
  facet normal 1.000000 0.000000 0.000000
    outer loop
      vertex 0.077500 -0.005000 0.000000
      vertex 0.077500 0.005000 0.000000
      vertex 0.077500 0.005000 0.390000
    endloop
  endfacet
  facet normal 1.000000 0.000000 0.000000
    outer loop
      vertex 0.077500 -0.005000 0.000000
      vertex 0.077500 0.005000 0.390000
      vertex 0.077500 -0.005000 0.390000
    endloop
  endfacet
endsolid bd_facsmelody_right_front_panel
