solid clariostar_plus_plate_drawer
  facet normal 0.000000 0.000000 -1.000000
    outer loop
      vertex -0.080000 -0.315000 0.085000
      vertex 0.080000 -0.205000 0.085000
      vertex 0.080000 -0.315000 0.085000
    endloop
  endfacet
  facet normal 0.000000 0.000000 1.000000
    outer loop
      vertex -0.080000 -0.315000 0.085000
      vertex 0.080000 -0.315000 0.085000
      vertex -0.080000 -0.205000 0.085000
    endloop
  endfacet
  facet normal 0.000000 0.000000 1.000000
    outer loop
      vertex -0.080000 -0.315000 0.095000
      vertex 0.080000 -0.315000 0.095000
      vertex 0.080000 -0.205000 0.095000
    endloop
  endfacet
  facet normal 0.000000 0.000000 1.000000
    outer loop
      vertex -0.080000 -0.315000 0.095000
      vertex 0.080000 -0.205000 0.095000
      vertex -0.080000 -0.205000 0.095000
    endloop
  endfacet
  facet normal 0.000000 -1.000000 0.000000
    outer loop
      vertex -0.080000 -0.315000 0.085000
      vertex 0.080000 -0.315000 0.085000
      vertex 0.080000 -0.315000 0.095000
    endloop
  endfacet
  facet normal 0.000000 -1.000000 0.000000
    outer loop
      vertex -0.080000 -0.315000 0.085000
      vertex 0.080000 -0.315000 0.095000
      vertex -0.080000 -0.315000 0.095000
    endloop
  endfacet
  facet normal 0.000000 1.000000 0.000000
    outer loop
      vertex -0.080000 -0.205000 0.085000
      vertex -0.080000 -0.205000 0.095000
      vertex 0.080000 -0.205000 0.095000
    endloop
  endfacet
  facet normal 0.000000 1.000000 0.000000
    outer loop
      vertex -0.080000 -0.205000 0.085000
      vertex 0.080000 -0.205000 0.095000
      vertex 0.080000 -0.205000 0.085000
    endloop
  endfacet
  facet normal -1.000000 0.000000 0.000000
    outer loop
      vertex -0.080000 -0.315000 0.085000
      vertex -0.080000 -0.315000 0.095000
      vertex -0.080000 -0.205000 0.095000
    endloop
  endfacet
  facet normal -1.000000 0.000000 0.000000
    outer loop
      vertex -0.080000 -0.315000 0.085000
      vertex -0.080000 -0.205000 0.095000
      vertex -0.080000 -0.205000 0.085000
    endloop
  endfacet
  facet normal 1.000000 0.000000 0.000000
    outer loop
      vertex 0.080000 -0.315000 0.085000
      vertex 0.080000 -0.205000 0.085000
      vertex 0.080000 -0.205000 0.095000
    endloop
  endfacet
  facet normal 1.000000 0.000000 0.000000
    outer loop
      vertex 0.080000 -0.315000 0.085000
      vertex 0.080000 -0.205000 0.095000
      vertex 0.080000 -0.315000 0.095000
    endloop
  endfacet
  facet normal 0.000000 0.000000 -1.000000
    outer loop
      vertex -0.060000 -0.327000 0.074000
      vertex 0.060000 -0.315000 0.074000
      vertex 0.060000 -0.327000 0.074000
    endloop
  endfacet
  facet normal 0.000000 0.000000 1.000000
    outer loop
      vertex -0.060000 -0.327000 0.074000
      vertex 0.060000 -0.327000 0.074000
      vertex -0.060000 -0.315000 0.074000
    endloop
  endfacet
  facet normal 0.000000 0.000000 1.000000
    outer loop
      vertex -0.060000 -0.327000 0.108000
      vertex 0.060000 -0.327000 0.108000
      vertex 0.060000 -0.315000 0.108000
    endloop
  endfacet
  facet normal 0.000000 0.000000 1.000000
    outer loop
      vertex -0.060000 -0.327000 0.108000
      vertex 0.060000 -0.315000 0.108000
      vertex -0.060000 -0.315000 0.108000
    endloop
  endfacet
  facet normal 0.000000 -1.000000 0.000000
    outer loop
      vertex -0.060000 -0.327000 0.074000
      vertex 0.060000 -0.327000 0.074000
      vertex 0.060000 -0.327000 0.108000
    endloop
  endfacet
  facet normal 0.000000 -1.000000 0.000000
    outer loop
      vertex -0.060000 -0.327000 0.074000
      vertex 0.060000 -0.327000 0.108000
      vertex -0.060000 -0.327000 0.108000
    endloop
  endfacet
  facet normal 0.000000 1.000000 0.000000
    outer loop
      vertex -0.060000 -0.315000 0.074000
      vertex -0.060000 -0.315000 0.108000
      vertex 0.060000 -0.315000 0.108000
    endloop
  endfacet
  facet normal 0.000000 1.000000 0.000000
    outer loop
      vertex -0.060000 -0.315000 0.074000
      vertex 0.060000 -0.315000 0.108000
      vertex 0.060000 -0.315000 0.074000
    endloop
  endfacet
  facet normal -1.000000 0.000000 0.000000
    outer loop
      vertex -0.060000 -0.327000 0.074000
      vertex -0.060000 -0.327000 0.108000
      vertex -0.060000 -0.315000 0.108000
    endloop
  endfacet
  facet normal -1.000000 0.000000 0.000000
    outer loop
      vertex -0.060000 -0.327000 0.074000
      vertex -0.060000 -0.315000 0.108000
      vertex -0.060000 -0.315000 0.074000
    endloop
  endfacet
  facet normal 1.000000 0.000000 0.000000
    outer loop
      vertex 0.060000 -0.327000 0.074000
      vertex 0.060000 -0.315000 0.074000
      vertex 0.060000 -0.315000 0.108000
    endloop
  endfacet
  facet normal 1.000000 0.000000 0.000000
    outer loop
      vertex 0.060000 -0.327000 0.074000
      vertex 0.060000 -0.315000 0.108000
      vertex 0.060000 -0.327000 0.108000
    endloop
  endfacet
endsolid clariostar_plus_plate_drawer
