solid biacore_drip_tray
  facet normal 0.000000 0.000000 -1.000000
    outer loop
      vertex -0.295000 -0.049000 0.000000
      vertex 0.295000 0.049000 0.000000
      vertex 0.295000 -0.049000 0.000000
    endloop
  endfacet
  facet normal 0.000000 0.000000 -1.000000
    outer loop
      vertex -0.295000 -0.049000 0.000000
      vertex -0.295000 0.049000 0.000000
      vertex 0.295000 0.049000 0.000000
    endloop
  endfacet
  facet normal 0.000000 0.000000 1.000000
    outer loop
      vertex -0.295000 -0.049000 0.018000
      vertex 0.295000 -0.049000 0.018000
      vertex 0.295000 0.049000 0.018000
    endloop
  endfacet
  facet normal 0.000000 0.000000 1.000000
    outer loop
      vertex -0.295000 -0.049000 0.018000
      vertex 0.295000 0.049000 0.018000
      vertex -0.295000 0.049000 0.018000
    endloop
  endfacet
  facet normal 0.000000 -1.000000 0.000000
    outer loop
      vertex -0.295000 -0.049000 0.000000
      vertex 0.295000 -0.049000 0.000000
      vertex 0.295000 -0.049000 0.018000
    endloop
  endfacet
  facet normal 0.000000 -1.000000 0.000000
    outer loop
      vertex -0.295000 -0.049000 0.000000
      vertex 0.295000 -0.049000 0.018000
      vertex -0.295000 -0.049000 0.018000
    endloop
  endfacet
  facet normal 0.000000 1.000000 0.000000
    outer loop
      vertex -0.295000 0.049000 0.000000
      vertex -0.295000 0.049000 0.018000
      vertex 0.295000 0.049000 0.018000
    endloop
  endfacet
  facet normal 0.000000 1.000000 0.000000
    outer loop
      vertex -0.295000 0.049000 0.000000
      vertex 0.295000 0.049000 0.018000
      vertex 0.295000 0.049000 0.000000
    endloop
  endfacet
  facet normal -1.000000 0.000000 0.000000
    outer loop
      vertex -0.295000 -0.049000 0.000000
      vertex -0.295000 -0.049000 0.018000
      vertex -0.295000 0.049000 0.018000
    endloop
  endfacet
  facet normal -1.000000 0.000000 0.000000
    outer loop
      vertex -0.295000 -0.049000 0.000000
      vertex -0.295000 0.049000 0.018000
      vertex -0.295000 0.049000 0.000000
    endloop
  endfacet
  facet normal 1.000000 0.000000 0.000000
    outer loop
      vertex 0.295000 -0.049000 0.000000
      vertex 0.295000 0.049000 0.000000
      vertex 0.295000 0.049000 0.018000
    endloop
  endfacet
  facet normal 1.000000 0.000000 0.000000
    outer loop
      vertex 0.295000 -0.049000 0.000000
      vertex 0.295000 0.049000 0.018000
      vertex 0.295000 -0.049000 0.018000
    endloop
  endfacet
endsolid biacore_drip_tray
