solid biacore_hotel_column
  facet normal 0.000000 0.000000 -1.000000
    outer loop
      vertex -0.110000 -0.307000 0.000000
      vertex 0.110000 0.307000 0.000000
      vertex 0.110000 -0.307000 0.000000
    endloop
  endfacet
  facet normal 0.000000 0.000000 -1.000000
    outer loop
      vertex -0.110000 -0.307000 0.000000
      vertex -0.110000 0.307000 0.000000
      vertex 0.110000 0.307000 0.000000
    endloop
  endfacet
  facet normal 0.000000 0.000000 1.000000
    outer loop
      vertex -0.110000 -0.307000 0.765000
      vertex 0.110000 -0.307000 0.765000
      vertex 0.110000 0.307000 0.765000
    endloop
  endfacet
  facet normal 0.000000 0.000000 1.000000
    outer loop
      vertex -0.110000 -0.307000 0.765000
      vertex 0.110000 0.307000 0.765000
      vertex -0.110000 0.307000 0.765000
    endloop
  endfacet
  facet normal 0.000000 -1.000000 0.000000
    outer loop
      vertex -0.110000 -0.307000 0.000000
      vertex 0.110000 -0.307000 0.000000
      vertex 0.110000 -0.307000 0.765000
    endloop
  endfacet
  facet normal 0.000000 -1.000000 0.000000
    outer loop
      vertex -0.110000 -0.307000 0.000000
      vertex 0.110000 -0.307000 0.765000
      vertex -0.110000 -0.307000 0.765000
    endloop
  endfacet
  facet normal 0.000000 1.000000 0.000000
    outer loop
      vertex -0.110000 0.307000 0.000000
      vertex -0.110000 0.307000 0.765000
      vertex 0.110000 0.307000 0.765000
    endloop
  endfacet
  facet normal 0.000000 1.000000 0.000000
    outer loop
      vertex -0.110000 0.307000 0.000000
      vertex 0.110000 0.307000 0.765000
      vertex 0.110000 0.307000 0.000000
    endloop
  endfacet
  facet normal -1.000000 0.000000 0.000000
    outer loop
      vertex -0.110000 -0.307000 0.000000
      vertex -0.110000 -0.307000 0.765000
      vertex -0.110000 0.307000 0.765000
    endloop
  endfacet
  facet normal -1.000000 0.000000 0.000000
    outer loop
      vertex -0.110000 -0.307000 0.000000
      vertex -0.110000 0.307000 0.765000
      vertex -0.110000 0.307000 0.000000
    endloop
  endfacet
  facet normal 1.000000 0.000000 0.000000
    outer loop
      vertex 0.110000 -0.307000 0.000000
      vertex 0.110000 0.307000 0.000000
      vertex 0.110000 0.307000 0.765000
    endloop
  endfacet
  facet normal 1.000000 0.000000 0.000000
    outer loop
      vertex 0.110000 -0.307000 0.000000
      vertex 0.110000 0.307000 0.765000
      vertex 0.110000 -0.307000 0.765000
    endloop
  endfacet
endsolid biacore_hotel_column
