solid biacore_main_chassis
  facet normal 0.000000 0.000000 -1.000000
    outer loop
      vertex -0.450000 -0.307000 0.000000
      vertex 0.450000 0.307000 0.000000
      vertex 0.450000 -0.307000 0.000000
    endloop
  endfacet
  facet normal 0.000000 0.000000 -1.000000
    outer loop
      vertex -0.450000 -0.307000 0.000000
      vertex -0.450000 0.307000 0.000000
      vertex 0.450000 0.307000 0.000000
    endloop
  endfacet
  facet normal 0.000000 0.000000 1.000000
    outer loop
      vertex -0.450000 -0.307000 0.435000
      vertex 0.450000 -0.307000 0.435000
      vertex 0.450000 0.307000 0.435000
    endloop
  endfacet
  facet normal 0.000000 0.000000 1.000000
    outer loop
      vertex -0.450000 -0.307000 0.435000
      vertex 0.450000 0.307000 0.435000
      vertex -0.450000 0.307000 0.435000
    endloop
  endfacet
  facet normal 0.000000 -1.000000 0.000000
    outer loop
      vertex -0.450000 -0.307000 0.000000
      vertex 0.450000 -0.307000 0.000000
      vertex 0.450000 -0.307000 0.435000
    endloop
  endfacet
  facet normal 0.000000 -1.000000 0.000000
    outer loop
      vertex -0.450000 -0.307000 0.000000
      vertex 0.450000 -0.307000 0.435000
      vertex -0.450000 -0.307000 0.435000
    endloop
  endfacet
  facet normal 0.000000 1.000000 0.000000
    outer loop
      vertex -0.450000 0.307000 0.000000
      vertex -0.450000 0.307000 0.435000
      vertex 0.450000 0.307000 0.435000
    endloop
  endfacet
  facet normal 0.000000 1.000000 0.000000
    outer loop
      vertex -0.450000 0.307000 0.000000
      vertex 0.450000 0.307000 0.435000
      vertex 0.450000 0.307000 0.000000
    endloop
  endfacet
  facet normal -1.000000 0.000000 0.000000
    outer loop
      vertex -0.450000 -0.307000 0.000000
      vertex -0.450000 -0.307000 0.435000
      vertex -0.450000 0.307000 0.435000
    endloop
  endfacet
  facet normal -1.000000 0.000000 0.000000
    outer loop
      vertex -0.450000 -0.307000 0.000000
      vertex -0.450000 0.307000 0.435000
      vertex -0.450000 0.307000 0.000000
    endloop
  endfacet
  facet normal 1.000000 0.000000 0.000000
    outer loop
      vertex 0.450000 -0.307000 0.000000
      vertex 0.450000 0.307000 0.000000
      vertex 0.450000 0.307000 0.435000
    endloop
  endfacet
  facet normal 1.000000 0.000000 0.000000
    outer loop
      vertex 0.450000 -0.307000 0.000000
      vertex 0.450000 0.307000 0.435000
      vertex 0.450000 -0.307000 0.435000
    endloop
  endfacet
endsolid biacore_main_chassis
