solid biacore_sample_window
  facet normal 0.000000 0.000000 -1.000000
    outer loop
      vertex -0.075000 -0.006000 0.000000
      vertex 0.075000 0.006000 0.000000
      vertex 0.075000 -0.006000 0.000000
    endloop
  endfacet
  facet normal 0.000000 0.000000 -1.000000
    outer loop
      vertex -0.075000 -0.006000 0.000000
      vertex -0.075000 0.006000 0.000000
      vertex 0.075000 0.006000 0.000000
    endloop
  endfacet
  facet normal 0.000000 0.000000 1.000000
    outer loop
      vertex -0.075000 -0.006000 0.070000
      vertex 0.075000 -0.006000 0.070000
      vertex 0.075000 0.006000 0.070000
    endloop
  endfacet
  facet normal 0.000000 0.000000 1.000000
    outer loop
      vertex -0.075000 -0.006000 0.070000
      vertex 0.075000 0.006000 0.070000
      vertex -0.075000 0.006000 0.070000
    endloop
  endfacet
  facet normal 0.000000 -1.000000 0.000000
    outer loop
      vertex -0.075000 -0.006000 0.000000
      vertex 0.075000 -0.006000 0.000000
      vertex 0.075000 -0.006000 0.070000
    endloop
  endfacet
  facet normal 0.000000 -1.000000 0.000000
    outer loop
      vertex -0.075000 -0.006000 0.000000
      vertex 0.075000 -0.006000 0.070000
      vertex -0.075000 -0.006000 0.070000
    endloop
  endfacet
  facet normal 0.000000 1.000000 0.000000
    outer loop
      vertex -0.075000 0.006000 0.000000
      vertex -0.075000 0.006000 0.070000
      vertex 0.075000 0.006000 0.070000
    endloop
  endfacet
  facet normal 0.000000 1.000000 0.000000
    outer loop
      vertex -0.075000 0.006000 0.000000
      vertex 0.075000 0.006000 0.070000
      vertex 0.075000 0.006000 0.000000
    endloop
  endfacet
  facet normal -1.000000 0.000000 0.000000
    outer loop
      vertex -0.075000 -0.006000 0.000000
      vertex -0.075000 -0.006000 0.070000
      vertex -0.075000 0.006000 0.070000
    endloop
  endfacet
  facet normal -1.000000 0.000000 0.000000
    outer loop
      vertex -0.075000 -0.006000 0.000000
      vertex -0.075000 0.006000 0.070000
      vertex -0.075000 0.006000 0.000000
    endloop
  endfacet
  facet normal 1.000000 0.000000 0.000000
    outer loop
      vertex 0.075000 -0.006000 0.000000
      vertex 0.075000 0.006000 0.000000
      vertex 0.075000 0.006000 0.070000
    endloop
  endfacet
  facet normal 1.000000 0.000000 0.000000
    outer loop
      vertex 0.075000 -0.006000 0.000000
      vertex 0.075000 0.006000 0.070000
      vertex 0.075000 -0.006000 0.070000
    endloop
  endfacet
endsolid biacore_sample_window
