solid biacore_upper_housing
  facet normal 0.000000 0.000000 -1.000000
    outer loop
      vertex -0.310000 -0.160000 0.000000
      vertex 0.310000 0.160000 0.000000
      vertex 0.310000 -0.160000 0.000000
    endloop
  endfacet
  facet normal 0.000000 0.000000 -1.000000
    outer loop
      vertex -0.310000 -0.160000 0.000000
      vertex -0.310000 0.160000 0.000000
      vertex 0.310000 0.160000 0.000000
    endloop
  endfacet
  facet normal 0.000000 0.000000 1.000000
    outer loop
      vertex -0.310000 -0.160000 0.250000
      vertex 0.310000 -0.160000 0.250000
      vertex 0.310000 0.160000 0.250000
    endloop
  endfacet
  facet normal 0.000000 0.000000 1.000000
    outer loop
      vertex -0.310000 -0.160000 0.250000
      vertex 0.310000 0.160000 0.250000
      vertex -0.310000 0.160000 0.250000
    endloop
  endfacet
  facet normal 0.000000 -1.000000 0.000000
    outer loop
      vertex -0.310000 -0.160000 0.000000
      vertex 0.310000 -0.160000 0.000000
      vertex 0.310000 -0.160000 0.250000
    endloop
  endfacet
  facet normal 0.000000 -1.000000 0.000000
    outer loop
      vertex -0.310000 -0.160000 0.000000
      vertex 0.310000 -0.160000 0.250000
      vertex -0.310000 -0.160000 0.250000
    endloop
  endfacet
  facet normal 0.000000 1.000000 0.000000
    outer loop
      vertex -0.310000 0.160000 0.000000
      vertex -0.310000 0.160000 0.250000
      vertex 0.310000 0.160000 0.250000
    endloop
  endfacet
  facet normal 0.000000 1.000000 0.000000
    outer loop
      vertex -0.310000 0.160000 0.000000
      vertex 0.310000 0.160000 0.250000
      vertex 0.310000 0.160000 0.000000
    endloop
  endfacet
  facet normal -1.000000 0.000000 0.000000
    outer loop
      vertex -0.310000 -0.160000 0.000000
      vertex -0.310000 -0.160000 0.250000
      vertex -0.310000 0.160000 0.250000
    endloop
  endfacet
  facet normal -1.000000 0.000000 0.000000
    outer loop
      vertex -0.310000 -0.160000 0.000000
      vertex -0.310000 0.160000 0.250000
      vertex -0.310000 0.160000 0.000000
    endloop
  endfacet
  facet normal 1.000000 0.000000 0.000000
    outer loop
      vertex 0.310000 -0.160000 0.000000
      vertex 0.310000 0.160000 0.000000
      vertex 0.310000 0.160000 0.250000
    endloop
  endfacet
  facet normal 1.000000 0.000000 0.000000
    outer loop
      vertex 0.310000 -0.160000 0.000000
      vertex 0.310000 0.160000 0.250000
      vertex 0.310000 -0.160000 0.250000
    endloop
  endfacet
endsolid biacore_upper_housing
