solid cabinet_body
  facet normal 0.000000 0.000000 -1.000000
    outer loop
      vertex -0.267500 -0.235000 0.000000
      vertex 0.267500 0.235000 0.000000
      vertex 0.267500 -0.235000 0.000000
    endloop
  endfacet
  facet normal 0.000000 0.000000 -1.000000
    outer loop
      vertex -0.267500 -0.235000 0.000000
      vertex -0.267500 0.235000 0.000000
      vertex 0.267500 0.235000 0.000000
    endloop
  endfacet
  facet normal 0.000000 0.000000 1.000000
    outer loop
      vertex -0.267500 -0.235000 0.630000
      vertex 0.267500 -0.235000 0.630000
      vertex 0.267500 0.235000 0.630000
    endloop
  endfacet
  facet normal 0.000000 0.000000 1.000000
    outer loop
      vertex -0.267500 -0.235000 0.630000
      vertex 0.267500 0.235000 0.630000
      vertex -0.267500 0.235000 0.630000
    endloop
  endfacet
  facet normal 0.000000 -1.000000 0.000000
    outer loop
      vertex -0.267500 -0.235000 0.000000
      vertex 0.267500 -0.235000 0.000000
      vertex 0.267500 -0.235000 0.630000
    endloop
  endfacet
  facet normal 0.000000 -1.000000 0.000000
    outer loop
      vertex -0.267500 -0.235000 0.000000
      vertex 0.267500 -0.235000 0.630000
      vertex -0.267500 -0.235000 0.630000
    endloop
  endfacet
  facet normal 0.000000 1.000000 0.000000
    outer loop
      vertex -0.267500 0.235000 0.000000
      vertex -0.267500 0.235000 0.630000
      vertex 0.267500 0.235000 0.630000
    endloop
  endfacet
  facet normal 0.000000 1.000000 0.000000
    outer loop
      vertex -0.267500 0.235000 0.000000
      vertex 0.267500 0.235000 0.630000
      vertex 0.267500 0.235000 0.000000
    endloop
  endfacet
  facet normal -1.000000 0.000000 0.000000
    outer loop
      vertex -0.267500 -0.235000 0.000000
      vertex -0.267500 -0.235000 0.630000
      vertex -0.267500 0.235000 0.630000
    endloop
  endfacet
  facet normal -1.000000 0.000000 0.000000
    outer loop
      vertex -0.267500 -0.235000 0.000000
      vertex -0.267500 0.235000 0.630000
      vertex -0.267500 0.235000 0.000000
    endloop
  endfacet
  facet normal 1.000000 0.000000 0.000000
    outer loop
      vertex 0.267500 -0.235000 0.000000
      vertex 0.267500 0.235000 0.000000
      vertex 0.267500 0.235000 0.630000
    endloop
  endfacet
  facet normal 1.000000 0.000000 0.000000
    outer loop
      vertex 0.267500 -0.235000 0.000000
      vertex 0.267500 0.235000 0.630000
      vertex 0.267500 -0.235000 0.630000
    endloop
  endfacet
endsolid cabinet_body
