solid control_panel
  facet normal 0.000000 0.000000 -1.000000
    outer loop
      vertex -0.045000 -0.020000 0.000000
      vertex 0.045000 0.020000 0.000000
      vertex 0.045000 -0.020000 0.000000
    endloop
  endfacet
  facet normal 0.000000 0.000000 -1.000000
    outer loop
      vertex -0.045000 -0.020000 0.000000
      vertex -0.045000 0.020000 0.000000
      vertex 0.045000 0.020000 0.000000
    endloop
  endfacet
  facet normal 0.000000 0.000000 1.000000
    outer loop
      vertex -0.045000 -0.020000 0.120000
      vertex 0.045000 -0.020000 0.120000
      vertex 0.045000 0.020000 0.120000
    endloop
  endfacet
  facet normal 0.000000 0.000000 1.000000
    outer loop
      vertex -0.045000 -0.020000 0.120000
      vertex 0.045000 0.020000 0.120000
      vertex -0.045000 0.020000 0.120000
    endloop
  endfacet
  facet normal 0.000000 -1.000000 0.000000
    outer loop
      vertex -0.045000 -0.020000 0.000000
      vertex 0.045000 -0.020000 0.000000
      vertex 0.045000 -0.020000 0.120000
    endloop
  endfacet
  facet normal 0.000000 -1.000000 0.000000
    outer loop
      vertex -0.045000 -0.020000 0.000000
      vertex 0.045000 -0.020000 0.120000
      vertex -0.045000 -0.020000 0.120000
    endloop
  endfacet
  facet normal 0.000000 1.000000 0.000000
    outer loop
      vertex -0.045000 0.020000 0.000000
      vertex -0.045000 0.020000 0.120000
      vertex 0.045000 0.020000 0.120000
    endloop
  endfacet
  facet normal 0.000000 1.000000 0.000000
    outer loop
      vertex -0.045000 0.020000 0.000000
      vertex 0.045000 0.020000 0.120000
      vertex 0.045000 0.020000 0.000000
    endloop
  endfacet
  facet normal -1.000000 0.000000 0.000000
    outer loop
      vertex -0.045000 -0.020000 0.000000
      vertex -0.045000 -0.020000 0.120000
      vertex -0.045000 0.020000 0.120000
    endloop
  endfacet
  facet normal -1.000000 0.000000 0.000000
    outer loop
      vertex -0.045000 -0.020000 0.000000
      vertex -0.045000 0.020000 0.120000
      vertex -0.045000 0.020000 0.000000
    endloop
  endfacet
  facet normal 1.000000 0.000000 0.000000
    outer loop
      vertex 0.045000 -0.020000 0.000000
      vertex 0.045000 0.020000 0.000000
      vertex 0.045000 0.020000 0.120000
    endloop
  endfacet
  facet normal 1.000000 0.000000 0.000000
    outer loop
      vertex 0.045000 -0.020000 0.000000
      vertex 0.045000 0.020000 0.120000
      vertex 0.045000 -0.020000 0.120000
    endloop
  endfacet
endsolid control_panel
