solid front_fluidics_panel
  facet normal 0.000000 0.000000 -1.000000
    outer loop
      vertex -0.157500 -0.015000 0.000000
      vertex 0.157500 0.015000 0.000000
      vertex 0.157500 -0.015000 0.000000
    endloop
  endfacet
  facet normal 0.000000 0.000000 -1.000000
    outer loop
      vertex -0.157500 -0.015000 0.000000
      vertex -0.157500 0.015000 0.000000
      vertex 0.157500 0.015000 0.000000
    endloop
  endfacet
  facet normal 0.000000 0.000000 1.000000
    outer loop
      vertex -0.157500 -0.015000 0.220000
      vertex 0.157500 -0.015000 0.220000
      vertex 0.157500 0.015000 0.220000
    endloop
  endfacet
  facet normal 0.000000 0.000000 1.000000
    outer loop
      vertex -0.157500 -0.015000 0.220000
      vertex 0.157500 0.015000 0.220000
      vertex -0.157500 0.015000 0.220000
    endloop
  endfacet
  facet normal 0.000000 -1.000000 0.000000
    outer loop
      vertex -0.157500 -0.015000 0.000000
      vertex 0.157500 -0.015000 0.000000
      vertex 0.157500 -0.015000 0.220000
    endloop
  endfacet
  facet normal 0.000000 -1.000000 0.000000
    outer loop
      vertex -0.157500 -0.015000 0.000000
      vertex 0.157500 -0.015000 0.220000
      vertex -0.157500 -0.015000 0.220000
    endloop
  endfacet
  facet normal 0.000000 1.000000 0.000000
    outer loop
      vertex -0.157500 0.015000 0.000000
      vertex -0.157500 0.015000 0.220000
      vertex 0.157500 0.015000 0.220000
    endloop
  endfacet
  facet normal 0.000000 1.000000 0.000000
    outer loop
      vertex -0.157500 0.015000 0.000000
      vertex 0.157500 0.015000 0.220000
      vertex 0.157500 0.015000 0.000000
    endloop
  endfacet
  facet normal -1.000000 0.000000 0.000000
    outer loop
      vertex -0.157500 -0.015000 0.000000
      vertex -0.157500 -0.015000 0.220000
      vertex -0.157500 0.015000 0.220000
    endloop
  endfacet
  facet normal -1.000000 0.000000 0.000000
    outer loop
      vertex -0.157500 -0.015000 0.000000
      vertex -0.157500 0.015000 0.220000
      vertex -0.157500 0.015000 0.000000
    endloop
  endfacet
  facet normal 1.000000 0.000000 0.000000
    outer loop
      vertex 0.157500 -0.015000 0.000000
      vertex 0.157500 0.015000 0.000000
      vertex 0.157500 0.015000 0.220000
    endloop
  endfacet
  facet normal 1.000000 0.000000 0.000000
    outer loop
      vertex 0.157500 -0.015000 0.000000
      vertex 0.157500 0.015000 0.220000
      vertex 0.157500 -0.015000 0.220000
    endloop
  endfacet
endsolid front_fluidics_panel
