solid top_rail_deck
  facet normal 0.000000 0.000000 -1.000000
    outer loop
      vertex -0.227500 -0.180000 0.000000
      vertex 0.227500 0.180000 0.000000
      vertex 0.227500 -0.180000 0.000000
    endloop
  endfacet
  facet normal 0.000000 0.000000 -1.000000
    outer loop
      vertex -0.227500 -0.180000 0.000000
      vertex -0.227500 0.180000 0.000000
      vertex 0.227500 0.180000 0.000000
    endloop
  endfacet
  facet normal 0.000000 0.000000 1.000000
    outer loop
      vertex -0.227500 -0.180000 0.020000
      vertex 0.227500 -0.180000 0.020000
      vertex 0.227500 0.180000 0.020000
    endloop
  endfacet
  facet normal 0.000000 0.000000 1.000000
    outer loop
      vertex -0.227500 -0.180000 0.020000
      vertex 0.227500 0.180000 0.020000
      vertex -0.227500 0.180000 0.020000
    endloop
  endfacet
  facet normal 0.000000 -1.000000 0.000000
    outer loop
      vertex -0.227500 -0.180000 0.000000
      vertex 0.227500 -0.180000 0.000000
      vertex 0.227500 -0.180000 0.020000
    endloop
  endfacet
  facet normal 0.000000 -1.000000 0.000000
    outer loop
      vertex -0.227500 -0.180000 0.000000
      vertex 0.227500 -0.180000 0.020000
      vertex -0.227500 -0.180000 0.020000
    endloop
  endfacet
  facet normal 0.000000 1.000000 0.000000
    outer loop
      vertex -0.227500 0.180000 0.000000
      vertex -0.227500 0.180000 0.020000
      vertex 0.227500 0.180000 0.020000
    endloop
  endfacet
  facet normal 0.000000 1.000000 0.000000
    outer loop
      vertex -0.227500 0.180000 0.000000
      vertex 0.227500 0.180000 0.020000
      vertex 0.227500 0.180000 0.000000
    endloop
  endfacet
  facet normal -1.000000 0.000000 0.000000
    outer loop
      vertex -0.227500 -0.180000 0.000000
      vertex -0.227500 -0.180000 0.020000
      vertex -0.227500 0.180000 0.020000
    endloop
  endfacet
  facet normal -1.000000 0.000000 0.000000
    outer loop
      vertex -0.227500 -0.180000 0.000000
      vertex -0.227500 0.180000 0.020000
      vertex -0.227500 0.180000 0.000000
    endloop
  endfacet
  facet normal 1.000000 0.000000 0.000000
    outer loop
      vertex 0.227500 -0.180000 0.000000
      vertex 0.227500 0.180000 0.000000
      vertex 0.227500 0.180000 0.020000
    endloop
  endfacet
  facet normal 1.000000 0.000000 0.000000
    outer loop
      vertex 0.227500 -0.180000 0.000000
      vertex 0.227500 0.180000 0.020000
      vertex 0.227500 -0.180000 0.020000
    endloop
  endfacet
endsolid top_rail_deck
