solid incubator_door_handle
  facet normal 0.000000 0.000000 -1.000000
    outer loop
      vertex -0.025000 -0.026000 0.000000
      vertex 0.025000 0.026000 0.000000
      vertex 0.025000 -0.026000 0.000000
    endloop
  endfacet
  facet normal 0.000000 0.000000 -1.000000
    outer loop
      vertex -0.025000 -0.026000 0.000000
      vertex -0.025000 0.026000 0.000000
      vertex 0.025000 0.026000 0.000000
    endloop
  endfacet
  facet normal 0.000000 0.000000 1.000000
    outer loop
      vertex -0.025000 -0.026000 0.800000
      vertex 0.025000 -0.026000 0.800000
      vertex 0.025000 0.026000 0.800000
    endloop
  endfacet
  facet normal 0.000000 0.000000 1.000000
    outer loop
      vertex -0.025000 -0.026000 0.800000
      vertex 0.025000 0.026000 0.800000
      vertex -0.025000 0.026000 0.800000
    endloop
  endfacet
  facet normal 0.000000 -1.000000 0.000000
    outer loop
      vertex -0.025000 -0.026000 0.000000
      vertex 0.025000 -0.026000 0.000000
      vertex 0.025000 -0.026000 0.800000
    endloop
  endfacet
  facet normal 0.000000 -1.000000 0.000000
    outer loop
      vertex -0.025000 -0.026000 0.000000
      vertex 0.025000 -0.026000 0.800000
      vertex -0.025000 -0.026000 0.800000
    endloop
  endfacet
  facet normal 0.000000 1.000000 0.000000
    outer loop
      vertex -0.025000 0.026000 0.000000
      vertex -0.025000 0.026000 0.800000
      vertex 0.025000 0.026000 0.800000
    endloop
  endfacet
  facet normal 0.000000 1.000000 0.000000
    outer loop
      vertex -0.025000 0.026000 0.000000
      vertex 0.025000 0.026000 0.800000
      vertex 0.025000 0.026000 0.000000
    endloop
  endfacet
  facet normal -1.000000 0.000000 0.000000
    outer loop
      vertex -0.025000 -0.026000 0.000000
      vertex -0.025000 -0.026000 0.800000
      vertex -0.025000 0.026000 0.800000
    endloop
  endfacet
  facet normal -1.000000 0.000000 0.000000
    outer loop
      vertex -0.025000 -0.026000 0.000000
      vertex -0.025000 0.026000 0.800000
      vertex -0.025000 0.026000 0.000000
    endloop
  endfacet
  facet normal 1.000000 0.000000 0.000000
    outer loop
      vertex 0.025000 -0.026000 0.000000
      vertex 0.025000 0.026000 0.000000
      vertex 0.025000 0.026000 0.800000
    endloop
  endfacet
  facet normal 1.000000 0.000000 0.000000
    outer loop
      vertex 0.025000 -0.026000 0.000000
      vertex 0.025000 0.026000 0.800000
      vertex 0.025000 -0.026000 0.800000
    endloop
  endfacet
endsolid incubator_door_handle
