solid incubator_robotic_gate_bezel
  facet normal 0.000000 0.000000 -1.000000
    outer loop
      vertex -0.144000 -0.030000 0.000000
      vertex 0.144000 0.030000 0.000000
      vertex 0.144000 -0.030000 0.000000
    endloop
  endfacet
  facet normal 0.000000 0.000000 -1.000000
    outer loop
      vertex -0.144000 -0.030000 0.000000
      vertex -0.144000 0.030000 0.000000
      vertex 0.144000 0.030000 0.000000
    endloop
  endfacet
  facet normal 0.000000 0.000000 1.000000
    outer loop
      vertex -0.144000 -0.030000 0.110000
      vertex 0.144000 -0.030000 0.110000
      vertex 0.144000 0.030000 0.110000
    endloop
  endfacet
  facet normal 0.000000 0.000000 1.000000
    outer loop
      vertex -0.144000 -0.030000 0.110000
      vertex 0.144000 0.030000 0.110000
      vertex -0.144000 0.030000 0.110000
    endloop
  endfacet
  facet normal 0.000000 -1.000000 0.000000
    outer loop
      vertex -0.144000 -0.030000 0.000000
      vertex 0.144000 -0.030000 0.000000
      vertex 0.144000 -0.030000 0.110000
    endloop
  endfacet
  facet normal 0.000000 -1.000000 0.000000
    outer loop
      vertex -0.144000 -0.030000 0.000000
      vertex 0.144000 -0.030000 0.110000
      vertex -0.144000 -0.030000 0.110000
    endloop
  endfacet
  facet normal 0.000000 1.000000 0.000000
    outer loop
      vertex -0.144000 0.030000 0.000000
      vertex -0.144000 0.030000 0.110000
      vertex 0.144000 0.030000 0.110000
    endloop
  endfacet
  facet normal 0.000000 1.000000 0.000000
    outer loop
      vertex -0.144000 0.030000 0.000000
      vertex 0.144000 0.030000 0.110000
      vertex 0.144000 0.030000 0.000000
    endloop
  endfacet
  facet normal -1.000000 0.000000 0.000000
    outer loop
      vertex -0.144000 -0.030000 0.000000
      vertex -0.144000 -0.030000 0.110000
      vertex -0.144000 0.030000 0.110000
    endloop
  endfacet
  facet normal -1.000000 0.000000 0.000000
    outer loop
      vertex -0.144000 -0.030000 0.000000
      vertex -0.144000 0.030000 0.110000
      vertex -0.144000 0.030000 0.000000
    endloop
  endfacet
  facet normal 1.000000 0.000000 0.000000
    outer loop
      vertex 0.144000 -0.030000 0.000000
      vertex 0.144000 0.030000 0.000000
      vertex 0.144000 0.030000 0.110000
    endloop
  endfacet
  facet normal 1.000000 0.000000 0.000000
    outer loop
      vertex 0.144000 -0.030000 0.000000
      vertex 0.144000 0.030000 0.110000
      vertex 0.144000 -0.030000 0.110000
    endloop
  endfacet
endsolid incubator_robotic_gate_bezel
