solid cytomat_cabinet_body
  facet normal 0.000000 0.000000 -1.000000
    outer loop
      vertex -0.286000 -0.255500 0.000000
      vertex 0.286000 0.255500 0.000000
      vertex 0.286000 -0.255500 0.000000
    endloop
  endfacet
  facet normal 0.000000 0.000000 -1.000000
    outer loop
      vertex -0.286000 -0.255500 0.000000
      vertex -0.286000 0.255500 0.000000
      vertex 0.286000 0.255500 0.000000
    endloop
  endfacet
  facet normal 0.000000 0.000000 1.000000
    outer loop
      vertex -0.286000 -0.255500 0.905000
      vertex 0.286000 -0.255500 0.905000
      vertex 0.286000 0.255500 0.905000
    endloop
  endfacet
  facet normal 0.000000 0.000000 1.000000
    outer loop
      vertex -0.286000 -0.255500 0.905000
      vertex 0.286000 0.255500 0.905000
      vertex -0.286000 0.255500 0.905000
    endloop
  endfacet
  facet normal 0.000000 -1.000000 0.000000
    outer loop
      vertex -0.286000 -0.255500 0.000000
      vertex 0.286000 -0.255500 0.000000
      vertex 0.286000 -0.255500 0.905000
    endloop
  endfacet
  facet normal 0.000000 -1.000000 0.000000
    outer loop
      vertex -0.286000 -0.255500 0.000000
      vertex 0.286000 -0.255500 0.905000
      vertex -0.286000 -0.255500 0.905000
    endloop
  endfacet
  facet normal 0.000000 1.000000 0.000000
    outer loop
      vertex -0.286000 0.255500 0.000000
      vertex -0.286000 0.255500 0.905000
      vertex 0.286000 0.255500 0.905000
    endloop
  endfacet
  facet normal 0.000000 1.000000 0.000000
    outer loop
      vertex -0.286000 0.255500 0.000000
      vertex 0.286000 0.255500 0.905000
      vertex 0.286000 0.255500 0.000000
    endloop
  endfacet
  facet normal -1.000000 0.000000 0.000000
    outer loop
      vertex -0.286000 -0.255500 0.000000
      vertex -0.286000 -0.255500 0.905000
      vertex -0.286000 0.255500 0.905000
    endloop
  endfacet
  facet normal -1.000000 0.000000 0.000000
    outer loop
      vertex -0.286000 -0.255500 0.000000
      vertex -0.286000 0.255500 0.905000
      vertex -0.286000 0.255500 0.000000
    endloop
  endfacet
  facet normal 1.000000 0.000000 0.000000
    outer loop
      vertex 0.286000 -0.255500 0.000000
      vertex 0.286000 0.255500 0.000000
      vertex 0.286000 0.255500 0.905000
    endloop
  endfacet
  facet normal 1.000000 0.000000 0.000000
    outer loop
      vertex 0.286000 -0.255500 0.000000
      vertex 0.286000 0.255500 0.905000
      vertex 0.286000 -0.255500 0.905000
    endloop
  endfacet
endsolid cytomat_cabinet_body
