solid cytomat_control_panel
  facet normal 0.000000 0.000000 -1.000000
    outer loop
      vertex -0.067500 -0.020000 0.000000
      vertex 0.067500 0.020000 0.000000
      vertex 0.067500 -0.020000 0.000000
    endloop
  endfacet
  facet normal 0.000000 0.000000 -1.000000
    outer loop
      vertex -0.067500 -0.020000 0.000000
      vertex -0.067500 0.020000 0.000000
      vertex 0.067500 0.020000 0.000000
    endloop
  endfacet
  facet normal 0.000000 0.000000 1.000000
    outer loop
      vertex -0.067500 -0.020000 0.085000
      vertex 0.067500 -0.020000 0.085000
      vertex 0.067500 0.020000 0.085000
    endloop
  endfacet
  facet normal 0.000000 0.000000 1.000000
    outer loop
      vertex -0.067500 -0.020000 0.085000
      vertex 0.067500 0.020000 0.085000
      vertex -0.067500 0.020000 0.085000
    endloop
  endfacet
  facet normal 0.000000 -1.000000 0.000000
    outer loop
      vertex -0.067500 -0.020000 0.000000
      vertex 0.067500 -0.020000 0.000000
      vertex 0.067500 -0.020000 0.085000
    endloop
  endfacet
  facet normal 0.000000 -1.000000 0.000000
    outer loop
      vertex -0.067500 -0.020000 0.000000
      vertex 0.067500 -0.020000 0.085000
      vertex -0.067500 -0.020000 0.085000
    endloop
  endfacet
  facet normal 0.000000 1.000000 0.000000
    outer loop
      vertex -0.067500 0.020000 0.000000
      vertex -0.067500 0.020000 0.085000
      vertex 0.067500 0.020000 0.085000
    endloop
  endfacet
  facet normal 0.000000 1.000000 0.000000
    outer loop
      vertex -0.067500 0.020000 0.000000
      vertex 0.067500 0.020000 0.085000
      vertex 0.067500 0.020000 0.000000
    endloop
  endfacet
  facet normal -1.000000 0.000000 0.000000
    outer loop
      vertex -0.067500 -0.020000 0.000000
      vertex -0.067500 -0.020000 0.085000
      vertex -0.067500 0.020000 0.085000
    endloop
  endfacet
  facet normal -1.000000 0.000000 0.000000
    outer loop
      vertex -0.067500 -0.020000 0.000000
      vertex -0.067500 0.020000 0.085000
      vertex -0.067500 0.020000 0.000000
    endloop
  endfacet
  facet normal 1.000000 0.000000 0.000000
    outer loop
      vertex 0.067500 -0.020000 0.000000
      vertex 0.067500 0.020000 0.000000
      vertex 0.067500 0.020000 0.085000
    endloop
  endfacet
  facet normal 1.000000 0.000000 0.000000
    outer loop
      vertex 0.067500 -0.020000 0.000000
      vertex 0.067500 0.020000 0.085000
      vertex 0.067500 -0.020000 0.085000
    endloop
  endfacet
endsolid cytomat_control_panel
