solid cytomat_loading_tray
  facet normal 0.000000 0.000000 -1.000000
    outer loop
      vertex -0.072500 -0.085000 0.000000
      vertex 0.072500 0.085000 0.000000
      vertex 0.072500 -0.085000 0.000000
    endloop
  endfacet
  facet normal 0.000000 0.000000 -1.000000
    outer loop
      vertex -0.072500 -0.085000 0.000000
      vertex -0.072500 0.085000 0.000000
      vertex 0.072500 0.085000 0.000000
    endloop
  endfacet
  facet normal 0.000000 0.000000 1.000000
    outer loop
      vertex -0.072500 -0.085000 0.012000
      vertex 0.072500 -0.085000 0.012000
      vertex 0.072500 0.085000 0.012000
    endloop
  endfacet
  facet normal 0.000000 0.000000 1.000000
    outer loop
      vertex -0.072500 -0.085000 0.012000
      vertex 0.072500 0.085000 0.012000
      vertex -0.072500 0.085000 0.012000
    endloop
  endfacet
  facet normal 0.000000 -1.000000 0.000000
    outer loop
      vertex -0.072500 -0.085000 0.000000
      vertex 0.072500 -0.085000 0.000000
      vertex 0.072500 -0.085000 0.012000
    endloop
  endfacet
  facet normal 0.000000 -1.000000 0.000000
    outer loop
      vertex -0.072500 -0.085000 0.000000
      vertex 0.072500 -0.085000 0.012000
      vertex -0.072500 -0.085000 0.012000
    endloop
  endfacet
  facet normal 0.000000 1.000000 0.000000
    outer loop
      vertex -0.072500 0.085000 0.000000
      vertex -0.072500 0.085000 0.012000
      vertex 0.072500 0.085000 0.012000
    endloop
  endfacet
  facet normal 0.000000 1.000000 0.000000
    outer loop
      vertex -0.072500 0.085000 0.000000
      vertex 0.072500 0.085000 0.012000
      vertex 0.072500 0.085000 0.000000
    endloop
  endfacet
  facet normal -1.000000 0.000000 0.000000
    outer loop
      vertex -0.072500 -0.085000 0.000000
      vertex -0.072500 -0.085000 0.012000
      vertex -0.072500 0.085000 0.012000
    endloop
  endfacet
  facet normal -1.000000 0.000000 0.000000
    outer loop
      vertex -0.072500 -0.085000 0.000000
      vertex -0.072500 0.085000 0.012000
      vertex -0.072500 0.085000 0.000000
    endloop
  endfacet
  facet normal 1.000000 0.000000 0.000000
    outer loop
      vertex 0.072500 -0.085000 0.000000
      vertex 0.072500 0.085000 0.000000
      vertex 0.072500 0.085000 0.012000
    endloop
  endfacet
  facet normal 1.000000 0.000000 0.000000
    outer loop
      vertex 0.072500 -0.085000 0.000000
      vertex 0.072500 0.085000 0.012000
      vertex 0.072500 -0.085000 0.012000
    endloop
  endfacet
endsolid cytomat_loading_tray
