solid cytomat_transfer_opening_module
  facet normal 0.000000 0.000000 -1.000000
    outer loop
      vertex -0.145000 -0.040000 0.000000
      vertex 0.145000 0.040000 0.000000
      vertex 0.145000 -0.040000 0.000000
    endloop
  endfacet
  facet normal 0.000000 0.000000 -1.000000
    outer loop
      vertex -0.145000 -0.040000 0.000000
      vertex -0.145000 0.040000 0.000000
      vertex 0.145000 0.040000 0.000000
    endloop
  endfacet
  facet normal 0.000000 0.000000 1.000000
    outer loop
      vertex -0.145000 -0.040000 0.130000
      vertex 0.145000 -0.040000 0.130000
      vertex 0.145000 0.040000 0.130000
    endloop
  endfacet
  facet normal 0.000000 0.000000 1.000000
    outer loop
      vertex -0.145000 -0.040000 0.130000
      vertex 0.145000 0.040000 0.130000
      vertex -0.145000 0.040000 0.130000
    endloop
  endfacet
  facet normal 0.000000 -1.000000 0.000000
    outer loop
      vertex -0.145000 -0.040000 0.000000
      vertex 0.145000 -0.040000 0.000000
      vertex 0.145000 -0.040000 0.130000
    endloop
  endfacet
  facet normal 0.000000 -1.000000 0.000000
    outer loop
      vertex -0.145000 -0.040000 0.000000
      vertex 0.145000 -0.040000 0.130000
      vertex -0.145000 -0.040000 0.130000
    endloop
  endfacet
  facet normal 0.000000 1.000000 0.000000
    outer loop
      vertex -0.145000 0.040000 0.000000
      vertex -0.145000 0.040000 0.130000
      vertex 0.145000 0.040000 0.130000
    endloop
  endfacet
  facet normal 0.000000 1.000000 0.000000
    outer loop
      vertex -0.145000 0.040000 0.000000
      vertex 0.145000 0.040000 0.130000
      vertex 0.145000 0.040000 0.000000
    endloop
  endfacet
  facet normal -1.000000 0.000000 0.000000
    outer loop
      vertex -0.145000 -0.040000 0.000000
      vertex -0.145000 -0.040000 0.130000
      vertex -0.145000 0.040000 0.130000
    endloop
  endfacet
  facet normal -1.000000 0.000000 0.000000
    outer loop
      vertex -0.145000 -0.040000 0.000000
      vertex -0.145000 0.040000 0.130000
      vertex -0.145000 0.040000 0.000000
    endloop
  endfacet
  facet normal 1.000000 0.000000 0.000000
    outer loop
      vertex 0.145000 -0.040000 0.000000
      vertex 0.145000 0.040000 0.000000
      vertex 0.145000 0.040000 0.130000
    endloop
  endfacet
  facet normal 1.000000 0.000000 0.000000
    outer loop
      vertex 0.145000 -0.040000 0.000000
      vertex 0.145000 0.040000 0.130000
      vertex 0.145000 -0.040000 0.130000
    endloop
  endfacet
endsolid cytomat_transfer_opening_module
