solid plate_reader_tray
  facet normal 0.000000 0.000000 -1.000000
    outer loop
      vertex -0.068000 -0.046500 0.000000
      vertex 0.068000 0.046500 0.000000
      vertex 0.068000 -0.046500 0.000000
    endloop
  endfacet
  facet normal 0.000000 0.000000 -1.000000
    outer loop
      vertex -0.068000 -0.046500 0.000000
      vertex -0.068000 0.046500 0.000000
      vertex 0.068000 0.046500 0.000000
    endloop
  endfacet
  facet normal 0.000000 0.000000 1.000000
    outer loop
      vertex -0.068000 -0.046500 0.010000
      vertex 0.068000 -0.046500 0.010000
      vertex 0.068000 0.046500 0.010000
    endloop
  endfacet
  facet normal 0.000000 0.000000 1.000000
    outer loop
      vertex -0.068000 -0.046500 0.010000
      vertex 0.068000 0.046500 0.010000
      vertex -0.068000 0.046500 0.010000
    endloop
  endfacet
  facet normal 0.000000 -1.000000 0.000000
    outer loop
      vertex -0.068000 -0.046500 0.000000
      vertex 0.068000 -0.046500 0.000000
      vertex 0.068000 -0.046500 0.010000
    endloop
  endfacet
  facet normal 0.000000 -1.000000 0.000000
    outer loop
      vertex -0.068000 -0.046500 0.000000
      vertex 0.068000 -0.046500 0.010000
      vertex -0.068000 -0.046500 0.010000
    endloop
  endfacet
  facet normal 0.000000 1.000000 0.000000
    outer loop
      vertex -0.068000 0.046500 0.000000
      vertex -0.068000 0.046500 0.010000
      vertex 0.068000 0.046500 0.010000
    endloop
  endfacet
  facet normal 0.000000 1.000000 0.000000
    outer loop
      vertex -0.068000 0.046500 0.000000
      vertex 0.068000 0.046500 0.010000
      vertex 0.068000 0.046500 0.000000
    endloop
  endfacet
  facet normal -1.000000 0.000000 0.000000
    outer loop
      vertex -0.068000 -0.046500 0.000000
      vertex -0.068000 -0.046500 0.010000
      vertex -0.068000 0.046500 0.010000
    endloop
  endfacet
  facet normal -1.000000 0.000000 0.000000
    outer loop
      vertex -0.068000 -0.046500 0.000000
      vertex -0.068000 0.046500 0.010000
      vertex -0.068000 0.046500 0.000000
    endloop
  endfacet
  facet normal 1.000000 0.000000 0.000000
    outer loop
      vertex 0.068000 -0.046500 0.000000
      vertex 0.068000 0.046500 0.000000
      vertex 0.068000 0.046500 0.010000
    endloop
  endfacet
  facet normal 1.000000 0.000000 0.000000
    outer loop
      vertex 0.068000 -0.046500 0.000000
      vertex 0.068000 0.046500 0.010000
      vertex 0.068000 -0.046500 0.010000
    endloop
  endfacet
endsolid plate_reader_tray
