solid sealer_top_roll_cover
  facet normal 0.000000 0.000000 -1.000000
    outer loop
      vertex -0.055000 -0.075000 0.000000
      vertex 0.055000 0.075000 0.000000
      vertex 0.055000 -0.075000 0.000000
    endloop
  endfacet
  facet normal 0.000000 0.000000 -1.000000
    outer loop
      vertex -0.055000 -0.075000 0.000000
      vertex -0.055000 0.075000 0.000000
      vertex 0.055000 0.075000 0.000000
    endloop
  endfacet
  facet normal 0.000000 0.000000 1.000000
    outer loop
      vertex -0.055000 -0.075000 0.048000
      vertex 0.055000 -0.075000 0.048000
      vertex 0.055000 0.075000 0.048000
    endloop
  endfacet
  facet normal 0.000000 0.000000 1.000000
    outer loop
      vertex -0.055000 -0.075000 0.048000
      vertex 0.055000 0.075000 0.048000
      vertex -0.055000 0.075000 0.048000
    endloop
  endfacet
  facet normal 0.000000 -1.000000 0.000000
    outer loop
      vertex -0.055000 -0.075000 0.000000
      vertex 0.055000 -0.075000 0.000000
      vertex 0.055000 -0.075000 0.048000
    endloop
  endfacet
  facet normal 0.000000 -1.000000 0.000000
    outer loop
      vertex -0.055000 -0.075000 0.000000
      vertex 0.055000 -0.075000 0.048000
      vertex -0.055000 -0.075000 0.048000
    endloop
  endfacet
  facet normal 0.000000 1.000000 0.000000
    outer loop
      vertex -0.055000 0.075000 0.000000
      vertex -0.055000 0.075000 0.048000
      vertex 0.055000 0.075000 0.048000
    endloop
  endfacet
  facet normal 0.000000 1.000000 0.000000
    outer loop
      vertex -0.055000 0.075000 0.000000
      vertex 0.055000 0.075000 0.048000
      vertex 0.055000 0.075000 0.000000
    endloop
  endfacet
  facet normal -1.000000 0.000000 0.000000
    outer loop
      vertex -0.055000 -0.075000 0.000000
      vertex -0.055000 -0.075000 0.048000
      vertex -0.055000 0.075000 0.048000
    endloop
  endfacet
  facet normal -1.000000 0.000000 0.000000
    outer loop
      vertex -0.055000 -0.075000 0.000000
      vertex -0.055000 0.075000 0.048000
      vertex -0.055000 0.075000 0.000000
    endloop
  endfacet
  facet normal 1.000000 0.000000 0.000000
    outer loop
      vertex 0.055000 -0.075000 0.000000
      vertex 0.055000 0.075000 0.000000
      vertex 0.055000 0.075000 0.048000
    endloop
  endfacet
  facet normal 1.000000 0.000000 0.000000
    outer loop
      vertex 0.055000 -0.075000 0.000000
      vertex 0.055000 0.075000 0.048000
      vertex 0.055000 -0.075000 0.048000
    endloop
  endfacet
endsolid sealer_top_roll_cover
