solid sealer_tray_platform
  facet normal 0.000000 0.000000 -1.000000
    outer loop
      vertex -0.073000 -0.093000 0.000000
      vertex 0.073000 0.093000 0.000000
      vertex 0.073000 -0.093000 0.000000
    endloop
  endfacet
  facet normal 0.000000 0.000000 -1.000000
    outer loop
      vertex -0.073000 -0.093000 0.000000
      vertex -0.073000 0.093000 0.000000
      vertex 0.073000 0.093000 0.000000
    endloop
  endfacet
  facet normal 0.000000 0.000000 1.000000
    outer loop
      vertex -0.073000 -0.093000 0.012000
      vertex 0.073000 -0.093000 0.012000
      vertex 0.073000 0.093000 0.012000
    endloop
  endfacet
  facet normal 0.000000 0.000000 1.000000
    outer loop
      vertex -0.073000 -0.093000 0.012000
      vertex 0.073000 0.093000 0.012000
      vertex -0.073000 0.093000 0.012000
    endloop
  endfacet
  facet normal 0.000000 -1.000000 0.000000
    outer loop
      vertex -0.073000 -0.093000 0.000000
      vertex 0.073000 -0.093000 0.000000
      vertex 0.073000 -0.093000 0.012000
    endloop
  endfacet
  facet normal 0.000000 -1.000000 0.000000
    outer loop
      vertex -0.073000 -0.093000 0.000000
      vertex 0.073000 -0.093000 0.012000
      vertex -0.073000 -0.093000 0.012000
    endloop
  endfacet
  facet normal 0.000000 1.000000 0.000000
    outer loop
      vertex -0.073000 0.093000 0.000000
      vertex -0.073000 0.093000 0.012000
      vertex 0.073000 0.093000 0.012000
    endloop
  endfacet
  facet normal 0.000000 1.000000 0.000000
    outer loop
      vertex -0.073000 0.093000 0.000000
      vertex 0.073000 0.093000 0.012000
      vertex 0.073000 0.093000 0.000000
    endloop
  endfacet
  facet normal -1.000000 0.000000 0.000000
    outer loop
      vertex -0.073000 -0.093000 0.000000
      vertex -0.073000 -0.093000 0.012000
      vertex -0.073000 0.093000 0.012000
    endloop
  endfacet
  facet normal -1.000000 0.000000 0.000000
    outer loop
      vertex -0.073000 -0.093000 0.000000
      vertex -0.073000 0.093000 0.012000
      vertex -0.073000 0.093000 0.000000
    endloop
  endfacet
  facet normal 1.000000 0.000000 0.000000
    outer loop
      vertex 0.073000 -0.093000 0.000000
      vertex 0.073000 0.093000 0.000000
      vertex 0.073000 0.093000 0.012000
    endloop
  endfacet
  facet normal 1.000000 0.000000 0.000000
    outer loop
      vertex 0.073000 -0.093000 0.000000
      vertex 0.073000 0.093000 0.012000
      vertex 0.073000 -0.093000 0.012000
    endloop
  endfacet
endsolid sealer_tray_platform
