solid sealer_tray_face
  facet normal 0.000000 0.000000 -1.000000
    outer loop
      vertex -0.081000 -0.005000 0.000000
      vertex 0.081000 0.005000 0.000000
      vertex 0.081000 -0.005000 0.000000
    endloop
  endfacet
  facet normal 0.000000 0.000000 -1.000000
    outer loop
      vertex -0.081000 -0.005000 0.000000
      vertex -0.081000 0.005000 0.000000
      vertex 0.081000 0.005000 0.000000
    endloop
  endfacet
  facet normal 0.000000 0.000000 1.000000
    outer loop
      vertex -0.081000 -0.005000 0.040000
      vertex 0.081000 -0.005000 0.040000
      vertex 0.081000 0.005000 0.040000
    endloop
  endfacet
  facet normal 0.000000 0.000000 1.000000
    outer loop
      vertex -0.081000 -0.005000 0.040000
      vertex 0.081000 0.005000 0.040000
      vertex -0.081000 0.005000 0.040000
    endloop
  endfacet
  facet normal 0.000000 -1.000000 0.000000
    outer loop
      vertex -0.081000 -0.005000 0.000000
      vertex 0.081000 -0.005000 0.000000
      vertex 0.081000 -0.005000 0.040000
    endloop
  endfacet
  facet normal 0.000000 -1.000000 0.000000
    outer loop
      vertex -0.081000 -0.005000 0.000000
      vertex 0.081000 -0.005000 0.040000
      vertex -0.081000 -0.005000 0.040000
    endloop
  endfacet
  facet normal 0.000000 1.000000 0.000000
    outer loop
      vertex -0.081000 0.005000 0.000000
      vertex -0.081000 0.005000 0.040000
      vertex 0.081000 0.005000 0.040000
    endloop
  endfacet
  facet normal 0.000000 1.000000 0.000000
    outer loop
      vertex -0.081000 0.005000 0.000000
      vertex 0.081000 0.005000 0.040000
      vertex 0.081000 0.005000 0.000000
    endloop
  endfacet
  facet normal -1.000000 0.000000 0.000000
    outer loop
      vertex -0.081000 -0.005000 0.000000
      vertex -0.081000 -0.005000 0.040000
      vertex -0.081000 0.005000 0.040000
    endloop
  endfacet
  facet normal -1.000000 0.000000 0.000000
    outer loop
      vertex -0.081000 -0.005000 0.000000
      vertex -0.081000 0.005000 0.040000
      vertex -0.081000 0.005000 0.000000
    endloop
  endfacet
  facet normal 1.000000 0.000000 0.000000
    outer loop
      vertex 0.081000 -0.005000 0.000000
      vertex 0.081000 0.005000 0.000000
      vertex 0.081000 0.005000 0.040000
    endloop
  endfacet
  facet normal 1.000000 0.000000 0.000000
    outer loop
      vertex 0.081000 -0.005000 0.000000
      vertex 0.081000 0.005000 0.040000
      vertex 0.081000 -0.005000 0.040000
    endloop
  endfacet
endsolid sealer_tray_face
