solid sealer_handle_bar
  facet normal 0.000000 0.000000 -1.000000
    outer loop
      vertex -0.041000 -0.004000 0.000000
      vertex 0.041000 0.004000 0.000000
      vertex 0.041000 -0.004000 0.000000
    endloop
  endfacet
  facet normal 0.000000 0.000000 -1.000000
    outer loop
      vertex -0.041000 -0.004000 0.000000
      vertex -0.041000 0.004000 0.000000
      vertex 0.041000 0.004000 0.000000
    endloop
  endfacet
  facet normal 0.000000 0.000000 1.000000
    outer loop
      vertex -0.041000 -0.004000 0.012000
      vertex 0.041000 -0.004000 0.012000
      vertex 0.041000 0.004000 0.012000
    endloop
  endfacet
  facet normal 0.000000 0.000000 1.000000
    outer loop
      vertex -0.041000 -0.004000 0.012000
      vertex 0.041000 0.004000 0.012000
      vertex -0.041000 0.004000 0.012000
    endloop
  endfacet
  facet normal 0.000000 -1.000000 0.000000
    outer loop
      vertex -0.041000 -0.004000 0.000000
      vertex 0.041000 -0.004000 0.000000
      vertex 0.041000 -0.004000 0.012000
    endloop
  endfacet
  facet normal 0.000000 -1.000000 0.000000
    outer loop
      vertex -0.041000 -0.004000 0.000000
      vertex 0.041000 -0.004000 0.012000
      vertex -0.041000 -0.004000 0.012000
    endloop
  endfacet
  facet normal 0.000000 1.000000 0.000000
    outer loop
      vertex -0.041000 0.004000 0.000000
      vertex -0.041000 0.004000 0.012000
      vertex 0.041000 0.004000 0.012000
    endloop
  endfacet
  facet normal 0.000000 1.000000 0.000000
    outer loop
      vertex -0.041000 0.004000 0.000000
      vertex 0.041000 0.004000 0.012000
      vertex 0.041000 0.004000 0.000000
    endloop
  endfacet
  facet normal -1.000000 0.000000 0.000000
    outer loop
      vertex -0.041000 -0.004000 0.000000
      vertex -0.041000 -0.004000 0.012000
      vertex -0.041000 0.004000 0.012000
    endloop
  endfacet
  facet normal -1.000000 0.000000 0.000000
    outer loop
      vertex -0.041000 -0.004000 0.000000
      vertex -0.041000 0.004000 0.012000
      vertex -0.041000 0.004000 0.000000
    endloop
  endfacet
  facet normal 1.000000 0.000000 0.000000
    outer loop
      vertex 0.041000 -0.004000 0.000000
      vertex 0.041000 0.004000 0.000000
      vertex 0.041000 0.004000 0.012000
    endloop
  endfacet
  facet normal 1.000000 0.000000 0.000000
    outer loop
      vertex 0.041000 -0.004000 0.000000
      vertex 0.041000 0.004000 0.012000
      vertex 0.041000 -0.004000 0.012000
    endloop
  endfacet
endsolid sealer_handle_bar
