solid sealer_lower_body
  facet normal 0.000000 0.000000 -1.000000
    outer loop
      vertex -0.111000 -0.210000 0.000000
      vertex 0.111000 0.210000 0.000000
      vertex 0.111000 -0.210000 0.000000
    endloop
  endfacet
  facet normal 0.000000 0.000000 -1.000000
    outer loop
      vertex -0.111000 -0.210000 0.000000
      vertex -0.111000 0.210000 0.000000
      vertex 0.111000 0.210000 0.000000
    endloop
  endfacet
  facet normal 0.000000 0.000000 1.000000
    outer loop
      vertex -0.111000 -0.210000 0.170000
      vertex 0.111000 -0.210000 0.170000
      vertex 0.111000 0.210000 0.170000
    endloop
  endfacet
  facet normal 0.000000 0.000000 1.000000
    outer loop
      vertex -0.111000 -0.210000 0.170000
      vertex 0.111000 0.210000 0.170000
      vertex -0.111000 0.210000 0.170000
    endloop
  endfacet
  facet normal 0.000000 -1.000000 0.000000
    outer loop
      vertex -0.111000 -0.210000 0.000000
      vertex 0.111000 -0.210000 0.000000
      vertex 0.111000 -0.210000 0.170000
    endloop
  endfacet
  facet normal 0.000000 -1.000000 0.000000
    outer loop
      vertex -0.111000 -0.210000 0.000000
      vertex 0.111000 -0.210000 0.170000
      vertex -0.111000 -0.210000 0.170000
    endloop
  endfacet
  facet normal 0.000000 1.000000 0.000000
    outer loop
      vertex -0.111000 0.210000 0.000000
      vertex -0.111000 0.210000 0.170000
      vertex 0.111000 0.210000 0.170000
    endloop
  endfacet
  facet normal 0.000000 1.000000 0.000000
    outer loop
      vertex -0.111000 0.210000 0.000000
      vertex 0.111000 0.210000 0.170000
      vertex 0.111000 0.210000 0.000000
    endloop
  endfacet
  facet normal -1.000000 0.000000 0.000000
    outer loop
      vertex -0.111000 -0.210000 0.000000
      vertex -0.111000 -0.210000 0.170000
      vertex -0.111000 0.210000 0.170000
    endloop
  endfacet
  facet normal -1.000000 0.000000 0.000000
    outer loop
      vertex -0.111000 -0.210000 0.000000
      vertex -0.111000 0.210000 0.170000
      vertex -0.111000 0.210000 0.000000
    endloop
  endfacet
  facet normal 1.000000 0.000000 0.000000
    outer loop
      vertex 0.111000 -0.210000 0.000000
      vertex 0.111000 0.210000 0.000000
      vertex 0.111000 0.210000 0.170000
    endloop
  endfacet
  facet normal 1.000000 0.000000 0.000000
    outer loop
      vertex 0.111000 -0.210000 0.000000
      vertex 0.111000 0.210000 0.170000
      vertex 0.111000 -0.210000 0.170000
    endloop
  endfacet
endsolid sealer_lower_body
