solid sealer_tray_rail
  facet normal 0.000000 0.000000 -1.000000
    outer loop
      vertex -0.004000 -0.080000 0.000000
      vertex 0.004000 0.080000 0.000000
      vertex 0.004000 -0.080000 0.000000
    endloop
  endfacet
  facet normal 0.000000 0.000000 -1.000000
    outer loop
      vertex -0.004000 -0.080000 0.000000
      vertex -0.004000 0.080000 0.000000
      vertex 0.004000 0.080000 0.000000
    endloop
  endfacet
  facet normal 0.000000 0.000000 1.000000
    outer loop
      vertex -0.004000 -0.080000 0.032000
      vertex 0.004000 -0.080000 0.032000
      vertex 0.004000 0.080000 0.032000
    endloop
  endfacet
  facet normal 0.000000 0.000000 1.000000
    outer loop
      vertex -0.004000 -0.080000 0.032000
      vertex 0.004000 0.080000 0.032000
      vertex -0.004000 0.080000 0.032000
    endloop
  endfacet
  facet normal 0.000000 -1.000000 0.000000
    outer loop
      vertex -0.004000 -0.080000 0.000000
      vertex 0.004000 -0.080000 0.000000
      vertex 0.004000 -0.080000 0.032000
    endloop
  endfacet
  facet normal 0.000000 -1.000000 0.000000
    outer loop
      vertex -0.004000 -0.080000 0.000000
      vertex 0.004000 -0.080000 0.032000
      vertex -0.004000 -0.080000 0.032000
    endloop
  endfacet
  facet normal 0.000000 1.000000 0.000000
    outer loop
      vertex -0.004000 0.080000 0.000000
      vertex -0.004000 0.080000 0.032000
      vertex 0.004000 0.080000 0.032000
    endloop
  endfacet
  facet normal 0.000000 1.000000 0.000000
    outer loop
      vertex -0.004000 0.080000 0.000000
      vertex 0.004000 0.080000 0.032000
      vertex 0.004000 0.080000 0.000000
    endloop
  endfacet
  facet normal -1.000000 0.000000 0.000000
    outer loop
      vertex -0.004000 -0.080000 0.000000
      vertex -0.004000 -0.080000 0.032000
      vertex -0.004000 0.080000 0.032000
    endloop
  endfacet
  facet normal -1.000000 0.000000 0.000000
    outer loop
      vertex -0.004000 -0.080000 0.000000
      vertex -0.004000 0.080000 0.032000
      vertex -0.004000 0.080000 0.000000
    endloop
  endfacet
  facet normal 1.000000 0.000000 0.000000
    outer loop
      vertex 0.004000 -0.080000 0.000000
      vertex 0.004000 0.080000 0.000000
      vertex 0.004000 0.080000 0.032000
    endloop
  endfacet
  facet normal 1.000000 0.000000 0.000000
    outer loop
      vertex 0.004000 -0.080000 0.000000
      vertex 0.004000 0.080000 0.032000
      vertex 0.004000 -0.080000 0.032000
    endloop
  endfacet
endsolid sealer_tray_rail
