solid sealer_touch_panel
  facet normal 0.000000 0.000000 -1.000000
    outer loop
      vertex -0.044000 -0.003000 0.000000
      vertex 0.044000 0.003000 0.000000
      vertex 0.044000 -0.003000 0.000000
    endloop
  endfacet
  facet normal 0.000000 0.000000 -1.000000
    outer loop
      vertex -0.044000 -0.003000 0.000000
      vertex -0.044000 0.003000 0.000000
      vertex 0.044000 0.003000 0.000000
    endloop
  endfacet
  facet normal 0.000000 0.000000 1.000000
    outer loop
      vertex -0.044000 -0.003000 0.052000
      vertex 0.044000 -0.003000 0.052000
      vertex 0.044000 0.003000 0.052000
    endloop
  endfacet
  facet normal 0.000000 0.000000 1.000000
    outer loop
      vertex -0.044000 -0.003000 0.052000
      vertex 0.044000 0.003000 0.052000
      vertex -0.044000 0.003000 0.052000
    endloop
  endfacet
  facet normal 0.000000 -1.000000 0.000000
    outer loop
      vertex -0.044000 -0.003000 0.000000
      vertex 0.044000 -0.003000 0.000000
      vertex 0.044000 -0.003000 0.052000
    endloop
  endfacet
  facet normal 0.000000 -1.000000 0.000000
    outer loop
      vertex -0.044000 -0.003000 0.000000
      vertex 0.044000 -0.003000 0.052000
      vertex -0.044000 -0.003000 0.052000
    endloop
  endfacet
  facet normal 0.000000 1.000000 0.000000
    outer loop
      vertex -0.044000 0.003000 0.000000
      vertex -0.044000 0.003000 0.052000
      vertex 0.044000 0.003000 0.052000
    endloop
  endfacet
  facet normal 0.000000 1.000000 0.000000
    outer loop
      vertex -0.044000 0.003000 0.000000
      vertex 0.044000 0.003000 0.052000
      vertex 0.044000 0.003000 0.000000
    endloop
  endfacet
  facet normal -1.000000 0.000000 0.000000
    outer loop
      vertex -0.044000 -0.003000 0.000000
      vertex -0.044000 -0.003000 0.052000
      vertex -0.044000 0.003000 0.052000
    endloop
  endfacet
  facet normal -1.000000 0.000000 0.000000
    outer loop
      vertex -0.044000 -0.003000 0.000000
      vertex -0.044000 0.003000 0.052000
      vertex -0.044000 0.003000 0.000000
    endloop
  endfacet
  facet normal 1.000000 0.000000 0.000000
    outer loop
      vertex 0.044000 -0.003000 0.000000
      vertex 0.044000 0.003000 0.000000
      vertex 0.044000 0.003000 0.052000
    endloop
  endfacet
  facet normal 1.000000 0.000000 0.000000
    outer loop
      vertex 0.044000 -0.003000 0.000000
      vertex 0.044000 0.003000 0.052000
      vertex 0.044000 -0.003000 0.052000
    endloop
  endfacet
endsolid sealer_touch_panel
