solid sealer_front_console
  facet normal 0.000000 0.000000 -1.000000
    outer loop
      vertex -0.106000 -0.037000 0.000000
      vertex 0.106000 0.037000 0.000000
      vertex 0.106000 -0.037000 0.000000
    endloop
  endfacet
  facet normal 0.000000 0.000000 -1.000000
    outer loop
      vertex -0.106000 -0.037000 0.000000
      vertex -0.106000 0.037000 0.000000
      vertex 0.106000 0.037000 0.000000
    endloop
  endfacet
  facet normal 0.000000 0.000000 1.000000
    outer loop
      vertex -0.106000 -0.037000 0.084000
      vertex 0.106000 -0.037000 0.084000
      vertex 0.106000 0.037000 0.084000
    endloop
  endfacet
  facet normal 0.000000 0.000000 1.000000
    outer loop
      vertex -0.106000 -0.037000 0.084000
      vertex 0.106000 0.037000 0.084000
      vertex -0.106000 0.037000 0.084000
    endloop
  endfacet
  facet normal 0.000000 -1.000000 0.000000
    outer loop
      vertex -0.106000 -0.037000 0.000000
      vertex 0.106000 -0.037000 0.000000
      vertex 0.106000 -0.037000 0.084000
    endloop
  endfacet
  facet normal 0.000000 -1.000000 0.000000
    outer loop
      vertex -0.106000 -0.037000 0.000000
      vertex 0.106000 -0.037000 0.084000
      vertex -0.106000 -0.037000 0.084000
    endloop
  endfacet
  facet normal 0.000000 1.000000 0.000000
    outer loop
      vertex -0.106000 0.037000 0.000000
      vertex -0.106000 0.037000 0.084000
      vertex 0.106000 0.037000 0.084000
    endloop
  endfacet
  facet normal 0.000000 1.000000 0.000000
    outer loop
      vertex -0.106000 0.037000 0.000000
      vertex 0.106000 0.037000 0.084000
      vertex 0.106000 0.037000 0.000000
    endloop
  endfacet
  facet normal -1.000000 0.000000 0.000000
    outer loop
      vertex -0.106000 -0.037000 0.000000
      vertex -0.106000 -0.037000 0.084000
      vertex -0.106000 0.037000 0.084000
    endloop
  endfacet
  facet normal -1.000000 0.000000 0.000000
    outer loop
      vertex -0.106000 -0.037000 0.000000
      vertex -0.106000 0.037000 0.084000
      vertex -0.106000 0.037000 0.000000
    endloop
  endfacet
  facet normal 1.000000 0.000000 0.000000
    outer loop
      vertex 0.106000 -0.037000 0.000000
      vertex 0.106000 0.037000 0.000000
      vertex 0.106000 0.037000 0.084000
    endloop
  endfacet
  facet normal 1.000000 0.000000 0.000000
    outer loop
      vertex 0.106000 -0.037000 0.000000
      vertex 0.106000 0.037000 0.084000
      vertex 0.106000 -0.037000 0.084000
    endloop
  endfacet
endsolid sealer_front_console
