solid bio_shake_body
  facet normal 0.000000 0.000000 -1.000000
    outer loop
      vertex -0.052000 -0.073500 0.000000
      vertex 0.052000 0.073500 0.000000
      vertex 0.052000 -0.073500 0.000000
    endloop
  endfacet
  facet normal 0.000000 0.000000 -1.000000
    outer loop
      vertex -0.052000 -0.073500 0.000000
      vertex -0.052000 0.073500 0.000000
      vertex 0.052000 0.073500 0.000000
    endloop
  endfacet
  facet normal 0.000000 0.000000 1.000000
    outer loop
      vertex -0.052000 -0.073500 0.115900
      vertex 0.052000 -0.073500 0.115900
      vertex 0.052000 0.073500 0.115900
    endloop
  endfacet
  facet normal 0.000000 0.000000 1.000000
    outer loop
      vertex -0.052000 -0.073500 0.115900
      vertex 0.052000 0.073500 0.115900
      vertex -0.052000 0.073500 0.115900
    endloop
  endfacet
  facet normal 0.000000 -1.000000 0.000000
    outer loop
      vertex -0.052000 -0.073500 0.000000
      vertex 0.052000 -0.073500 0.000000
      vertex 0.052000 -0.073500 0.115900
    endloop
  endfacet
  facet normal 0.000000 -1.000000 0.000000
    outer loop
      vertex -0.052000 -0.073500 0.000000
      vertex 0.052000 -0.073500 0.115900
      vertex -0.052000 -0.073500 0.115900
    endloop
  endfacet
  facet normal 0.000000 1.000000 0.000000
    outer loop
      vertex -0.052000 0.073500 0.000000
      vertex -0.052000 0.073500 0.115900
      vertex 0.052000 0.073500 0.115900
    endloop
  endfacet
  facet normal 0.000000 1.000000 0.000000
    outer loop
      vertex -0.052000 0.073500 0.000000
      vertex 0.052000 0.073500 0.115900
      vertex 0.052000 0.073500 0.000000
    endloop
  endfacet
  facet normal -1.000000 0.000000 0.000000
    outer loop
      vertex -0.052000 -0.073500 0.000000
      vertex -0.052000 -0.073500 0.115900
      vertex -0.052000 0.073500 0.115900
    endloop
  endfacet
  facet normal -1.000000 0.000000 0.000000
    outer loop
      vertex -0.052000 -0.073500 0.000000
      vertex -0.052000 0.073500 0.115900
      vertex -0.052000 0.073500 0.000000
    endloop
  endfacet
  facet normal 1.000000 0.000000 0.000000
    outer loop
      vertex 0.052000 -0.073500 0.000000
      vertex 0.052000 0.073500 0.000000
      vertex 0.052000 0.073500 0.115900
    endloop
  endfacet
  facet normal 1.000000 0.000000 0.000000
    outer loop
      vertex 0.052000 -0.073500 0.000000
      vertex 0.052000 0.073500 0.115900
      vertex 0.052000 -0.073500 0.115900
    endloop
  endfacet
endsolid bio_shake_body
