solid base_plinth
  facet normal 0.000000 0.000000 -1.000000
    outer loop
      vertex -0.174500 -0.139000 0.000000
      vertex 0.174500 0.139000 0.000000
      vertex 0.174500 -0.139000 0.000000
    endloop
  endfacet
  facet normal 0.000000 0.000000 -1.000000
    outer loop
      vertex -0.174500 -0.139000 0.000000
      vertex -0.174500 0.139000 0.000000
      vertex 0.174500 0.139000 0.000000
    endloop
  endfacet
  facet normal 0.000000 0.000000 1.000000
    outer loop
      vertex -0.174500 -0.139000 0.088000
      vertex 0.174500 -0.139000 0.088000
      vertex 0.174500 0.139000 0.088000
    endloop
  endfacet
  facet normal 0.000000 0.000000 1.000000
    outer loop
      vertex -0.174500 -0.139000 0.088000
      vertex 0.174500 0.139000 0.088000
      vertex -0.174500 0.139000 0.088000
    endloop
  endfacet
  facet normal 0.000000 -1.000000 0.000000
    outer loop
      vertex -0.174500 -0.139000 0.000000
      vertex 0.174500 -0.139000 0.000000
      vertex 0.174500 -0.139000 0.088000
    endloop
  endfacet
  facet normal 0.000000 -1.000000 0.000000
    outer loop
      vertex -0.174500 -0.139000 0.000000
      vertex 0.174500 -0.139000 0.088000
      vertex -0.174500 -0.139000 0.088000
    endloop
  endfacet
  facet normal 0.000000 1.000000 0.000000
    outer loop
      vertex -0.174500 0.139000 0.000000
      vertex -0.174500 0.139000 0.088000
      vertex 0.174500 0.139000 0.088000
    endloop
  endfacet
  facet normal 0.000000 1.000000 0.000000
    outer loop
      vertex -0.174500 0.139000 0.000000
      vertex 0.174500 0.139000 0.088000
      vertex 0.174500 0.139000 0.000000
    endloop
  endfacet
  facet normal -1.000000 0.000000 0.000000
    outer loop
      vertex -0.174500 -0.139000 0.000000
      vertex -0.174500 -0.139000 0.088000
      vertex -0.174500 0.139000 0.088000
    endloop
  endfacet
  facet normal -1.000000 0.000000 0.000000
    outer loop
      vertex -0.174500 -0.139000 0.000000
      vertex -0.174500 0.139000 0.088000
      vertex -0.174500 0.139000 0.000000
    endloop
  endfacet
  facet normal 1.000000 0.000000 0.000000
    outer loop
      vertex 0.174500 -0.139000 0.000000
      vertex 0.174500 0.139000 0.000000
      vertex 0.174500 0.139000 0.088000
    endloop
  endfacet
  facet normal 1.000000 0.000000 0.000000
    outer loop
      vertex 0.174500 -0.139000 0.000000
      vertex 0.174500 0.139000 0.088000
      vertex 0.174500 -0.139000 0.088000
    endloop
  endfacet
endsolid base_plinth
