solid chamber_back_panel
  facet normal 0.000000 0.000000 -1.000000
    outer loop
      vertex -0.139000 -0.009000 0.000000
      vertex 0.139000 0.009000 0.000000
      vertex 0.139000 -0.009000 0.000000
    endloop
  endfacet
  facet normal 0.000000 0.000000 -1.000000
    outer loop
      vertex -0.139000 -0.009000 0.000000
      vertex -0.139000 0.009000 0.000000
      vertex 0.139000 0.009000 0.000000
    endloop
  endfacet
  facet normal 0.000000 0.000000 1.000000
    outer loop
      vertex -0.139000 -0.009000 0.214000
      vertex 0.139000 -0.009000 0.214000
      vertex 0.139000 0.009000 0.214000
    endloop
  endfacet
  facet normal 0.000000 0.000000 1.000000
    outer loop
      vertex -0.139000 -0.009000 0.214000
      vertex 0.139000 0.009000 0.214000
      vertex -0.139000 0.009000 0.214000
    endloop
  endfacet
  facet normal 0.000000 -1.000000 0.000000
    outer loop
      vertex -0.139000 -0.009000 0.000000
      vertex 0.139000 -0.009000 0.000000
      vertex 0.139000 -0.009000 0.214000
    endloop
  endfacet
  facet normal 0.000000 -1.000000 0.000000
    outer loop
      vertex -0.139000 -0.009000 0.000000
      vertex 0.139000 -0.009000 0.214000
      vertex -0.139000 -0.009000 0.214000
    endloop
  endfacet
  facet normal 0.000000 1.000000 0.000000
    outer loop
      vertex -0.139000 0.009000 0.000000
      vertex -0.139000 0.009000 0.214000
      vertex 0.139000 0.009000 0.214000
    endloop
  endfacet
  facet normal 0.000000 1.000000 0.000000
    outer loop
      vertex -0.139000 0.009000 0.000000
      vertex 0.139000 0.009000 0.214000
      vertex 0.139000 0.009000 0.000000
    endloop
  endfacet
  facet normal -1.000000 0.000000 0.000000
    outer loop
      vertex -0.139000 -0.009000 0.000000
      vertex -0.139000 -0.009000 0.214000
      vertex -0.139000 0.009000 0.214000
    endloop
  endfacet
  facet normal -1.000000 0.000000 0.000000
    outer loop
      vertex -0.139000 -0.009000 0.000000
      vertex -0.139000 0.009000 0.214000
      vertex -0.139000 0.009000 0.000000
    endloop
  endfacet
  facet normal 1.000000 0.000000 0.000000
    outer loop
      vertex 0.139000 -0.009000 0.000000
      vertex 0.139000 0.009000 0.000000
      vertex 0.139000 0.009000 0.214000
    endloop
  endfacet
  facet normal 1.000000 0.000000 0.000000
    outer loop
      vertex 0.139000 -0.009000 0.000000
      vertex 0.139000 0.009000 0.214000
      vertex 0.139000 -0.009000 0.214000
    endloop
  endfacet
endsolid chamber_back_panel
