solid chamber_left_wall
  facet normal 0.000000 0.000000 -1.000000
    outer loop
      vertex -0.008000 -0.101000 0.000000
      vertex 0.008000 0.101000 0.000000
      vertex 0.008000 -0.101000 0.000000
    endloop
  endfacet
  facet normal 0.000000 0.000000 -1.000000
    outer loop
      vertex -0.008000 -0.101000 0.000000
      vertex -0.008000 0.101000 0.000000
      vertex 0.008000 0.101000 0.000000
    endloop
  endfacet
  facet normal 0.000000 0.000000 1.000000
    outer loop
      vertex -0.008000 -0.101000 0.214000
      vertex 0.008000 -0.101000 0.214000
      vertex 0.008000 0.101000 0.214000
    endloop
  endfacet
  facet normal 0.000000 0.000000 1.000000
    outer loop
      vertex -0.008000 -0.101000 0.214000
      vertex 0.008000 0.101000 0.214000
      vertex -0.008000 0.101000 0.214000
    endloop
  endfacet
  facet normal 0.000000 -1.000000 0.000000
    outer loop
      vertex -0.008000 -0.101000 0.000000
      vertex 0.008000 -0.101000 0.000000
      vertex 0.008000 -0.101000 0.214000
    endloop
  endfacet
  facet normal 0.000000 -1.000000 0.000000
    outer loop
      vertex -0.008000 -0.101000 0.000000
      vertex 0.008000 -0.101000 0.214000
      vertex -0.008000 -0.101000 0.214000
    endloop
  endfacet
  facet normal 0.000000 1.000000 0.000000
    outer loop
      vertex -0.008000 0.101000 0.000000
      vertex -0.008000 0.101000 0.214000
      vertex 0.008000 0.101000 0.214000
    endloop
  endfacet
  facet normal 0.000000 1.000000 0.000000
    outer loop
      vertex -0.008000 0.101000 0.000000
      vertex 0.008000 0.101000 0.214000
      vertex 0.008000 0.101000 0.000000
    endloop
  endfacet
  facet normal -1.000000 0.000000 0.000000
    outer loop
      vertex -0.008000 -0.101000 0.000000
      vertex -0.008000 -0.101000 0.214000
      vertex -0.008000 0.101000 0.214000
    endloop
  endfacet
  facet normal -1.000000 0.000000 0.000000
    outer loop
      vertex -0.008000 -0.101000 0.000000
      vertex -0.008000 0.101000 0.214000
      vertex -0.008000 0.101000 0.000000
    endloop
  endfacet
  facet normal 1.000000 0.000000 0.000000
    outer loop
      vertex 0.008000 -0.101000 0.000000
      vertex 0.008000 0.101000 0.000000
      vertex 0.008000 0.101000 0.214000
    endloop
  endfacet
  facet normal 1.000000 0.000000 0.000000
    outer loop
      vertex 0.008000 -0.101000 0.000000
      vertex 0.008000 0.101000 0.214000
      vertex 0.008000 -0.101000 0.214000
    endloop
  endfacet
endsolid chamber_left_wall
