solid control_pod
  facet normal 0.000000 0.000000 -1.000000
    outer loop
      vertex -0.064000 -0.029000 0.000000
      vertex 0.064000 0.029000 0.000000
      vertex 0.064000 -0.029000 0.000000
    endloop
  endfacet
  facet normal 0.000000 0.000000 -1.000000
    outer loop
      vertex -0.064000 -0.029000 0.000000
      vertex -0.064000 0.029000 0.000000
      vertex 0.064000 0.029000 0.000000
    endloop
  endfacet
  facet normal 0.000000 0.000000 1.000000
    outer loop
      vertex -0.064000 -0.029000 0.044000
      vertex 0.064000 -0.029000 0.044000
      vertex 0.064000 0.029000 0.044000
    endloop
  endfacet
  facet normal 0.000000 0.000000 1.000000
    outer loop
      vertex -0.064000 -0.029000 0.044000
      vertex 0.064000 0.029000 0.044000
      vertex -0.064000 0.029000 0.044000
    endloop
  endfacet
  facet normal 0.000000 -1.000000 0.000000
    outer loop
      vertex -0.064000 -0.029000 0.000000
      vertex 0.064000 -0.029000 0.000000
      vertex 0.064000 -0.029000 0.044000
    endloop
  endfacet
  facet normal 0.000000 -1.000000 0.000000
    outer loop
      vertex -0.064000 -0.029000 0.000000
      vertex 0.064000 -0.029000 0.044000
      vertex -0.064000 -0.029000 0.044000
    endloop
  endfacet
  facet normal 0.000000 1.000000 0.000000
    outer loop
      vertex -0.064000 0.029000 0.000000
      vertex -0.064000 0.029000 0.044000
      vertex 0.064000 0.029000 0.044000
    endloop
  endfacet
  facet normal 0.000000 1.000000 0.000000
    outer loop
      vertex -0.064000 0.029000 0.000000
      vertex 0.064000 0.029000 0.044000
      vertex 0.064000 0.029000 0.000000
    endloop
  endfacet
  facet normal -1.000000 0.000000 0.000000
    outer loop
      vertex -0.064000 -0.029000 0.000000
      vertex -0.064000 -0.029000 0.044000
      vertex -0.064000 0.029000 0.044000
    endloop
  endfacet
  facet normal -1.000000 0.000000 0.000000
    outer loop
      vertex -0.064000 -0.029000 0.000000
      vertex -0.064000 0.029000 0.044000
      vertex -0.064000 0.029000 0.000000
    endloop
  endfacet
  facet normal 1.000000 0.000000 0.000000
    outer loop
      vertex 0.064000 -0.029000 0.000000
      vertex 0.064000 0.029000 0.000000
      vertex 0.064000 0.029000 0.044000
    endloop
  endfacet
  facet normal 1.000000 0.000000 0.000000
    outer loop
      vertex 0.064000 -0.029000 0.000000
      vertex 0.064000 0.029000 0.044000
      vertex 0.064000 -0.029000 0.044000
    endloop
  endfacet
endsolid control_pod
