solid feed_bridge
  facet normal 0.000000 0.000000 -1.000000
    outer loop
      vertex -0.012000 -0.046000 0.000000
      vertex 0.012000 0.046000 0.000000
      vertex 0.012000 -0.046000 0.000000
    endloop
  endfacet
  facet normal 0.000000 0.000000 -1.000000
    outer loop
      vertex -0.012000 -0.046000 0.000000
      vertex -0.012000 0.046000 0.000000
      vertex 0.012000 0.046000 0.000000
    endloop
  endfacet
  facet normal 0.000000 0.000000 1.000000
    outer loop
      vertex -0.012000 -0.046000 0.028000
      vertex 0.012000 -0.046000 0.028000
      vertex 0.012000 0.046000 0.028000
    endloop
  endfacet
  facet normal 0.000000 0.000000 1.000000
    outer loop
      vertex -0.012000 -0.046000 0.028000
      vertex 0.012000 0.046000 0.028000
      vertex -0.012000 0.046000 0.028000
    endloop
  endfacet
  facet normal 0.000000 -1.000000 0.000000
    outer loop
      vertex -0.012000 -0.046000 0.000000
      vertex 0.012000 -0.046000 0.000000
      vertex 0.012000 -0.046000 0.028000
    endloop
  endfacet
  facet normal 0.000000 -1.000000 0.000000
    outer loop
      vertex -0.012000 -0.046000 0.000000
      vertex 0.012000 -0.046000 0.028000
      vertex -0.012000 -0.046000 0.028000
    endloop
  endfacet
  facet normal 0.000000 1.000000 0.000000
    outer loop
      vertex -0.012000 0.046000 0.000000
      vertex -0.012000 0.046000 0.028000
      vertex 0.012000 0.046000 0.028000
    endloop
  endfacet
  facet normal 0.000000 1.000000 0.000000
    outer loop
      vertex -0.012000 0.046000 0.000000
      vertex 0.012000 0.046000 0.028000
      vertex 0.012000 0.046000 0.000000
    endloop
  endfacet
  facet normal -1.000000 0.000000 0.000000
    outer loop
      vertex -0.012000 -0.046000 0.000000
      vertex -0.012000 -0.046000 0.028000
      vertex -0.012000 0.046000 0.028000
    endloop
  endfacet
  facet normal -1.000000 0.000000 0.000000
    outer loop
      vertex -0.012000 -0.046000 0.000000
      vertex -0.012000 0.046000 0.028000
      vertex -0.012000 0.046000 0.000000
    endloop
  endfacet
  facet normal 1.000000 0.000000 0.000000
    outer loop
      vertex 0.012000 -0.046000 0.000000
      vertex 0.012000 0.046000 0.000000
      vertex 0.012000 0.046000 0.028000
    endloop
  endfacet
  facet normal 1.000000 0.000000 0.000000
    outer loop
      vertex 0.012000 -0.046000 0.000000
      vertex 0.012000 0.046000 0.028000
      vertex 0.012000 -0.046000 0.028000
    endloop
  endfacet
endsolid feed_bridge
