solid tray_pedestal
  facet normal 0.000000 0.000000 -1.000000
    outer loop
      vertex -0.047000 -0.039000 0.000000
      vertex 0.047000 0.039000 0.000000
      vertex 0.047000 -0.039000 0.000000
    endloop
  endfacet
  facet normal 0.000000 0.000000 -1.000000
    outer loop
      vertex -0.047000 -0.039000 0.000000
      vertex -0.047000 0.039000 0.000000
      vertex 0.047000 0.039000 0.000000
    endloop
  endfacet
  facet normal 0.000000 0.000000 1.000000
    outer loop
      vertex -0.047000 -0.039000 0.072000
      vertex 0.047000 -0.039000 0.072000
      vertex 0.047000 0.039000 0.072000
    endloop
  endfacet
  facet normal 0.000000 0.000000 1.000000
    outer loop
      vertex -0.047000 -0.039000 0.072000
      vertex 0.047000 0.039000 0.072000
      vertex -0.047000 0.039000 0.072000
    endloop
  endfacet
  facet normal 0.000000 -1.000000 0.000000
    outer loop
      vertex -0.047000 -0.039000 0.000000
      vertex 0.047000 -0.039000 0.000000
      vertex 0.047000 -0.039000 0.072000
    endloop
  endfacet
  facet normal 0.000000 -1.000000 0.000000
    outer loop
      vertex -0.047000 -0.039000 0.000000
      vertex 0.047000 -0.039000 0.072000
      vertex -0.047000 -0.039000 0.072000
    endloop
  endfacet
  facet normal 0.000000 1.000000 0.000000
    outer loop
      vertex -0.047000 0.039000 0.000000
      vertex -0.047000 0.039000 0.072000
      vertex 0.047000 0.039000 0.072000
    endloop
  endfacet
  facet normal 0.000000 1.000000 0.000000
    outer loop
      vertex -0.047000 0.039000 0.000000
      vertex 0.047000 0.039000 0.072000
      vertex 0.047000 0.039000 0.000000
    endloop
  endfacet
  facet normal -1.000000 0.000000 0.000000
    outer loop
      vertex -0.047000 -0.039000 0.000000
      vertex -0.047000 -0.039000 0.072000
      vertex -0.047000 0.039000 0.072000
    endloop
  endfacet
  facet normal -1.000000 0.000000 0.000000
    outer loop
      vertex -0.047000 -0.039000 0.000000
      vertex -0.047000 0.039000 0.072000
      vertex -0.047000 0.039000 0.000000
    endloop
  endfacet
  facet normal 1.000000 0.000000 0.000000
    outer loop
      vertex 0.047000 -0.039000 0.000000
      vertex 0.047000 0.039000 0.000000
      vertex 0.047000 0.039000 0.072000
    endloop
  endfacet
  facet normal 1.000000 0.000000 0.000000
    outer loop
      vertex 0.047000 -0.039000 0.000000
      vertex 0.047000 0.039000 0.072000
      vertex 0.047000 -0.039000 0.072000
    endloop
  endfacet
endsolid tray_pedestal
