solid deck_surface
  facet normal 0.000000 0.000000 -1.000000
    outer loop
      vertex -0.735000 -0.180000 0.000000
      vertex 0.735000 0.180000 0.000000
      vertex 0.735000 -0.180000 0.000000
    endloop
  endfacet
  facet normal 0.000000 0.000000 -1.000000
    outer loop
      vertex -0.735000 -0.180000 0.000000
      vertex -0.735000 0.180000 0.000000
      vertex 0.735000 0.180000 0.000000
    endloop
  endfacet
  facet normal 0.000000 0.000000 1.000000
    outer loop
      vertex -0.735000 -0.180000 0.030000
      vertex 0.735000 -0.180000 0.030000
      vertex 0.735000 0.180000 0.030000
    endloop
  endfacet
  facet normal 0.000000 0.000000 1.000000
    outer loop
      vertex -0.735000 -0.180000 0.030000
      vertex 0.735000 0.180000 0.030000
      vertex -0.735000 0.180000 0.030000
    endloop
  endfacet
  facet normal 0.000000 -1.000000 0.000000
    outer loop
      vertex -0.735000 -0.180000 0.000000
      vertex 0.735000 -0.180000 0.000000
      vertex 0.735000 -0.180000 0.030000
    endloop
  endfacet
  facet normal 0.000000 -1.000000 0.000000
    outer loop
      vertex -0.735000 -0.180000 0.000000
      vertex 0.735000 -0.180000 0.030000
      vertex -0.735000 -0.180000 0.030000
    endloop
  endfacet
  facet normal 0.000000 1.000000 0.000000
    outer loop
      vertex -0.735000 0.180000 0.000000
      vertex -0.735000 0.180000 0.030000
      vertex 0.735000 0.180000 0.030000
    endloop
  endfacet
  facet normal 0.000000 1.000000 0.000000
    outer loop
      vertex -0.735000 0.180000 0.000000
      vertex 0.735000 0.180000 0.030000
      vertex 0.735000 0.180000 0.000000
    endloop
  endfacet
  facet normal -1.000000 0.000000 0.000000
    outer loop
      vertex -0.735000 -0.180000 0.000000
      vertex -0.735000 -0.180000 0.030000
      vertex -0.735000 0.180000 0.030000
    endloop
  endfacet
  facet normal -1.000000 0.000000 0.000000
    outer loop
      vertex -0.735000 -0.180000 0.000000
      vertex -0.735000 0.180000 0.030000
      vertex -0.735000 0.180000 0.000000
    endloop
  endfacet
  facet normal 1.000000 0.000000 0.000000
    outer loop
      vertex 0.735000 -0.180000 0.000000
      vertex 0.735000 0.180000 0.000000
      vertex 0.735000 0.180000 0.030000
    endloop
  endfacet
  facet normal 1.000000 0.000000 0.000000
    outer loop
      vertex 0.735000 -0.180000 0.000000
      vertex 0.735000 0.180000 0.030000
      vertex 0.735000 -0.180000 0.030000
    endloop
  endfacet
endsolid deck_surface
