solid pipetting_carriage
  facet normal 0.000000 0.000000 -1.000000
    outer loop
      vertex -0.180000 -0.110000 0.000000
      vertex 0.180000 0.110000 0.000000
      vertex 0.180000 -0.110000 0.000000
    endloop
  endfacet
  facet normal 0.000000 0.000000 -1.000000
    outer loop
      vertex -0.180000 -0.110000 0.000000
      vertex -0.180000 0.110000 0.000000
      vertex 0.180000 0.110000 0.000000
    endloop
  endfacet
  facet normal 0.000000 0.000000 1.000000
    outer loop
      vertex -0.180000 -0.110000 0.160000
      vertex 0.180000 -0.110000 0.160000
      vertex 0.180000 0.110000 0.160000
    endloop
  endfacet
  facet normal 0.000000 0.000000 1.000000
    outer loop
      vertex -0.180000 -0.110000 0.160000
      vertex 0.180000 0.110000 0.160000
      vertex -0.180000 0.110000 0.160000
    endloop
  endfacet
  facet normal 0.000000 -1.000000 0.000000
    outer loop
      vertex -0.180000 -0.110000 0.000000
      vertex 0.180000 -0.110000 0.000000
      vertex 0.180000 -0.110000 0.160000
    endloop
  endfacet
  facet normal 0.000000 -1.000000 0.000000
    outer loop
      vertex -0.180000 -0.110000 0.000000
      vertex 0.180000 -0.110000 0.160000
      vertex -0.180000 -0.110000 0.160000
    endloop
  endfacet
  facet normal 0.000000 1.000000 0.000000
    outer loop
      vertex -0.180000 0.110000 0.000000
      vertex -0.180000 0.110000 0.160000
      vertex 0.180000 0.110000 0.160000
    endloop
  endfacet
  facet normal 0.000000 1.000000 0.000000
    outer loop
      vertex -0.180000 0.110000 0.000000
      vertex 0.180000 0.110000 0.160000
      vertex 0.180000 0.110000 0.000000
    endloop
  endfacet
  facet normal -1.000000 0.000000 0.000000
    outer loop
      vertex -0.180000 -0.110000 0.000000
      vertex -0.180000 -0.110000 0.160000
      vertex -0.180000 0.110000 0.160000
    endloop
  endfacet
  facet normal -1.000000 0.000000 0.000000
    outer loop
      vertex -0.180000 -0.110000 0.000000
      vertex -0.180000 0.110000 0.160000
      vertex -0.180000 0.110000 0.000000
    endloop
  endfacet
  facet normal 1.000000 0.000000 0.000000
    outer loop
      vertex 0.180000 -0.110000 0.000000
      vertex 0.180000 0.110000 0.000000
      vertex 0.180000 0.110000 0.160000
    endloop
  endfacet
  facet normal 1.000000 0.000000 0.000000
    outer loop
      vertex 0.180000 -0.110000 0.000000
      vertex 0.180000 0.110000 0.160000
      vertex 0.180000 -0.110000 0.160000
    endloop
  endfacet
endsolid pipetting_carriage
