solid status_light
  facet normal 0.000000 0.000000 -1.000000
    outer loop
      vertex -0.475000 -0.005000 0.000000
      vertex 0.475000 0.005000 0.000000
      vertex 0.475000 -0.005000 0.000000
    endloop
  endfacet
  facet normal 0.000000 0.000000 -1.000000
    outer loop
      vertex -0.475000 -0.005000 0.000000
      vertex -0.475000 0.005000 0.000000
      vertex 0.475000 0.005000 0.000000
    endloop
  endfacet
  facet normal 0.000000 0.000000 1.000000
    outer loop
      vertex -0.475000 -0.005000 0.008000
      vertex 0.475000 -0.005000 0.008000
      vertex 0.475000 0.005000 0.008000
    endloop
  endfacet
  facet normal 0.000000 0.000000 1.000000
    outer loop
      vertex -0.475000 -0.005000 0.008000
      vertex 0.475000 0.005000 0.008000
      vertex -0.475000 0.005000 0.008000
    endloop
  endfacet
  facet normal 0.000000 -1.000000 0.000000
    outer loop
      vertex -0.475000 -0.005000 0.000000
      vertex 0.475000 -0.005000 0.000000
      vertex 0.475000 -0.005000 0.008000
    endloop
  endfacet
  facet normal 0.000000 -1.000000 0.000000
    outer loop
      vertex -0.475000 -0.005000 0.000000
      vertex 0.475000 -0.005000 0.008000
      vertex -0.475000 -0.005000 0.008000
    endloop
  endfacet
  facet normal 0.000000 1.000000 0.000000
    outer loop
      vertex -0.475000 0.005000 0.000000
      vertex -0.475000 0.005000 0.008000
      vertex 0.475000 0.005000 0.008000
    endloop
  endfacet
  facet normal 0.000000 1.000000 0.000000
    outer loop
      vertex -0.475000 0.005000 0.000000
      vertex 0.475000 0.005000 0.008000
      vertex 0.475000 0.005000 0.000000
    endloop
  endfacet
  facet normal -1.000000 0.000000 0.000000
    outer loop
      vertex -0.475000 -0.005000 0.000000
      vertex -0.475000 -0.005000 0.008000
      vertex -0.475000 0.005000 0.008000
    endloop
  endfacet
  facet normal -1.000000 0.000000 0.000000
    outer loop
      vertex -0.475000 -0.005000 0.000000
      vertex -0.475000 0.005000 0.008000
      vertex -0.475000 0.005000 0.000000
    endloop
  endfacet
  facet normal 1.000000 0.000000 0.000000
    outer loop
      vertex 0.475000 -0.005000 0.000000
      vertex 0.475000 0.005000 0.000000
      vertex 0.475000 0.005000 0.008000
    endloop
  endfacet
  facet normal 1.000000 0.000000 0.000000
    outer loop
      vertex 0.475000 -0.005000 0.000000
      vertex 0.475000 0.005000 0.008000
      vertex 0.475000 -0.005000 0.008000
    endloop
  endfacet
endsolid status_light
