solid top_fascia
  facet normal 0.000000 0.000000 -1.000000
    outer loop
      vertex -0.765000 -0.035000 0.000000
      vertex 0.765000 0.035000 0.000000
      vertex 0.765000 -0.035000 0.000000
    endloop
  endfacet
  facet normal 0.000000 0.000000 -1.000000
    outer loop
      vertex -0.765000 -0.035000 0.000000
      vertex -0.765000 0.035000 0.000000
      vertex 0.765000 0.035000 0.000000
    endloop
  endfacet
  facet normal 0.000000 0.000000 1.000000
    outer loop
      vertex -0.765000 -0.035000 0.160000
      vertex 0.765000 -0.035000 0.160000
      vertex 0.765000 0.035000 0.160000
    endloop
  endfacet
  facet normal 0.000000 0.000000 1.000000
    outer loop
      vertex -0.765000 -0.035000 0.160000
      vertex 0.765000 0.035000 0.160000
      vertex -0.765000 0.035000 0.160000
    endloop
  endfacet
  facet normal 0.000000 -1.000000 0.000000
    outer loop
      vertex -0.765000 -0.035000 0.000000
      vertex 0.765000 -0.035000 0.000000
      vertex 0.765000 -0.035000 0.160000
    endloop
  endfacet
  facet normal 0.000000 -1.000000 0.000000
    outer loop
      vertex -0.765000 -0.035000 0.000000
      vertex 0.765000 -0.035000 0.160000
      vertex -0.765000 -0.035000 0.160000
    endloop
  endfacet
  facet normal 0.000000 1.000000 0.000000
    outer loop
      vertex -0.765000 0.035000 0.000000
      vertex -0.765000 0.035000 0.160000
      vertex 0.765000 0.035000 0.160000
    endloop
  endfacet
  facet normal 0.000000 1.000000 0.000000
    outer loop
      vertex -0.765000 0.035000 0.000000
      vertex 0.765000 0.035000 0.160000
      vertex 0.765000 0.035000 0.000000
    endloop
  endfacet
  facet normal -1.000000 0.000000 0.000000
    outer loop
      vertex -0.765000 -0.035000 0.000000
      vertex -0.765000 -0.035000 0.160000
      vertex -0.765000 0.035000 0.160000
    endloop
  endfacet
  facet normal -1.000000 0.000000 0.000000
    outer loop
      vertex -0.765000 -0.035000 0.000000
      vertex -0.765000 0.035000 0.160000
      vertex -0.765000 0.035000 0.000000
    endloop
  endfacet
  facet normal 1.000000 0.000000 0.000000
    outer loop
      vertex 0.765000 -0.035000 0.000000
      vertex 0.765000 0.035000 0.000000
      vertex 0.765000 0.035000 0.160000
    endloop
  endfacet
  facet normal 1.000000 0.000000 0.000000
    outer loop
      vertex 0.765000 -0.035000 0.000000
      vertex 0.765000 0.035000 0.160000
      vertex 0.765000 -0.035000 0.160000
    endloop
  endfacet
endsolid top_fascia
