solid qpix420_control_console
  facet normal 0.000000 0.000000 -1.000000
    outer loop
      vertex -0.110000 -0.110000 0.000000
      vertex 0.110000 0.110000 0.000000
      vertex 0.110000 -0.110000 0.000000
    endloop
  endfacet
  facet normal 0.000000 0.000000 -1.000000
    outer loop
      vertex -0.110000 -0.110000 0.000000
      vertex -0.110000 0.110000 0.000000
      vertex 0.110000 0.110000 0.000000
    endloop
  endfacet
  facet normal 0.000000 0.000000 1.000000
    outer loop
      vertex -0.110000 -0.110000 0.460000
      vertex 0.110000 -0.110000 0.460000
      vertex 0.110000 0.110000 0.460000
    endloop
  endfacet
  facet normal 0.000000 0.000000 1.000000
    outer loop
      vertex -0.110000 -0.110000 0.460000
      vertex 0.110000 0.110000 0.460000
      vertex -0.110000 0.110000 0.460000
    endloop
  endfacet
  facet normal 0.000000 -1.000000 0.000000
    outer loop
      vertex -0.110000 -0.110000 0.000000
      vertex 0.110000 -0.110000 0.000000
      vertex 0.110000 -0.110000 0.460000
    endloop
  endfacet
  facet normal 0.000000 -1.000000 0.000000
    outer loop
      vertex -0.110000 -0.110000 0.000000
      vertex 0.110000 -0.110000 0.460000
      vertex -0.110000 -0.110000 0.460000
    endloop
  endfacet
  facet normal 0.000000 1.000000 0.000000
    outer loop
      vertex -0.110000 0.110000 0.000000
      vertex -0.110000 0.110000 0.460000
      vertex 0.110000 0.110000 0.460000
    endloop
  endfacet
  facet normal 0.000000 1.000000 0.000000
    outer loop
      vertex -0.110000 0.110000 0.000000
      vertex 0.110000 0.110000 0.460000
      vertex 0.110000 0.110000 0.000000
    endloop
  endfacet
  facet normal -1.000000 0.000000 0.000000
    outer loop
      vertex -0.110000 -0.110000 0.000000
      vertex -0.110000 -0.110000 0.460000
      vertex -0.110000 0.110000 0.460000
    endloop
  endfacet
  facet normal -1.000000 0.000000 0.000000
    outer loop
      vertex -0.110000 -0.110000 0.000000
      vertex -0.110000 0.110000 0.460000
      vertex -0.110000 0.110000 0.000000
    endloop
  endfacet
  facet normal 1.000000 0.000000 0.000000
    outer loop
      vertex 0.110000 -0.110000 0.000000
      vertex 0.110000 0.110000 0.000000
      vertex 0.110000 0.110000 0.460000
    endloop
  endfacet
  facet normal 1.000000 0.000000 0.000000
    outer loop
      vertex 0.110000 -0.110000 0.000000
      vertex 0.110000 0.110000 0.460000
      vertex 0.110000 -0.110000 0.460000
    endloop
  endfacet
endsolid qpix420_control_console
