solid qpix420_deck_table
  facet normal 0.000000 0.000000 -1.000000
    outer loop
      vertex -0.440000 -0.275000 0.000000
      vertex 0.440000 0.275000 0.000000
      vertex 0.440000 -0.275000 0.000000
    endloop
  endfacet
  facet normal 0.000000 0.000000 -1.000000
    outer loop
      vertex -0.440000 -0.275000 0.000000
      vertex -0.440000 0.275000 0.000000
      vertex 0.440000 0.275000 0.000000
    endloop
  endfacet
  facet normal 0.000000 0.000000 1.000000
    outer loop
      vertex -0.440000 -0.275000 0.030000
      vertex 0.440000 -0.275000 0.030000
      vertex 0.440000 0.275000 0.030000
    endloop
  endfacet
  facet normal 0.000000 0.000000 1.000000
    outer loop
      vertex -0.440000 -0.275000 0.030000
      vertex 0.440000 0.275000 0.030000
      vertex -0.440000 0.275000 0.030000
    endloop
  endfacet
  facet normal 0.000000 -1.000000 0.000000
    outer loop
      vertex -0.440000 -0.275000 0.000000
      vertex 0.440000 -0.275000 0.000000
      vertex 0.440000 -0.275000 0.030000
    endloop
  endfacet
  facet normal 0.000000 -1.000000 0.000000
    outer loop
      vertex -0.440000 -0.275000 0.000000
      vertex 0.440000 -0.275000 0.030000
      vertex -0.440000 -0.275000 0.030000
    endloop
  endfacet
  facet normal 0.000000 1.000000 0.000000
    outer loop
      vertex -0.440000 0.275000 0.000000
      vertex -0.440000 0.275000 0.030000
      vertex 0.440000 0.275000 0.030000
    endloop
  endfacet
  facet normal 0.000000 1.000000 0.000000
    outer loop
      vertex -0.440000 0.275000 0.000000
      vertex 0.440000 0.275000 0.030000
      vertex 0.440000 0.275000 0.000000
    endloop
  endfacet
  facet normal -1.000000 0.000000 0.000000
    outer loop
      vertex -0.440000 -0.275000 0.000000
      vertex -0.440000 -0.275000 0.030000
      vertex -0.440000 0.275000 0.030000
    endloop
  endfacet
  facet normal -1.000000 0.000000 0.000000
    outer loop
      vertex -0.440000 -0.275000 0.000000
      vertex -0.440000 0.275000 0.030000
      vertex -0.440000 0.275000 0.000000
    endloop
  endfacet
  facet normal 1.000000 0.000000 0.000000
    outer loop
      vertex 0.440000 -0.275000 0.000000
      vertex 0.440000 0.275000 0.000000
      vertex 0.440000 0.275000 0.030000
    endloop
  endfacet
  facet normal 1.000000 0.000000 0.000000
    outer loop
      vertex 0.440000 -0.275000 0.000000
      vertex 0.440000 0.275000 0.030000
      vertex 0.440000 -0.275000 0.030000
    endloop
  endfacet
endsolid qpix420_deck_table
