solid qpix420_gantry_beam
  facet normal 0.000000 0.000000 -1.000000
    outer loop
      vertex -0.510000 -0.055000 0.000000
      vertex 0.510000 0.055000 0.000000
      vertex 0.510000 -0.055000 0.000000
    endloop
  endfacet
  facet normal 0.000000 0.000000 -1.000000
    outer loop
      vertex -0.510000 -0.055000 0.000000
      vertex -0.510000 0.055000 0.000000
      vertex 0.510000 0.055000 0.000000
    endloop
  endfacet
  facet normal 0.000000 0.000000 1.000000
    outer loop
      vertex -0.510000 -0.055000 0.070000
      vertex 0.510000 -0.055000 0.070000
      vertex 0.510000 0.055000 0.070000
    endloop
  endfacet
  facet normal 0.000000 0.000000 1.000000
    outer loop
      vertex -0.510000 -0.055000 0.070000
      vertex 0.510000 0.055000 0.070000
      vertex -0.510000 0.055000 0.070000
    endloop
  endfacet
  facet normal 0.000000 -1.000000 0.000000
    outer loop
      vertex -0.510000 -0.055000 0.000000
      vertex 0.510000 -0.055000 0.000000
      vertex 0.510000 -0.055000 0.070000
    endloop
  endfacet
  facet normal 0.000000 -1.000000 0.000000
    outer loop
      vertex -0.510000 -0.055000 0.000000
      vertex 0.510000 -0.055000 0.070000
      vertex -0.510000 -0.055000 0.070000
    endloop
  endfacet
  facet normal 0.000000 1.000000 0.000000
    outer loop
      vertex -0.510000 0.055000 0.000000
      vertex -0.510000 0.055000 0.070000
      vertex 0.510000 0.055000 0.070000
    endloop
  endfacet
  facet normal 0.000000 1.000000 0.000000
    outer loop
      vertex -0.510000 0.055000 0.000000
      vertex 0.510000 0.055000 0.070000
      vertex 0.510000 0.055000 0.000000
    endloop
  endfacet
  facet normal -1.000000 0.000000 0.000000
    outer loop
      vertex -0.510000 -0.055000 0.000000
      vertex -0.510000 -0.055000 0.070000
      vertex -0.510000 0.055000 0.070000
    endloop
  endfacet
  facet normal -1.000000 0.000000 0.000000
    outer loop
      vertex -0.510000 -0.055000 0.000000
      vertex -0.510000 0.055000 0.070000
      vertex -0.510000 0.055000 0.000000
    endloop
  endfacet
  facet normal 1.000000 0.000000 0.000000
    outer loop
      vertex 0.510000 -0.055000 0.000000
      vertex 0.510000 0.055000 0.000000
      vertex 0.510000 0.055000 0.070000
    endloop
  endfacet
  facet normal 1.000000 0.000000 0.000000
    outer loop
      vertex 0.510000 -0.055000 0.000000
      vertex 0.510000 0.055000 0.070000
      vertex 0.510000 -0.055000 0.070000
    endloop
  endfacet
endsolid qpix420_gantry_beam
