solid qpix420_lane_tray
  facet normal 0.000000 0.000000 -1.000000
    outer loop
      vertex -0.130000 -0.060000 0.000000
      vertex 0.130000 0.060000 0.000000
      vertex 0.130000 -0.060000 0.000000
    endloop
  endfacet
  facet normal 0.000000 0.000000 -1.000000
    outer loop
      vertex -0.130000 -0.060000 0.000000
      vertex -0.130000 0.060000 0.000000
      vertex 0.130000 0.060000 0.000000
    endloop
  endfacet
  facet normal 0.000000 0.000000 1.000000
    outer loop
      vertex -0.130000 -0.060000 0.020000
      vertex 0.130000 -0.060000 0.020000
      vertex 0.130000 0.060000 0.020000
    endloop
  endfacet
  facet normal 0.000000 0.000000 1.000000
    outer loop
      vertex -0.130000 -0.060000 0.020000
      vertex 0.130000 0.060000 0.020000
      vertex -0.130000 0.060000 0.020000
    endloop
  endfacet
  facet normal 0.000000 -1.000000 0.000000
    outer loop
      vertex -0.130000 -0.060000 0.000000
      vertex 0.130000 -0.060000 0.000000
      vertex 0.130000 -0.060000 0.020000
    endloop
  endfacet
  facet normal 0.000000 -1.000000 0.000000
    outer loop
      vertex -0.130000 -0.060000 0.000000
      vertex 0.130000 -0.060000 0.020000
      vertex -0.130000 -0.060000 0.020000
    endloop
  endfacet
  facet normal 0.000000 1.000000 0.000000
    outer loop
      vertex -0.130000 0.060000 0.000000
      vertex -0.130000 0.060000 0.020000
      vertex 0.130000 0.060000 0.020000
    endloop
  endfacet
  facet normal 0.000000 1.000000 0.000000
    outer loop
      vertex -0.130000 0.060000 0.000000
      vertex 0.130000 0.060000 0.020000
      vertex 0.130000 0.060000 0.000000
    endloop
  endfacet
  facet normal -1.000000 0.000000 0.000000
    outer loop
      vertex -0.130000 -0.060000 0.000000
      vertex -0.130000 -0.060000 0.020000
      vertex -0.130000 0.060000 0.020000
    endloop
  endfacet
  facet normal -1.000000 0.000000 0.000000
    outer loop
      vertex -0.130000 -0.060000 0.000000
      vertex -0.130000 0.060000 0.020000
      vertex -0.130000 0.060000 0.000000
    endloop
  endfacet
  facet normal 1.000000 0.000000 0.000000
    outer loop
      vertex 0.130000 -0.060000 0.000000
      vertex 0.130000 0.060000 0.000000
      vertex 0.130000 0.060000 0.020000
    endloop
  endfacet
  facet normal 1.000000 0.000000 0.000000
    outer loop
      vertex 0.130000 -0.060000 0.000000
      vertex 0.130000 0.060000 0.020000
      vertex 0.130000 -0.060000 0.020000
    endloop
  endfacet
endsolid qpix420_lane_tray
