solid qpix420_left_side_cover
  facet normal 0.000000 0.000000 -1.000000
    outer loop
      vertex -0.040000 -0.395000 0.000000
      vertex 0.040000 0.395000 0.000000
      vertex 0.040000 -0.395000 0.000000
    endloop
  endfacet
  facet normal 0.000000 0.000000 -1.000000
    outer loop
      vertex -0.040000 -0.395000 0.000000
      vertex -0.040000 0.395000 0.000000
      vertex 0.040000 0.395000 0.000000
    endloop
  endfacet
  facet normal 0.000000 0.000000 1.000000
    outer loop
      vertex -0.040000 -0.395000 0.700000
      vertex 0.040000 -0.395000 0.700000
      vertex 0.040000 0.395000 0.700000
    endloop
  endfacet
  facet normal 0.000000 0.000000 1.000000
    outer loop
      vertex -0.040000 -0.395000 0.700000
      vertex 0.040000 0.395000 0.700000
      vertex -0.040000 0.395000 0.700000
    endloop
  endfacet
  facet normal 0.000000 -1.000000 0.000000
    outer loop
      vertex -0.040000 -0.395000 0.000000
      vertex 0.040000 -0.395000 0.000000
      vertex 0.040000 -0.395000 0.700000
    endloop
  endfacet
  facet normal 0.000000 -1.000000 0.000000
    outer loop
      vertex -0.040000 -0.395000 0.000000
      vertex 0.040000 -0.395000 0.700000
      vertex -0.040000 -0.395000 0.700000
    endloop
  endfacet
  facet normal 0.000000 1.000000 0.000000
    outer loop
      vertex -0.040000 0.395000 0.000000
      vertex -0.040000 0.395000 0.700000
      vertex 0.040000 0.395000 0.700000
    endloop
  endfacet
  facet normal 0.000000 1.000000 0.000000
    outer loop
      vertex -0.040000 0.395000 0.000000
      vertex 0.040000 0.395000 0.700000
      vertex 0.040000 0.395000 0.000000
    endloop
  endfacet
  facet normal -1.000000 0.000000 0.000000
    outer loop
      vertex -0.040000 -0.395000 0.000000
      vertex -0.040000 -0.395000 0.700000
      vertex -0.040000 0.395000 0.700000
    endloop
  endfacet
  facet normal -1.000000 0.000000 0.000000
    outer loop
      vertex -0.040000 -0.395000 0.000000
      vertex -0.040000 0.395000 0.700000
      vertex -0.040000 0.395000 0.000000
    endloop
  endfacet
  facet normal 1.000000 0.000000 0.000000
    outer loop
      vertex 0.040000 -0.395000 0.000000
      vertex 0.040000 0.395000 0.000000
      vertex 0.040000 0.395000 0.700000
    endloop
  endfacet
  facet normal 1.000000 0.000000 0.000000
    outer loop
      vertex 0.040000 -0.395000 0.000000
      vertex 0.040000 0.395000 0.700000
      vertex 0.040000 -0.395000 0.700000
    endloop
  endfacet
endsolid qpix420_left_side_cover
