solid qpix420_lower_chassis
  facet normal 0.000000 0.000000 -1.000000
    outer loop
      vertex -0.720000 -0.395000 0.000000
      vertex 0.720000 0.395000 0.000000
      vertex 0.720000 -0.395000 0.000000
    endloop
  endfacet
  facet normal 0.000000 0.000000 -1.000000
    outer loop
      vertex -0.720000 -0.395000 0.000000
      vertex -0.720000 0.395000 0.000000
      vertex 0.720000 0.395000 0.000000
    endloop
  endfacet
  facet normal 0.000000 0.000000 1.000000
    outer loop
      vertex -0.720000 -0.395000 0.400000
      vertex 0.720000 -0.395000 0.400000
      vertex 0.720000 0.395000 0.400000
    endloop
  endfacet
  facet normal 0.000000 0.000000 1.000000
    outer loop
      vertex -0.720000 -0.395000 0.400000
      vertex 0.720000 0.395000 0.400000
      vertex -0.720000 0.395000 0.400000
    endloop
  endfacet
  facet normal 0.000000 -1.000000 0.000000
    outer loop
      vertex -0.720000 -0.395000 0.000000
      vertex 0.720000 -0.395000 0.000000
      vertex 0.720000 -0.395000 0.400000
    endloop
  endfacet
  facet normal 0.000000 -1.000000 0.000000
    outer loop
      vertex -0.720000 -0.395000 0.000000
      vertex 0.720000 -0.395000 0.400000
      vertex -0.720000 -0.395000 0.400000
    endloop
  endfacet
  facet normal 0.000000 1.000000 0.000000
    outer loop
      vertex -0.720000 0.395000 0.000000
      vertex -0.720000 0.395000 0.400000
      vertex 0.720000 0.395000 0.400000
    endloop
  endfacet
  facet normal 0.000000 1.000000 0.000000
    outer loop
      vertex -0.720000 0.395000 0.000000
      vertex 0.720000 0.395000 0.400000
      vertex 0.720000 0.395000 0.000000
    endloop
  endfacet
  facet normal -1.000000 0.000000 0.000000
    outer loop
      vertex -0.720000 -0.395000 0.000000
      vertex -0.720000 -0.395000 0.400000
      vertex -0.720000 0.395000 0.400000
    endloop
  endfacet
  facet normal -1.000000 0.000000 0.000000
    outer loop
      vertex -0.720000 -0.395000 0.000000
      vertex -0.720000 0.395000 0.400000
      vertex -0.720000 0.395000 0.000000
    endloop
  endfacet
  facet normal 1.000000 0.000000 0.000000
    outer loop
      vertex 0.720000 -0.395000 0.000000
      vertex 0.720000 0.395000 0.000000
      vertex 0.720000 0.395000 0.400000
    endloop
  endfacet
  facet normal 1.000000 0.000000 0.000000
    outer loop
      vertex 0.720000 -0.395000 0.000000
      vertex 0.720000 0.395000 0.400000
      vertex 0.720000 -0.395000 0.400000
    endloop
  endfacet
endsolid qpix420_lower_chassis
