solid qpix420_upper_canopy
  facet normal 0.000000 0.000000 -1.000000
    outer loop
      vertex -0.540000 -0.210000 0.000000
      vertex 0.540000 0.210000 0.000000
      vertex 0.540000 -0.210000 0.000000
    endloop
  endfacet
  facet normal 0.000000 0.000000 -1.000000
    outer loop
      vertex -0.540000 -0.210000 0.000000
      vertex -0.540000 0.210000 0.000000
      vertex 0.540000 0.210000 0.000000
    endloop
  endfacet
  facet normal 0.000000 0.000000 1.000000
    outer loop
      vertex -0.540000 -0.210000 0.280000
      vertex 0.540000 -0.210000 0.280000
      vertex 0.540000 0.210000 0.280000
    endloop
  endfacet
  facet normal 0.000000 0.000000 1.000000
    outer loop
      vertex -0.540000 -0.210000 0.280000
      vertex 0.540000 0.210000 0.280000
      vertex -0.540000 0.210000 0.280000
    endloop
  endfacet
  facet normal 0.000000 -1.000000 0.000000
    outer loop
      vertex -0.540000 -0.210000 0.000000
      vertex 0.540000 -0.210000 0.000000
      vertex 0.540000 -0.210000 0.280000
    endloop
  endfacet
  facet normal 0.000000 -1.000000 0.000000
    outer loop
      vertex -0.540000 -0.210000 0.000000
      vertex 0.540000 -0.210000 0.280000
      vertex -0.540000 -0.210000 0.280000
    endloop
  endfacet
  facet normal 0.000000 1.000000 0.000000
    outer loop
      vertex -0.540000 0.210000 0.000000
      vertex -0.540000 0.210000 0.280000
      vertex 0.540000 0.210000 0.280000
    endloop
  endfacet
  facet normal 0.000000 1.000000 0.000000
    outer loop
      vertex -0.540000 0.210000 0.000000
      vertex 0.540000 0.210000 0.280000
      vertex 0.540000 0.210000 0.000000
    endloop
  endfacet
  facet normal -1.000000 0.000000 0.000000
    outer loop
      vertex -0.540000 -0.210000 0.000000
      vertex -0.540000 -0.210000 0.280000
      vertex -0.540000 0.210000 0.280000
    endloop
  endfacet
  facet normal -1.000000 0.000000 0.000000
    outer loop
      vertex -0.540000 -0.210000 0.000000
      vertex -0.540000 0.210000 0.280000
      vertex -0.540000 0.210000 0.000000
    endloop
  endfacet
  facet normal 1.000000 0.000000 0.000000
    outer loop
      vertex 0.540000 -0.210000 0.000000
      vertex 0.540000 0.210000 0.000000
      vertex 0.540000 0.210000 0.280000
    endloop
  endfacet
  facet normal 1.000000 0.000000 0.000000
    outer loop
      vertex 0.540000 -0.210000 0.000000
      vertex 0.540000 0.210000 0.280000
      vertex 0.540000 -0.210000 0.280000
    endloop
  endfacet
endsolid qpix420_upper_canopy
