solid incubator_shaker_stack_front_access_face
  facet normal 0.000000 0.000000 -1.000000
    outer loop
      vertex -0.068000 -0.004000 0.000000
      vertex 0.068000 0.004000 0.000000
      vertex 0.068000 -0.004000 0.000000
    endloop
  endfacet
  facet normal 0.000000 0.000000 -1.000000
    outer loop
      vertex -0.068000 -0.004000 0.000000
      vertex -0.068000 0.004000 0.000000
      vertex 0.068000 0.004000 0.000000
    endloop
  endfacet
  facet normal 0.000000 0.000000 1.000000
    outer loop
      vertex -0.068000 -0.004000 0.034000
      vertex 0.068000 -0.004000 0.034000
      vertex 0.068000 0.004000 0.034000
    endloop
  endfacet
  facet normal 0.000000 0.000000 1.000000
    outer loop
      vertex -0.068000 -0.004000 0.034000
      vertex 0.068000 0.004000 0.034000
      vertex -0.068000 0.004000 0.034000
    endloop
  endfacet
  facet normal 0.000000 -1.000000 0.000000
    outer loop
      vertex -0.068000 -0.004000 0.000000
      vertex 0.068000 -0.004000 0.000000
      vertex 0.068000 -0.004000 0.034000
    endloop
  endfacet
  facet normal 0.000000 -1.000000 0.000000
    outer loop
      vertex -0.068000 -0.004000 0.000000
      vertex 0.068000 -0.004000 0.034000
      vertex -0.068000 -0.004000 0.034000
    endloop
  endfacet
  facet normal 0.000000 1.000000 0.000000
    outer loop
      vertex -0.068000 0.004000 0.000000
      vertex -0.068000 0.004000 0.034000
      vertex 0.068000 0.004000 0.034000
    endloop
  endfacet
  facet normal 0.000000 1.000000 0.000000
    outer loop
      vertex -0.068000 0.004000 0.000000
      vertex 0.068000 0.004000 0.034000
      vertex 0.068000 0.004000 0.000000
    endloop
  endfacet
  facet normal -1.000000 0.000000 0.000000
    outer loop
      vertex -0.068000 -0.004000 0.000000
      vertex -0.068000 -0.004000 0.034000
      vertex -0.068000 0.004000 0.034000
    endloop
  endfacet
  facet normal -1.000000 0.000000 0.000000
    outer loop
      vertex -0.068000 -0.004000 0.000000
      vertex -0.068000 0.004000 0.034000
      vertex -0.068000 0.004000 0.000000
    endloop
  endfacet
  facet normal 1.000000 0.000000 0.000000
    outer loop
      vertex 0.068000 -0.004000 0.000000
      vertex 0.068000 0.004000 0.000000
      vertex 0.068000 0.004000 0.034000
    endloop
  endfacet
  facet normal 1.000000 0.000000 0.000000
    outer loop
      vertex 0.068000 -0.004000 0.000000
      vertex 0.068000 0.004000 0.034000
      vertex 0.068000 -0.004000 0.034000
    endloop
  endfacet
endsolid incubator_shaker_stack_front_access_face
