solid incubator_shaker_stack_loading_tray
  facet normal 0.000000 0.000000 -1.000000
    outer loop
      vertex -0.064000 -0.043000 0.000000
      vertex 0.064000 0.043000 0.000000
      vertex 0.064000 -0.043000 0.000000
    endloop
  endfacet
  facet normal 0.000000 0.000000 -1.000000
    outer loop
      vertex -0.064000 -0.043000 0.000000
      vertex -0.064000 0.043000 0.000000
      vertex 0.064000 0.043000 0.000000
    endloop
  endfacet
  facet normal 0.000000 0.000000 1.000000
    outer loop
      vertex -0.064000 -0.043000 0.006000
      vertex 0.064000 -0.043000 0.006000
      vertex 0.064000 0.043000 0.006000
    endloop
  endfacet
  facet normal 0.000000 0.000000 1.000000
    outer loop
      vertex -0.064000 -0.043000 0.006000
      vertex 0.064000 0.043000 0.006000
      vertex -0.064000 0.043000 0.006000
    endloop
  endfacet
  facet normal 0.000000 -1.000000 0.000000
    outer loop
      vertex -0.064000 -0.043000 0.000000
      vertex 0.064000 -0.043000 0.000000
      vertex 0.064000 -0.043000 0.006000
    endloop
  endfacet
  facet normal 0.000000 -1.000000 0.000000
    outer loop
      vertex -0.064000 -0.043000 0.000000
      vertex 0.064000 -0.043000 0.006000
      vertex -0.064000 -0.043000 0.006000
    endloop
  endfacet
  facet normal 0.000000 1.000000 0.000000
    outer loop
      vertex -0.064000 0.043000 0.000000
      vertex -0.064000 0.043000 0.006000
      vertex 0.064000 0.043000 0.006000
    endloop
  endfacet
  facet normal 0.000000 1.000000 0.000000
    outer loop
      vertex -0.064000 0.043000 0.000000
      vertex 0.064000 0.043000 0.006000
      vertex 0.064000 0.043000 0.000000
    endloop
  endfacet
  facet normal -1.000000 0.000000 0.000000
    outer loop
      vertex -0.064000 -0.043000 0.000000
      vertex -0.064000 -0.043000 0.006000
      vertex -0.064000 0.043000 0.006000
    endloop
  endfacet
  facet normal -1.000000 0.000000 0.000000
    outer loop
      vertex -0.064000 -0.043000 0.000000
      vertex -0.064000 0.043000 0.006000
      vertex -0.064000 0.043000 0.000000
    endloop
  endfacet
  facet normal 1.000000 0.000000 0.000000
    outer loop
      vertex 0.064000 -0.043000 0.000000
      vertex 0.064000 0.043000 0.000000
      vertex 0.064000 0.043000 0.006000
    endloop
  endfacet
  facet normal 1.000000 0.000000 0.000000
    outer loop
      vertex 0.064000 -0.043000 0.000000
      vertex 0.064000 0.043000 0.006000
      vertex 0.064000 -0.043000 0.006000
    endloop
  endfacet
endsolid incubator_shaker_stack_loading_tray
