solid incubator_shaker_stack_unit_body
  facet normal 0.000000 0.000000 -1.000000
    outer loop
      vertex -0.074500 -0.134250 0.000000
      vertex 0.074500 0.134250 0.000000
      vertex 0.074500 -0.134250 0.000000
    endloop
  endfacet
  facet normal 0.000000 0.000000 -1.000000
    outer loop
      vertex -0.074500 -0.134250 0.000000
      vertex -0.074500 0.134250 0.000000
      vertex 0.074500 0.134250 0.000000
    endloop
  endfacet
  facet normal 0.000000 0.000000 1.000000
    outer loop
      vertex -0.074500 -0.134250 0.088500
      vertex 0.074500 -0.134250 0.088500
      vertex 0.074500 0.134250 0.088500
    endloop
  endfacet
  facet normal 0.000000 0.000000 1.000000
    outer loop
      vertex -0.074500 -0.134250 0.088500
      vertex 0.074500 0.134250 0.088500
      vertex -0.074500 0.134250 0.088500
    endloop
  endfacet
  facet normal 0.000000 -1.000000 0.000000
    outer loop
      vertex -0.074500 -0.134250 0.000000
      vertex 0.074500 -0.134250 0.000000
      vertex 0.074500 -0.134250 0.088500
    endloop
  endfacet
  facet normal 0.000000 -1.000000 0.000000
    outer loop
      vertex -0.074500 -0.134250 0.000000
      vertex 0.074500 -0.134250 0.088500
      vertex -0.074500 -0.134250 0.088500
    endloop
  endfacet
  facet normal 0.000000 1.000000 0.000000
    outer loop
      vertex -0.074500 0.134250 0.000000
      vertex -0.074500 0.134250 0.088500
      vertex 0.074500 0.134250 0.088500
    endloop
  endfacet
  facet normal 0.000000 1.000000 0.000000
    outer loop
      vertex -0.074500 0.134250 0.000000
      vertex 0.074500 0.134250 0.088500
      vertex 0.074500 0.134250 0.000000
    endloop
  endfacet
  facet normal -1.000000 0.000000 0.000000
    outer loop
      vertex -0.074500 -0.134250 0.000000
      vertex -0.074500 -0.134250 0.088500
      vertex -0.074500 0.134250 0.088500
    endloop
  endfacet
  facet normal -1.000000 0.000000 0.000000
    outer loop
      vertex -0.074500 -0.134250 0.000000
      vertex -0.074500 0.134250 0.088500
      vertex -0.074500 0.134250 0.000000
    endloop
  endfacet
  facet normal 1.000000 0.000000 0.000000
    outer loop
      vertex 0.074500 -0.134250 0.000000
      vertex 0.074500 0.134250 0.000000
      vertex 0.074500 0.134250 0.088500
    endloop
  endfacet
  facet normal 1.000000 0.000000 0.000000
    outer loop
      vertex 0.074500 -0.134250 0.000000
      vertex 0.074500 0.134250 0.088500
      vertex 0.074500 -0.134250 0.088500
    endloop
  endfacet
endsolid incubator_shaker_stack_unit_body
